G04 #@! TF.GenerationSoftware,KiCad,Pcbnew,8.0.3*
G04 #@! TF.CreationDate,2024-06-06T03:05:29-03:00*
G04 #@! TF.ProjectId,MSX_GOAULD_XC7,4d53585f-474f-4415-954c-445f5843372e,rev?*
G04 #@! TF.SameCoordinates,Original*
G04 #@! TF.FileFunction,Legend,Bot*
G04 #@! TF.FilePolarity,Positive*
%FSLAX46Y46*%
G04 Gerber Fmt 4.6, Leading zero omitted, Abs format (unit mm)*
G04 Created by KiCad (PCBNEW 8.0.3) date 2024-06-06 03:05:29*
%MOMM*%
%LPD*%
G01*
G04 APERTURE LIST*
%ADD10C,0.150000*%
%ADD11R,1.600000X1.600000*%
%ADD12O,1.600000X1.600000*%
%ADD13O,3.452400X1.652400*%
%ADD14O,2.452400X1.652400*%
%ADD15C,1.000000*%
%ADD16C,1.600000*%
%ADD17R,1.700000X1.700000*%
%ADD18O,1.700000X1.700000*%
G04 APERTURE END LIST*
D10*
X154546180Y-115963506D02*
X153831895Y-115963506D01*
X153831895Y-115963506D02*
X153689038Y-116011125D01*
X153689038Y-116011125D02*
X153593800Y-116106363D01*
X153593800Y-116106363D02*
X153546180Y-116249220D01*
X153546180Y-116249220D02*
X153546180Y-116344458D01*
X153546180Y-115011125D02*
X153546180Y-115487315D01*
X153546180Y-115487315D02*
X154546180Y-115487315D01*
X153641419Y-114106363D02*
X153593800Y-114153982D01*
X153593800Y-114153982D02*
X153546180Y-114296839D01*
X153546180Y-114296839D02*
X153546180Y-114392077D01*
X153546180Y-114392077D02*
X153593800Y-114534934D01*
X153593800Y-114534934D02*
X153689038Y-114630172D01*
X153689038Y-114630172D02*
X153784276Y-114677791D01*
X153784276Y-114677791D02*
X153974752Y-114725410D01*
X153974752Y-114725410D02*
X154117609Y-114725410D01*
X154117609Y-114725410D02*
X154308085Y-114677791D01*
X154308085Y-114677791D02*
X154403323Y-114630172D01*
X154403323Y-114630172D02*
X154498561Y-114534934D01*
X154498561Y-114534934D02*
X154546180Y-114392077D01*
X154546180Y-114392077D02*
X154546180Y-114296839D01*
X154546180Y-114296839D02*
X154498561Y-114153982D01*
X154498561Y-114153982D02*
X154450942Y-114106363D01*
X154546180Y-113392077D02*
X153831895Y-113392077D01*
X153831895Y-113392077D02*
X153689038Y-113439696D01*
X153689038Y-113439696D02*
X153593800Y-113534934D01*
X153593800Y-113534934D02*
X153546180Y-113677791D01*
X153546180Y-113677791D02*
X153546180Y-113773029D01*
X153546180Y-112439696D02*
X153546180Y-112915886D01*
X153546180Y-112915886D02*
X154546180Y-112915886D01*
X153641419Y-111534934D02*
X153593800Y-111582553D01*
X153593800Y-111582553D02*
X153546180Y-111725410D01*
X153546180Y-111725410D02*
X153546180Y-111820648D01*
X153546180Y-111820648D02*
X153593800Y-111963505D01*
X153593800Y-111963505D02*
X153689038Y-112058743D01*
X153689038Y-112058743D02*
X153784276Y-112106362D01*
X153784276Y-112106362D02*
X153974752Y-112153981D01*
X153974752Y-112153981D02*
X154117609Y-112153981D01*
X154117609Y-112153981D02*
X154308085Y-112106362D01*
X154308085Y-112106362D02*
X154403323Y-112058743D01*
X154403323Y-112058743D02*
X154498561Y-111963505D01*
X154498561Y-111963505D02*
X154546180Y-111820648D01*
X154546180Y-111820648D02*
X154546180Y-111725410D01*
X154546180Y-111725410D02*
X154498561Y-111582553D01*
X154498561Y-111582553D02*
X154450942Y-111534934D01*
X154546180Y-110820648D02*
X153831895Y-110820648D01*
X153831895Y-110820648D02*
X153689038Y-110868267D01*
X153689038Y-110868267D02*
X153593800Y-110963505D01*
X153593800Y-110963505D02*
X153546180Y-111106362D01*
X153546180Y-111106362D02*
X153546180Y-111201600D01*
X153546180Y-109868267D02*
X153546180Y-110344457D01*
X153546180Y-110344457D02*
X154546180Y-110344457D01*
X153641419Y-108963505D02*
X153593800Y-109011124D01*
X153593800Y-109011124D02*
X153546180Y-109153981D01*
X153546180Y-109153981D02*
X153546180Y-109249219D01*
X153546180Y-109249219D02*
X153593800Y-109392076D01*
X153593800Y-109392076D02*
X153689038Y-109487314D01*
X153689038Y-109487314D02*
X153784276Y-109534933D01*
X153784276Y-109534933D02*
X153974752Y-109582552D01*
X153974752Y-109582552D02*
X154117609Y-109582552D01*
X154117609Y-109582552D02*
X154308085Y-109534933D01*
X154308085Y-109534933D02*
X154403323Y-109487314D01*
X154403323Y-109487314D02*
X154498561Y-109392076D01*
X154498561Y-109392076D02*
X154546180Y-109249219D01*
X154546180Y-109249219D02*
X154546180Y-109153981D01*
X154546180Y-109153981D02*
X154498561Y-109011124D01*
X154498561Y-109011124D02*
X154450942Y-108963505D01*
X154546180Y-108249219D02*
X153831895Y-108249219D01*
X153831895Y-108249219D02*
X153689038Y-108296838D01*
X153689038Y-108296838D02*
X153593800Y-108392076D01*
X153593800Y-108392076D02*
X153546180Y-108534933D01*
X153546180Y-108534933D02*
X153546180Y-108630171D01*
X153546180Y-107296838D02*
X153546180Y-107773028D01*
X153546180Y-107773028D02*
X154546180Y-107773028D01*
X153641419Y-106392076D02*
X153593800Y-106439695D01*
X153593800Y-106439695D02*
X153546180Y-106582552D01*
X153546180Y-106582552D02*
X153546180Y-106677790D01*
X153546180Y-106677790D02*
X153593800Y-106820647D01*
X153593800Y-106820647D02*
X153689038Y-106915885D01*
X153689038Y-106915885D02*
X153784276Y-106963504D01*
X153784276Y-106963504D02*
X153974752Y-107011123D01*
X153974752Y-107011123D02*
X154117609Y-107011123D01*
X154117609Y-107011123D02*
X154308085Y-106963504D01*
X154308085Y-106963504D02*
X154403323Y-106915885D01*
X154403323Y-106915885D02*
X154498561Y-106820647D01*
X154498561Y-106820647D02*
X154546180Y-106677790D01*
X154546180Y-106677790D02*
X154546180Y-106582552D01*
X154546180Y-106582552D02*
X154498561Y-106439695D01*
X154498561Y-106439695D02*
X154450942Y-106392076D01*
%LPC*%
D11*
X141351000Y-93472000D03*
D12*
X141351000Y-96012000D03*
X141351000Y-98552000D03*
X141351000Y-101092000D03*
X141351000Y-103632000D03*
X141351000Y-106172000D03*
X141351000Y-108712000D03*
X141351000Y-111252000D03*
X141351000Y-113792000D03*
X141351000Y-116332000D03*
X141351000Y-118872000D03*
X141351000Y-121412000D03*
X141351000Y-123952000D03*
X141351000Y-126492000D03*
X141351000Y-129032000D03*
X141351000Y-131572000D03*
X141351000Y-134112000D03*
X141351000Y-136652000D03*
X141351000Y-139192000D03*
X141351000Y-141732000D03*
X156591000Y-141732000D03*
X156591000Y-139192000D03*
X156591000Y-136652000D03*
X156591000Y-134112000D03*
X156591000Y-131572000D03*
X156591000Y-129032000D03*
X156591000Y-126492000D03*
X156591000Y-123952000D03*
X156591000Y-121412000D03*
X156591000Y-118872000D03*
X156591000Y-116332000D03*
X156591000Y-113792000D03*
X156591000Y-111252000D03*
X156591000Y-108712000D03*
X156591000Y-106172000D03*
X156591000Y-103632000D03*
X156591000Y-101092000D03*
X156591000Y-98552000D03*
X156591000Y-96012000D03*
X156591000Y-93472000D03*
D13*
X103750000Y-102384000D03*
X103750000Y-87884000D03*
D14*
X97790000Y-102384000D03*
X97790000Y-87884000D03*
D15*
X97282000Y-109474000D03*
X97282000Y-117474000D03*
D11*
X119380000Y-81151300D03*
D16*
X119380000Y-84651300D03*
D17*
X119126000Y-89662000D03*
D18*
X121666000Y-89662000D03*
X119126000Y-92202000D03*
X121666000Y-92202000D03*
X119126000Y-94742000D03*
X121666000Y-94742000D03*
X119126000Y-97282000D03*
X121666000Y-97282000D03*
X119126000Y-99822000D03*
X121666000Y-99822000D03*
X119126000Y-102362000D03*
X121666000Y-102362000D03*
D17*
X119126000Y-106934000D03*
D18*
X121666000Y-106934000D03*
X119126000Y-109474000D03*
X121666000Y-109474000D03*
X119126000Y-112014000D03*
X121666000Y-112014000D03*
X119126000Y-114554000D03*
X121666000Y-114554000D03*
X119126000Y-117094000D03*
X121666000Y-117094000D03*
X119126000Y-119634000D03*
X121666000Y-119634000D03*
D17*
X125597500Y-80624000D03*
D18*
X128137500Y-80624000D03*
X125597500Y-83164000D03*
X128137500Y-83164000D03*
X125597500Y-85704000D03*
X128137500Y-85704000D03*
X125597500Y-88244000D03*
X128137500Y-88244000D03*
X125597500Y-90784000D03*
X128137500Y-90784000D03*
X125597500Y-93324000D03*
X128137500Y-93324000D03*
X125597500Y-95864000D03*
X128137500Y-95864000D03*
X125597500Y-98404000D03*
X128137500Y-98404000D03*
X125597500Y-100944000D03*
X128137500Y-100944000D03*
X125597500Y-103484000D03*
X128137500Y-103484000D03*
X125597500Y-106024000D03*
X128137500Y-106024000D03*
X125597500Y-108564000D03*
X128137500Y-108564000D03*
X125597500Y-111104000D03*
X128137500Y-111104000D03*
X125597500Y-113644000D03*
X128137500Y-113644000D03*
X125597500Y-116184000D03*
X128137500Y-116184000D03*
X125597500Y-118724000D03*
X128137500Y-118724000D03*
X125597500Y-121264000D03*
X128137500Y-121264000D03*
X125597500Y-123804000D03*
X128137500Y-123804000D03*
X125597500Y-126344000D03*
X128137500Y-126344000D03*
X125597500Y-128884000D03*
X128137500Y-128884000D03*
X125597500Y-131424000D03*
X128137500Y-131424000D03*
X125597500Y-133964000D03*
X128137500Y-133964000D03*
X125597500Y-136504000D03*
X128137500Y-136504000D03*
X125597500Y-139044000D03*
X128137500Y-139044000D03*
X125597500Y-141584000D03*
X128137500Y-141584000D03*
D17*
X176397500Y-80594000D03*
D18*
X178937500Y-80594000D03*
X176397500Y-83134000D03*
X178937500Y-83134000D03*
X176397500Y-85674000D03*
X178937500Y-85674000D03*
X176397500Y-88214000D03*
X178937500Y-88214000D03*
X176397500Y-90754000D03*
X178937500Y-90754000D03*
X176397500Y-93294000D03*
X178937500Y-93294000D03*
X176397500Y-95834000D03*
X178937500Y-95834000D03*
X176397500Y-98374000D03*
X178937500Y-98374000D03*
X176397500Y-100914000D03*
X178937500Y-100914000D03*
X176397500Y-103454000D03*
X178937500Y-103454000D03*
X176397500Y-105994000D03*
X178937500Y-105994000D03*
X176397500Y-108534000D03*
X178937500Y-108534000D03*
X176397500Y-111074000D03*
X178937500Y-111074000D03*
X176397500Y-113614000D03*
X178937500Y-113614000D03*
X176397500Y-116154000D03*
X178937500Y-116154000D03*
X176397500Y-118694000D03*
X178937500Y-118694000D03*
X176397500Y-121234000D03*
X178937500Y-121234000D03*
X176397500Y-123774000D03*
X178937500Y-123774000D03*
X176397500Y-126314000D03*
X178937500Y-126314000D03*
X176397500Y-128854000D03*
X178937500Y-128854000D03*
X176397500Y-131394000D03*
X178937500Y-131394000D03*
X176397500Y-133934000D03*
X178937500Y-133934000D03*
X176397500Y-136474000D03*
X178937500Y-136474000D03*
X176397500Y-139014000D03*
X178937500Y-139014000D03*
X176397500Y-141554000D03*
X178937500Y-141554000D03*
D17*
X119126000Y-126746000D03*
D18*
X121666000Y-126746000D03*
X119126000Y-129286000D03*
X121666000Y-129286000D03*
X119126000Y-131826000D03*
X121666000Y-131826000D03*
X119126000Y-134366000D03*
X121666000Y-134366000D03*
X119126000Y-136906000D03*
X121666000Y-136906000D03*
X119126000Y-139446000D03*
X121666000Y-139446000D03*
%LPD*%
M02*
