G04 #@! TF.GenerationSoftware,KiCad,Pcbnew,8.0.3*
G04 #@! TF.CreationDate,2024-06-06T03:05:29-03:00*
G04 #@! TF.ProjectId,MSX_GOAULD_XC7,4d53585f-474f-4415-954c-445f5843372e,rev?*
G04 #@! TF.SameCoordinates,Original*
G04 #@! TF.FileFunction,Legend,Top*
G04 #@! TF.FilePolarity,Positive*
%FSLAX46Y46*%
G04 Gerber Fmt 4.6, Leading zero omitted, Abs format (unit mm)*
G04 Created by KiCad (PCBNEW 8.0.3) date 2024-06-06 03:05:29*
%MOMM*%
%LPD*%
G01*
G04 APERTURE LIST*
G04 Aperture macros list*
%AMRoundRect*
0 Rectangle with rounded corners*
0 $1 Rounding radius*
0 $2 $3 $4 $5 $6 $7 $8 $9 X,Y pos of 4 corners*
0 Add a 4 corners polygon primitive as box body*
4,1,4,$2,$3,$4,$5,$6,$7,$8,$9,$2,$3,0*
0 Add four circle primitives for the rounded corners*
1,1,$1+$1,$2,$3*
1,1,$1+$1,$4,$5*
1,1,$1+$1,$6,$7*
1,1,$1+$1,$8,$9*
0 Add four rect primitives between the rounded corners*
20,1,$1+$1,$2,$3,$4,$5,0*
20,1,$1+$1,$4,$5,$6,$7,0*
20,1,$1+$1,$6,$7,$8,$9,0*
20,1,$1+$1,$8,$9,$2,$3,0*%
G04 Aperture macros list end*
%ADD10C,0.100000*%
%ADD11C,0.300000*%
%ADD12C,0.150000*%
%ADD13C,0.152400*%
%ADD14C,0.120000*%
%ADD15C,0.250000*%
%ADD16C,0.010000*%
%ADD17R,1.167000X1.192000*%
%ADD18RoundRect,0.102000X0.901700X0.266700X-0.901700X0.266700X-0.901700X-0.266700X0.901700X-0.266700X0*%
%ADD19R,1.600000X1.600000*%
%ADD20O,1.600000X1.600000*%
%ADD21R,1.192000X1.167000*%
%ADD22O,3.452400X1.652400*%
%ADD23O,2.452400X1.652400*%
%ADD24C,1.000000*%
%ADD25R,1.600000X0.700000*%
%ADD26R,1.500000X1.200000*%
%ADD27R,2.200000X1.200000*%
%ADD28R,1.500000X1.600000*%
%ADD29C,1.600000*%
%ADD30O,1.740000X0.360000*%
%ADD31R,1.700000X1.700000*%
%ADD32O,1.700000X1.700000*%
G04 APERTURE END LIST*
D10*
X94007598Y-140907175D02*
X93931408Y-140869080D01*
X93931408Y-140869080D02*
X93855217Y-140792890D01*
X93855217Y-140792890D02*
X93740931Y-140678604D01*
X93740931Y-140678604D02*
X93664741Y-140640509D01*
X93664741Y-140640509D02*
X93588550Y-140640509D01*
X93626646Y-140830985D02*
X93550455Y-140792890D01*
X93550455Y-140792890D02*
X93474265Y-140716699D01*
X93474265Y-140716699D02*
X93436169Y-140564318D01*
X93436169Y-140564318D02*
X93436169Y-140297651D01*
X93436169Y-140297651D02*
X93474265Y-140145270D01*
X93474265Y-140145270D02*
X93550455Y-140069080D01*
X93550455Y-140069080D02*
X93626646Y-140030985D01*
X93626646Y-140030985D02*
X93779027Y-140030985D01*
X93779027Y-140030985D02*
X93855217Y-140069080D01*
X93855217Y-140069080D02*
X93931408Y-140145270D01*
X93931408Y-140145270D02*
X93969503Y-140297651D01*
X93969503Y-140297651D02*
X93969503Y-140564318D01*
X93969503Y-140564318D02*
X93931408Y-140716699D01*
X93931408Y-140716699D02*
X93855217Y-140792890D01*
X93855217Y-140792890D02*
X93779027Y-140830985D01*
X93779027Y-140830985D02*
X93626646Y-140830985D01*
X94312360Y-140830985D02*
X94312360Y-140030985D01*
X94312360Y-140030985D02*
X94579026Y-140602413D01*
X94579026Y-140602413D02*
X94845693Y-140030985D01*
X94845693Y-140030985D02*
X94845693Y-140830985D01*
X95112360Y-140030985D02*
X95569503Y-140030985D01*
X95340931Y-140830985D02*
X95340931Y-140030985D01*
X95836170Y-140411937D02*
X96102836Y-140411937D01*
X96217122Y-140830985D02*
X95836170Y-140830985D01*
X95836170Y-140830985D02*
X95836170Y-140030985D01*
X95836170Y-140030985D02*
X96217122Y-140030985D01*
X97017123Y-140754794D02*
X96979027Y-140792890D01*
X96979027Y-140792890D02*
X96864742Y-140830985D01*
X96864742Y-140830985D02*
X96788551Y-140830985D01*
X96788551Y-140830985D02*
X96674265Y-140792890D01*
X96674265Y-140792890D02*
X96598075Y-140716699D01*
X96598075Y-140716699D02*
X96559980Y-140640509D01*
X96559980Y-140640509D02*
X96521884Y-140488128D01*
X96521884Y-140488128D02*
X96521884Y-140373842D01*
X96521884Y-140373842D02*
X96559980Y-140221461D01*
X96559980Y-140221461D02*
X96598075Y-140145270D01*
X96598075Y-140145270D02*
X96674265Y-140069080D01*
X96674265Y-140069080D02*
X96788551Y-140030985D01*
X96788551Y-140030985D02*
X96864742Y-140030985D01*
X96864742Y-140030985D02*
X96979027Y-140069080D01*
X96979027Y-140069080D02*
X97017123Y-140107175D01*
X97359980Y-140830985D02*
X97359980Y-140030985D01*
X97359980Y-140411937D02*
X97817123Y-140411937D01*
X97817123Y-140830985D02*
X97817123Y-140030985D01*
X98731408Y-140030985D02*
X99264742Y-140830985D01*
X99264742Y-140030985D02*
X98731408Y-140830985D01*
X100026647Y-140754794D02*
X99988551Y-140792890D01*
X99988551Y-140792890D02*
X99874266Y-140830985D01*
X99874266Y-140830985D02*
X99798075Y-140830985D01*
X99798075Y-140830985D02*
X99683789Y-140792890D01*
X99683789Y-140792890D02*
X99607599Y-140716699D01*
X99607599Y-140716699D02*
X99569504Y-140640509D01*
X99569504Y-140640509D02*
X99531408Y-140488128D01*
X99531408Y-140488128D02*
X99531408Y-140373842D01*
X99531408Y-140373842D02*
X99569504Y-140221461D01*
X99569504Y-140221461D02*
X99607599Y-140145270D01*
X99607599Y-140145270D02*
X99683789Y-140069080D01*
X99683789Y-140069080D02*
X99798075Y-140030985D01*
X99798075Y-140030985D02*
X99874266Y-140030985D01*
X99874266Y-140030985D02*
X99988551Y-140069080D01*
X99988551Y-140069080D02*
X100026647Y-140107175D01*
X100293313Y-140030985D02*
X100826647Y-140030985D01*
X100826647Y-140030985D02*
X100483789Y-140830985D01*
X101093313Y-140602413D02*
X101474266Y-140602413D01*
X101017123Y-140830985D02*
X101283790Y-140030985D01*
X101283790Y-140030985D02*
X101550456Y-140830985D01*
X101740932Y-140030985D02*
X102236170Y-140030985D01*
X102236170Y-140030985D02*
X101969504Y-140335747D01*
X101969504Y-140335747D02*
X102083789Y-140335747D01*
X102083789Y-140335747D02*
X102159980Y-140373842D01*
X102159980Y-140373842D02*
X102198075Y-140411937D01*
X102198075Y-140411937D02*
X102236170Y-140488128D01*
X102236170Y-140488128D02*
X102236170Y-140678604D01*
X102236170Y-140678604D02*
X102198075Y-140754794D01*
X102198075Y-140754794D02*
X102159980Y-140792890D01*
X102159980Y-140792890D02*
X102083789Y-140830985D01*
X102083789Y-140830985D02*
X101855218Y-140830985D01*
X101855218Y-140830985D02*
X101779027Y-140792890D01*
X101779027Y-140792890D02*
X101740932Y-140754794D01*
X102959980Y-140030985D02*
X102579028Y-140030985D01*
X102579028Y-140030985D02*
X102540932Y-140411937D01*
X102540932Y-140411937D02*
X102579028Y-140373842D01*
X102579028Y-140373842D02*
X102655218Y-140335747D01*
X102655218Y-140335747D02*
X102845694Y-140335747D01*
X102845694Y-140335747D02*
X102921885Y-140373842D01*
X102921885Y-140373842D02*
X102959980Y-140411937D01*
X102959980Y-140411937D02*
X102998075Y-140488128D01*
X102998075Y-140488128D02*
X102998075Y-140678604D01*
X102998075Y-140678604D02*
X102959980Y-140754794D01*
X102959980Y-140754794D02*
X102921885Y-140792890D01*
X102921885Y-140792890D02*
X102845694Y-140830985D01*
X102845694Y-140830985D02*
X102655218Y-140830985D01*
X102655218Y-140830985D02*
X102579028Y-140792890D01*
X102579028Y-140792890D02*
X102540932Y-140754794D01*
X103226647Y-140030985D02*
X103683790Y-140030985D01*
X103455218Y-140830985D02*
X103455218Y-140030985D01*
X104559981Y-140830985D02*
X104559981Y-140030985D01*
X104559981Y-140030985D02*
X104826647Y-140602413D01*
X104826647Y-140602413D02*
X105093314Y-140030985D01*
X105093314Y-140030985D02*
X105093314Y-140830985D01*
X105436171Y-140792890D02*
X105550457Y-140830985D01*
X105550457Y-140830985D02*
X105740933Y-140830985D01*
X105740933Y-140830985D02*
X105817124Y-140792890D01*
X105817124Y-140792890D02*
X105855219Y-140754794D01*
X105855219Y-140754794D02*
X105893314Y-140678604D01*
X105893314Y-140678604D02*
X105893314Y-140602413D01*
X105893314Y-140602413D02*
X105855219Y-140526223D01*
X105855219Y-140526223D02*
X105817124Y-140488128D01*
X105817124Y-140488128D02*
X105740933Y-140450032D01*
X105740933Y-140450032D02*
X105588552Y-140411937D01*
X105588552Y-140411937D02*
X105512362Y-140373842D01*
X105512362Y-140373842D02*
X105474267Y-140335747D01*
X105474267Y-140335747D02*
X105436171Y-140259556D01*
X105436171Y-140259556D02*
X105436171Y-140183366D01*
X105436171Y-140183366D02*
X105474267Y-140107175D01*
X105474267Y-140107175D02*
X105512362Y-140069080D01*
X105512362Y-140069080D02*
X105588552Y-140030985D01*
X105588552Y-140030985D02*
X105779029Y-140030985D01*
X105779029Y-140030985D02*
X105893314Y-140069080D01*
X106159981Y-140030985D02*
X106693315Y-140830985D01*
X106693315Y-140030985D02*
X106159981Y-140830985D01*
X108026648Y-140069080D02*
X107950458Y-140030985D01*
X107950458Y-140030985D02*
X107836172Y-140030985D01*
X107836172Y-140030985D02*
X107721886Y-140069080D01*
X107721886Y-140069080D02*
X107645696Y-140145270D01*
X107645696Y-140145270D02*
X107607601Y-140221461D01*
X107607601Y-140221461D02*
X107569505Y-140373842D01*
X107569505Y-140373842D02*
X107569505Y-140488128D01*
X107569505Y-140488128D02*
X107607601Y-140640509D01*
X107607601Y-140640509D02*
X107645696Y-140716699D01*
X107645696Y-140716699D02*
X107721886Y-140792890D01*
X107721886Y-140792890D02*
X107836172Y-140830985D01*
X107836172Y-140830985D02*
X107912363Y-140830985D01*
X107912363Y-140830985D02*
X108026648Y-140792890D01*
X108026648Y-140792890D02*
X108064744Y-140754794D01*
X108064744Y-140754794D02*
X108064744Y-140488128D01*
X108064744Y-140488128D02*
X107912363Y-140488128D01*
X108559982Y-140030985D02*
X108712363Y-140030985D01*
X108712363Y-140030985D02*
X108788553Y-140069080D01*
X108788553Y-140069080D02*
X108864744Y-140145270D01*
X108864744Y-140145270D02*
X108902839Y-140297651D01*
X108902839Y-140297651D02*
X108902839Y-140564318D01*
X108902839Y-140564318D02*
X108864744Y-140716699D01*
X108864744Y-140716699D02*
X108788553Y-140792890D01*
X108788553Y-140792890D02*
X108712363Y-140830985D01*
X108712363Y-140830985D02*
X108559982Y-140830985D01*
X108559982Y-140830985D02*
X108483791Y-140792890D01*
X108483791Y-140792890D02*
X108407601Y-140716699D01*
X108407601Y-140716699D02*
X108369505Y-140564318D01*
X108369505Y-140564318D02*
X108369505Y-140297651D01*
X108369505Y-140297651D02*
X108407601Y-140145270D01*
X108407601Y-140145270D02*
X108483791Y-140069080D01*
X108483791Y-140069080D02*
X108559982Y-140030985D01*
X109207600Y-140602413D02*
X109588553Y-140602413D01*
X109131410Y-140830985D02*
X109398077Y-140030985D01*
X109398077Y-140030985D02*
X109664743Y-140830985D01*
X109969505Y-140030985D02*
X109893314Y-140183366D01*
X110312362Y-140030985D02*
X110312362Y-140678604D01*
X110312362Y-140678604D02*
X110350457Y-140754794D01*
X110350457Y-140754794D02*
X110388552Y-140792890D01*
X110388552Y-140792890D02*
X110464743Y-140830985D01*
X110464743Y-140830985D02*
X110617124Y-140830985D01*
X110617124Y-140830985D02*
X110693314Y-140792890D01*
X110693314Y-140792890D02*
X110731409Y-140754794D01*
X110731409Y-140754794D02*
X110769505Y-140678604D01*
X110769505Y-140678604D02*
X110769505Y-140030985D01*
X111531409Y-140830985D02*
X111150457Y-140830985D01*
X111150457Y-140830985D02*
X111150457Y-140030985D01*
X111798076Y-140830985D02*
X111798076Y-140030985D01*
X111798076Y-140030985D02*
X111988552Y-140030985D01*
X111988552Y-140030985D02*
X112102838Y-140069080D01*
X112102838Y-140069080D02*
X112179028Y-140145270D01*
X112179028Y-140145270D02*
X112217123Y-140221461D01*
X112217123Y-140221461D02*
X112255219Y-140373842D01*
X112255219Y-140373842D02*
X112255219Y-140488128D01*
X112255219Y-140488128D02*
X112217123Y-140640509D01*
X112217123Y-140640509D02*
X112179028Y-140716699D01*
X112179028Y-140716699D02*
X112102838Y-140792890D01*
X112102838Y-140792890D02*
X111988552Y-140830985D01*
X111988552Y-140830985D02*
X111798076Y-140830985D01*
X93474265Y-141318940D02*
X93474265Y-141966559D01*
X93474265Y-141966559D02*
X93512360Y-142042749D01*
X93512360Y-142042749D02*
X93550455Y-142080845D01*
X93550455Y-142080845D02*
X93626646Y-142118940D01*
X93626646Y-142118940D02*
X93779027Y-142118940D01*
X93779027Y-142118940D02*
X93855217Y-142080845D01*
X93855217Y-142080845D02*
X93893312Y-142042749D01*
X93893312Y-142042749D02*
X93931408Y-141966559D01*
X93931408Y-141966559D02*
X93931408Y-141318940D01*
X94274264Y-142080845D02*
X94388550Y-142118940D01*
X94388550Y-142118940D02*
X94579026Y-142118940D01*
X94579026Y-142118940D02*
X94655217Y-142080845D01*
X94655217Y-142080845D02*
X94693312Y-142042749D01*
X94693312Y-142042749D02*
X94731407Y-141966559D01*
X94731407Y-141966559D02*
X94731407Y-141890368D01*
X94731407Y-141890368D02*
X94693312Y-141814178D01*
X94693312Y-141814178D02*
X94655217Y-141776083D01*
X94655217Y-141776083D02*
X94579026Y-141737987D01*
X94579026Y-141737987D02*
X94426645Y-141699892D01*
X94426645Y-141699892D02*
X94350455Y-141661797D01*
X94350455Y-141661797D02*
X94312360Y-141623702D01*
X94312360Y-141623702D02*
X94274264Y-141547511D01*
X94274264Y-141547511D02*
X94274264Y-141471321D01*
X94274264Y-141471321D02*
X94312360Y-141395130D01*
X94312360Y-141395130D02*
X94350455Y-141357035D01*
X94350455Y-141357035D02*
X94426645Y-141318940D01*
X94426645Y-141318940D02*
X94617122Y-141318940D01*
X94617122Y-141318940D02*
X94731407Y-141357035D01*
X95074265Y-141699892D02*
X95340931Y-141699892D01*
X95455217Y-142118940D02*
X95074265Y-142118940D01*
X95074265Y-142118940D02*
X95074265Y-141318940D01*
X95074265Y-141318940D02*
X95455217Y-141318940D01*
X96559980Y-141318940D02*
X96712361Y-141318940D01*
X96712361Y-141318940D02*
X96788551Y-141357035D01*
X96788551Y-141357035D02*
X96864742Y-141433225D01*
X96864742Y-141433225D02*
X96902837Y-141585606D01*
X96902837Y-141585606D02*
X96902837Y-141852273D01*
X96902837Y-141852273D02*
X96864742Y-142004654D01*
X96864742Y-142004654D02*
X96788551Y-142080845D01*
X96788551Y-142080845D02*
X96712361Y-142118940D01*
X96712361Y-142118940D02*
X96559980Y-142118940D01*
X96559980Y-142118940D02*
X96483789Y-142080845D01*
X96483789Y-142080845D02*
X96407599Y-142004654D01*
X96407599Y-142004654D02*
X96369503Y-141852273D01*
X96369503Y-141852273D02*
X96369503Y-141585606D01*
X96369503Y-141585606D02*
X96407599Y-141433225D01*
X96407599Y-141433225D02*
X96483789Y-141357035D01*
X96483789Y-141357035D02*
X96559980Y-141318940D01*
X97245694Y-142118940D02*
X97245694Y-141318940D01*
X97245694Y-141318940D02*
X97702837Y-142118940D01*
X97702837Y-142118940D02*
X97702837Y-141318940D01*
X98464741Y-142118940D02*
X98083789Y-142118940D01*
X98083789Y-142118940D02*
X98083789Y-141318940D01*
X98883789Y-141737987D02*
X98883789Y-142118940D01*
X98617122Y-141318940D02*
X98883789Y-141737987D01*
X98883789Y-141737987D02*
X99150455Y-141318940D01*
X99950455Y-141318940D02*
X100140931Y-142118940D01*
X100140931Y-142118940D02*
X100293312Y-141547511D01*
X100293312Y-141547511D02*
X100445693Y-142118940D01*
X100445693Y-142118940D02*
X100636170Y-141318940D01*
X100940932Y-142118940D02*
X100940932Y-141318940D01*
X101207598Y-141318940D02*
X101664741Y-141318940D01*
X101436169Y-142118940D02*
X101436169Y-141318940D01*
X101931408Y-142118940D02*
X101931408Y-141318940D01*
X101931408Y-141699892D02*
X102388551Y-141699892D01*
X102388551Y-142118940D02*
X102388551Y-141318940D01*
X103340931Y-142080845D02*
X103455217Y-142118940D01*
X103455217Y-142118940D02*
X103645693Y-142118940D01*
X103645693Y-142118940D02*
X103721884Y-142080845D01*
X103721884Y-142080845D02*
X103759979Y-142042749D01*
X103759979Y-142042749D02*
X103798074Y-141966559D01*
X103798074Y-141966559D02*
X103798074Y-141890368D01*
X103798074Y-141890368D02*
X103759979Y-141814178D01*
X103759979Y-141814178D02*
X103721884Y-141776083D01*
X103721884Y-141776083D02*
X103645693Y-141737987D01*
X103645693Y-141737987D02*
X103493312Y-141699892D01*
X103493312Y-141699892D02*
X103417122Y-141661797D01*
X103417122Y-141661797D02*
X103379027Y-141623702D01*
X103379027Y-141623702D02*
X103340931Y-141547511D01*
X103340931Y-141547511D02*
X103340931Y-141471321D01*
X103340931Y-141471321D02*
X103379027Y-141395130D01*
X103379027Y-141395130D02*
X103417122Y-141357035D01*
X103417122Y-141357035D02*
X103493312Y-141318940D01*
X103493312Y-141318940D02*
X103683789Y-141318940D01*
X103683789Y-141318940D02*
X103798074Y-141357035D01*
X104140932Y-142118940D02*
X104140932Y-141318940D01*
X104140932Y-141318940D02*
X104331408Y-141318940D01*
X104331408Y-141318940D02*
X104445694Y-141357035D01*
X104445694Y-141357035D02*
X104521884Y-141433225D01*
X104521884Y-141433225D02*
X104559979Y-141509416D01*
X104559979Y-141509416D02*
X104598075Y-141661797D01*
X104598075Y-141661797D02*
X104598075Y-141776083D01*
X104598075Y-141776083D02*
X104559979Y-141928464D01*
X104559979Y-141928464D02*
X104521884Y-142004654D01*
X104521884Y-142004654D02*
X104445694Y-142080845D01*
X104445694Y-142080845D02*
X104331408Y-142118940D01*
X104331408Y-142118940D02*
X104140932Y-142118940D01*
X105398075Y-142118940D02*
X105131408Y-141737987D01*
X104940932Y-142118940D02*
X104940932Y-141318940D01*
X104940932Y-141318940D02*
X105245694Y-141318940D01*
X105245694Y-141318940D02*
X105321884Y-141357035D01*
X105321884Y-141357035D02*
X105359979Y-141395130D01*
X105359979Y-141395130D02*
X105398075Y-141471321D01*
X105398075Y-141471321D02*
X105398075Y-141585606D01*
X105398075Y-141585606D02*
X105359979Y-141661797D01*
X105359979Y-141661797D02*
X105321884Y-141699892D01*
X105321884Y-141699892D02*
X105245694Y-141737987D01*
X105245694Y-141737987D02*
X104940932Y-141737987D01*
X105702836Y-141890368D02*
X106083789Y-141890368D01*
X105626646Y-142118940D02*
X105893313Y-141318940D01*
X105893313Y-141318940D02*
X106159979Y-142118940D01*
X106426646Y-142118940D02*
X106426646Y-141318940D01*
X106426646Y-141318940D02*
X106693312Y-141890368D01*
X106693312Y-141890368D02*
X106959979Y-141318940D01*
X106959979Y-141318940D02*
X106959979Y-142118940D01*
X108217122Y-141699892D02*
X108331408Y-141737987D01*
X108331408Y-141737987D02*
X108369503Y-141776083D01*
X108369503Y-141776083D02*
X108407599Y-141852273D01*
X108407599Y-141852273D02*
X108407599Y-141966559D01*
X108407599Y-141966559D02*
X108369503Y-142042749D01*
X108369503Y-142042749D02*
X108331408Y-142080845D01*
X108331408Y-142080845D02*
X108255218Y-142118940D01*
X108255218Y-142118940D02*
X107950456Y-142118940D01*
X107950456Y-142118940D02*
X107950456Y-141318940D01*
X107950456Y-141318940D02*
X108217122Y-141318940D01*
X108217122Y-141318940D02*
X108293313Y-141357035D01*
X108293313Y-141357035D02*
X108331408Y-141395130D01*
X108331408Y-141395130D02*
X108369503Y-141471321D01*
X108369503Y-141471321D02*
X108369503Y-141547511D01*
X108369503Y-141547511D02*
X108331408Y-141623702D01*
X108331408Y-141623702D02*
X108293313Y-141661797D01*
X108293313Y-141661797D02*
X108217122Y-141699892D01*
X108217122Y-141699892D02*
X107950456Y-141699892D01*
X108902837Y-141318940D02*
X109055218Y-141318940D01*
X109055218Y-141318940D02*
X109131408Y-141357035D01*
X109131408Y-141357035D02*
X109207599Y-141433225D01*
X109207599Y-141433225D02*
X109245694Y-141585606D01*
X109245694Y-141585606D02*
X109245694Y-141852273D01*
X109245694Y-141852273D02*
X109207599Y-142004654D01*
X109207599Y-142004654D02*
X109131408Y-142080845D01*
X109131408Y-142080845D02*
X109055218Y-142118940D01*
X109055218Y-142118940D02*
X108902837Y-142118940D01*
X108902837Y-142118940D02*
X108826646Y-142080845D01*
X108826646Y-142080845D02*
X108750456Y-142004654D01*
X108750456Y-142004654D02*
X108712360Y-141852273D01*
X108712360Y-141852273D02*
X108712360Y-141585606D01*
X108712360Y-141585606D02*
X108750456Y-141433225D01*
X108750456Y-141433225D02*
X108826646Y-141357035D01*
X108826646Y-141357035D02*
X108902837Y-141318940D01*
X109550455Y-141890368D02*
X109931408Y-141890368D01*
X109474265Y-142118940D02*
X109740932Y-141318940D01*
X109740932Y-141318940D02*
X110007598Y-142118940D01*
X110731408Y-142118940D02*
X110464741Y-141737987D01*
X110274265Y-142118940D02*
X110274265Y-141318940D01*
X110274265Y-141318940D02*
X110579027Y-141318940D01*
X110579027Y-141318940D02*
X110655217Y-141357035D01*
X110655217Y-141357035D02*
X110693312Y-141395130D01*
X110693312Y-141395130D02*
X110731408Y-141471321D01*
X110731408Y-141471321D02*
X110731408Y-141585606D01*
X110731408Y-141585606D02*
X110693312Y-141661797D01*
X110693312Y-141661797D02*
X110655217Y-141699892D01*
X110655217Y-141699892D02*
X110579027Y-141737987D01*
X110579027Y-141737987D02*
X110274265Y-141737987D01*
X111074265Y-142118940D02*
X111074265Y-141318940D01*
X111074265Y-141318940D02*
X111264741Y-141318940D01*
X111264741Y-141318940D02*
X111379027Y-141357035D01*
X111379027Y-141357035D02*
X111455217Y-141433225D01*
X111455217Y-141433225D02*
X111493312Y-141509416D01*
X111493312Y-141509416D02*
X111531408Y-141661797D01*
X111531408Y-141661797D02*
X111531408Y-141776083D01*
X111531408Y-141776083D02*
X111493312Y-141928464D01*
X111493312Y-141928464D02*
X111455217Y-142004654D01*
X111455217Y-142004654D02*
X111379027Y-142080845D01*
X111379027Y-142080845D02*
X111264741Y-142118940D01*
X111264741Y-142118940D02*
X111074265Y-142118940D01*
X112369503Y-141318940D02*
X112636170Y-142118940D01*
X112636170Y-142118940D02*
X112902836Y-141318940D01*
X113169503Y-141699892D02*
X113436169Y-141699892D01*
X113550455Y-142118940D02*
X113169503Y-142118940D01*
X113169503Y-142118940D02*
X113169503Y-141318940D01*
X113169503Y-141318940D02*
X113550455Y-141318940D01*
X114350456Y-142118940D02*
X114083789Y-141737987D01*
X113893313Y-142118940D02*
X113893313Y-141318940D01*
X113893313Y-141318940D02*
X114198075Y-141318940D01*
X114198075Y-141318940D02*
X114274265Y-141357035D01*
X114274265Y-141357035D02*
X114312360Y-141395130D01*
X114312360Y-141395130D02*
X114350456Y-141471321D01*
X114350456Y-141471321D02*
X114350456Y-141585606D01*
X114350456Y-141585606D02*
X114312360Y-141661797D01*
X114312360Y-141661797D02*
X114274265Y-141699892D01*
X114274265Y-141699892D02*
X114198075Y-141737987D01*
X114198075Y-141737987D02*
X113893313Y-141737987D01*
X114655217Y-142080845D02*
X114769503Y-142118940D01*
X114769503Y-142118940D02*
X114959979Y-142118940D01*
X114959979Y-142118940D02*
X115036170Y-142080845D01*
X115036170Y-142080845D02*
X115074265Y-142042749D01*
X115074265Y-142042749D02*
X115112360Y-141966559D01*
X115112360Y-141966559D02*
X115112360Y-141890368D01*
X115112360Y-141890368D02*
X115074265Y-141814178D01*
X115074265Y-141814178D02*
X115036170Y-141776083D01*
X115036170Y-141776083D02*
X114959979Y-141737987D01*
X114959979Y-141737987D02*
X114807598Y-141699892D01*
X114807598Y-141699892D02*
X114731408Y-141661797D01*
X114731408Y-141661797D02*
X114693313Y-141623702D01*
X114693313Y-141623702D02*
X114655217Y-141547511D01*
X114655217Y-141547511D02*
X114655217Y-141471321D01*
X114655217Y-141471321D02*
X114693313Y-141395130D01*
X114693313Y-141395130D02*
X114731408Y-141357035D01*
X114731408Y-141357035D02*
X114807598Y-141318940D01*
X114807598Y-141318940D02*
X114998075Y-141318940D01*
X114998075Y-141318940D02*
X115112360Y-141357035D01*
X115455218Y-142118940D02*
X115455218Y-141318940D01*
X115988551Y-141318940D02*
X116140932Y-141318940D01*
X116140932Y-141318940D02*
X116217122Y-141357035D01*
X116217122Y-141357035D02*
X116293313Y-141433225D01*
X116293313Y-141433225D02*
X116331408Y-141585606D01*
X116331408Y-141585606D02*
X116331408Y-141852273D01*
X116331408Y-141852273D02*
X116293313Y-142004654D01*
X116293313Y-142004654D02*
X116217122Y-142080845D01*
X116217122Y-142080845D02*
X116140932Y-142118940D01*
X116140932Y-142118940D02*
X115988551Y-142118940D01*
X115988551Y-142118940D02*
X115912360Y-142080845D01*
X115912360Y-142080845D02*
X115836170Y-142004654D01*
X115836170Y-142004654D02*
X115798074Y-141852273D01*
X115798074Y-141852273D02*
X115798074Y-141585606D01*
X115798074Y-141585606D02*
X115836170Y-141433225D01*
X115836170Y-141433225D02*
X115912360Y-141357035D01*
X115912360Y-141357035D02*
X115988551Y-141318940D01*
X116674265Y-142118940D02*
X116674265Y-141318940D01*
X116674265Y-141318940D02*
X117131408Y-142118940D01*
X117131408Y-142118940D02*
X117131408Y-141318940D01*
X93702836Y-142606895D02*
X93702836Y-143178323D01*
X93702836Y-143178323D02*
X93664741Y-143292609D01*
X93664741Y-143292609D02*
X93588550Y-143368800D01*
X93588550Y-143368800D02*
X93474265Y-143406895D01*
X93474265Y-143406895D02*
X93398074Y-143406895D01*
X94045693Y-143178323D02*
X94426646Y-143178323D01*
X93969503Y-143406895D02*
X94236170Y-142606895D01*
X94236170Y-142606895D02*
X94502836Y-143406895D01*
X94655217Y-142606895D02*
X94921884Y-143406895D01*
X94921884Y-143406895D02*
X95188550Y-142606895D01*
X95455217Y-143406895D02*
X95455217Y-142606895D01*
X95836169Y-142987847D02*
X96102835Y-142987847D01*
X96217121Y-143406895D02*
X95836169Y-143406895D01*
X95836169Y-143406895D02*
X95836169Y-142606895D01*
X95836169Y-142606895D02*
X96217121Y-142606895D01*
X97017122Y-143406895D02*
X96750455Y-143025942D01*
X96559979Y-143406895D02*
X96559979Y-142606895D01*
X96559979Y-142606895D02*
X96864741Y-142606895D01*
X96864741Y-142606895D02*
X96940931Y-142644990D01*
X96940931Y-142644990D02*
X96979026Y-142683085D01*
X96979026Y-142683085D02*
X97017122Y-142759276D01*
X97017122Y-142759276D02*
X97017122Y-142873561D01*
X97017122Y-142873561D02*
X96979026Y-142949752D01*
X96979026Y-142949752D02*
X96940931Y-142987847D01*
X96940931Y-142987847D02*
X96864741Y-143025942D01*
X96864741Y-143025942D02*
X96559979Y-143025942D01*
X97931407Y-143178323D02*
X98312360Y-143178323D01*
X97855217Y-143406895D02*
X98121884Y-142606895D01*
X98121884Y-142606895D02*
X98388550Y-143406895D01*
X98921883Y-142987847D02*
X99036169Y-143025942D01*
X99036169Y-143025942D02*
X99074264Y-143064038D01*
X99074264Y-143064038D02*
X99112360Y-143140228D01*
X99112360Y-143140228D02*
X99112360Y-143254514D01*
X99112360Y-143254514D02*
X99074264Y-143330704D01*
X99074264Y-143330704D02*
X99036169Y-143368800D01*
X99036169Y-143368800D02*
X98959979Y-143406895D01*
X98959979Y-143406895D02*
X98655217Y-143406895D01*
X98655217Y-143406895D02*
X98655217Y-142606895D01*
X98655217Y-142606895D02*
X98921883Y-142606895D01*
X98921883Y-142606895D02*
X98998074Y-142644990D01*
X98998074Y-142644990D02*
X99036169Y-142683085D01*
X99036169Y-142683085D02*
X99074264Y-142759276D01*
X99074264Y-142759276D02*
X99074264Y-142835466D01*
X99074264Y-142835466D02*
X99036169Y-142911657D01*
X99036169Y-142911657D02*
X98998074Y-142949752D01*
X98998074Y-142949752D02*
X98921883Y-142987847D01*
X98921883Y-142987847D02*
X98655217Y-142987847D01*
X99417121Y-143178323D02*
X99798074Y-143178323D01*
X99340931Y-143406895D02*
X99607598Y-142606895D01*
X99607598Y-142606895D02*
X99874264Y-143406895D01*
X100140931Y-143406895D02*
X100140931Y-142606895D01*
X100140931Y-142606895D02*
X100331407Y-142606895D01*
X100331407Y-142606895D02*
X100445693Y-142644990D01*
X100445693Y-142644990D02*
X100521883Y-142721180D01*
X100521883Y-142721180D02*
X100559978Y-142797371D01*
X100559978Y-142797371D02*
X100598074Y-142949752D01*
X100598074Y-142949752D02*
X100598074Y-143064038D01*
X100598074Y-143064038D02*
X100559978Y-143216419D01*
X100559978Y-143216419D02*
X100521883Y-143292609D01*
X100521883Y-143292609D02*
X100445693Y-143368800D01*
X100445693Y-143368800D02*
X100331407Y-143406895D01*
X100331407Y-143406895D02*
X100140931Y-143406895D01*
X100940931Y-143406895D02*
X100940931Y-142606895D01*
X101017121Y-142302133D02*
X100902835Y-142416419D01*
X101283787Y-143178323D02*
X101664740Y-143178323D01*
X101207597Y-143406895D02*
X101474264Y-142606895D01*
X101474264Y-142606895D02*
X101740930Y-143406895D01*
X102045692Y-143368800D02*
X102045692Y-143406895D01*
X102045692Y-143406895D02*
X102007597Y-143483085D01*
X102007597Y-143483085D02*
X101969501Y-143521180D01*
X103455216Y-143330704D02*
X103417120Y-143368800D01*
X103417120Y-143368800D02*
X103302835Y-143406895D01*
X103302835Y-143406895D02*
X103226644Y-143406895D01*
X103226644Y-143406895D02*
X103112358Y-143368800D01*
X103112358Y-143368800D02*
X103036168Y-143292609D01*
X103036168Y-143292609D02*
X102998073Y-143216419D01*
X102998073Y-143216419D02*
X102959977Y-143064038D01*
X102959977Y-143064038D02*
X102959977Y-142949752D01*
X102959977Y-142949752D02*
X102998073Y-142797371D01*
X102998073Y-142797371D02*
X103036168Y-142721180D01*
X103036168Y-142721180D02*
X103112358Y-142644990D01*
X103112358Y-142644990D02*
X103226644Y-142606895D01*
X103226644Y-142606895D02*
X103302835Y-142606895D01*
X103302835Y-142606895D02*
X103417120Y-142644990D01*
X103417120Y-142644990D02*
X103455216Y-142683085D01*
X103798073Y-143406895D02*
X103798073Y-142606895D01*
X103798073Y-142987847D02*
X104255216Y-142987847D01*
X104255216Y-143406895D02*
X104255216Y-142606895D01*
X104598072Y-143178323D02*
X104979025Y-143178323D01*
X104521882Y-143406895D02*
X104788549Y-142606895D01*
X104788549Y-142606895D02*
X105055215Y-143406895D01*
X105321882Y-143406895D02*
X105321882Y-142606895D01*
X105321882Y-142606895D02*
X105779025Y-143406895D01*
X105779025Y-143406895D02*
X105779025Y-142606895D01*
X106159977Y-143406895D02*
X106159977Y-142606895D01*
X106159977Y-142606895D02*
X106350453Y-142606895D01*
X106350453Y-142606895D02*
X106464739Y-142644990D01*
X106464739Y-142644990D02*
X106540929Y-142721180D01*
X106540929Y-142721180D02*
X106579024Y-142797371D01*
X106579024Y-142797371D02*
X106617120Y-142949752D01*
X106617120Y-142949752D02*
X106617120Y-143064038D01*
X106617120Y-143064038D02*
X106579024Y-143216419D01*
X106579024Y-143216419D02*
X106540929Y-143292609D01*
X106540929Y-143292609D02*
X106464739Y-143368800D01*
X106464739Y-143368800D02*
X106350453Y-143406895D01*
X106350453Y-143406895D02*
X106159977Y-143406895D01*
X107340929Y-143406895D02*
X106959977Y-143406895D01*
X106959977Y-143406895D02*
X106959977Y-142606895D01*
X107607596Y-142987847D02*
X107874262Y-142987847D01*
X107988548Y-143406895D02*
X107607596Y-143406895D01*
X107607596Y-143406895D02*
X107607596Y-142606895D01*
X107607596Y-142606895D02*
X107988548Y-142606895D01*
X108788549Y-143406895D02*
X108521882Y-143025942D01*
X108331406Y-143406895D02*
X108331406Y-142606895D01*
X108331406Y-142606895D02*
X108636168Y-142606895D01*
X108636168Y-142606895D02*
X108712358Y-142644990D01*
X108712358Y-142644990D02*
X108750453Y-142683085D01*
X108750453Y-142683085D02*
X108788549Y-142759276D01*
X108788549Y-142759276D02*
X108788549Y-142873561D01*
X108788549Y-142873561D02*
X108750453Y-142949752D01*
X108750453Y-142949752D02*
X108712358Y-142987847D01*
X108712358Y-142987847D02*
X108636168Y-143025942D01*
X108636168Y-143025942D02*
X108331406Y-143025942D01*
X109740930Y-143406895D02*
X109740930Y-142606895D01*
X110198073Y-143406895D02*
X109855215Y-142949752D01*
X110198073Y-142606895D02*
X109740930Y-143064038D01*
X110921882Y-143406895D02*
X110540930Y-143406895D01*
X110540930Y-143406895D02*
X110540930Y-142606895D01*
X111188549Y-142606895D02*
X111188549Y-143254514D01*
X111188549Y-143254514D02*
X111226644Y-143330704D01*
X111226644Y-143330704D02*
X111264739Y-143368800D01*
X111264739Y-143368800D02*
X111340930Y-143406895D01*
X111340930Y-143406895D02*
X111493311Y-143406895D01*
X111493311Y-143406895D02*
X111569501Y-143368800D01*
X111569501Y-143368800D02*
X111607596Y-143330704D01*
X111607596Y-143330704D02*
X111645692Y-143254514D01*
X111645692Y-143254514D02*
X111645692Y-142606895D01*
X111264739Y-142340228D02*
X111302834Y-142378323D01*
X111302834Y-142378323D02*
X111264739Y-142416419D01*
X111264739Y-142416419D02*
X111226644Y-142378323D01*
X111226644Y-142378323D02*
X111264739Y-142340228D01*
X111264739Y-142340228D02*
X111264739Y-142416419D01*
X111569501Y-142340228D02*
X111607596Y-142378323D01*
X111607596Y-142378323D02*
X111569501Y-142416419D01*
X111569501Y-142416419D02*
X111531406Y-142378323D01*
X111531406Y-142378323D02*
X111569501Y-142340228D01*
X111569501Y-142340228D02*
X111569501Y-142416419D01*
X111988548Y-143368800D02*
X112102834Y-143406895D01*
X112102834Y-143406895D02*
X112293310Y-143406895D01*
X112293310Y-143406895D02*
X112369501Y-143368800D01*
X112369501Y-143368800D02*
X112407596Y-143330704D01*
X112407596Y-143330704D02*
X112445691Y-143254514D01*
X112445691Y-143254514D02*
X112445691Y-143178323D01*
X112445691Y-143178323D02*
X112407596Y-143102133D01*
X112407596Y-143102133D02*
X112369501Y-143064038D01*
X112369501Y-143064038D02*
X112293310Y-143025942D01*
X112293310Y-143025942D02*
X112140929Y-142987847D01*
X112140929Y-142987847D02*
X112064739Y-142949752D01*
X112064739Y-142949752D02*
X112026644Y-142911657D01*
X112026644Y-142911657D02*
X111988548Y-142835466D01*
X111988548Y-142835466D02*
X111988548Y-142759276D01*
X111988548Y-142759276D02*
X112026644Y-142683085D01*
X112026644Y-142683085D02*
X112064739Y-142644990D01*
X112064739Y-142644990D02*
X112140929Y-142606895D01*
X112140929Y-142606895D02*
X112331406Y-142606895D01*
X112331406Y-142606895D02*
X112445691Y-142644990D01*
X112788549Y-142987847D02*
X113055215Y-142987847D01*
X113169501Y-143406895D02*
X112788549Y-143406895D01*
X112788549Y-143406895D02*
X112788549Y-142606895D01*
X112788549Y-142606895D02*
X113169501Y-142606895D01*
X113969502Y-143406895D02*
X113702835Y-143025942D01*
X113512359Y-143406895D02*
X113512359Y-142606895D01*
X113512359Y-142606895D02*
X113817121Y-142606895D01*
X113817121Y-142606895D02*
X113893311Y-142644990D01*
X113893311Y-142644990D02*
X113931406Y-142683085D01*
X113931406Y-142683085D02*
X113969502Y-142759276D01*
X113969502Y-142759276D02*
X113969502Y-142873561D01*
X113969502Y-142873561D02*
X113931406Y-142949752D01*
X113931406Y-142949752D02*
X113893311Y-142987847D01*
X113893311Y-142987847D02*
X113817121Y-143025942D01*
X113817121Y-143025942D02*
X113512359Y-143025942D01*
X114921883Y-143102133D02*
X115531407Y-143102133D01*
X116483787Y-142683085D02*
X116521883Y-142644990D01*
X116521883Y-142644990D02*
X116598073Y-142606895D01*
X116598073Y-142606895D02*
X116788549Y-142606895D01*
X116788549Y-142606895D02*
X116864740Y-142644990D01*
X116864740Y-142644990D02*
X116902835Y-142683085D01*
X116902835Y-142683085D02*
X116940930Y-142759276D01*
X116940930Y-142759276D02*
X116940930Y-142835466D01*
X116940930Y-142835466D02*
X116902835Y-142949752D01*
X116902835Y-142949752D02*
X116445692Y-143406895D01*
X116445692Y-143406895D02*
X116940930Y-143406895D01*
X117436169Y-142606895D02*
X117512359Y-142606895D01*
X117512359Y-142606895D02*
X117588550Y-142644990D01*
X117588550Y-142644990D02*
X117626645Y-142683085D01*
X117626645Y-142683085D02*
X117664740Y-142759276D01*
X117664740Y-142759276D02*
X117702835Y-142911657D01*
X117702835Y-142911657D02*
X117702835Y-143102133D01*
X117702835Y-143102133D02*
X117664740Y-143254514D01*
X117664740Y-143254514D02*
X117626645Y-143330704D01*
X117626645Y-143330704D02*
X117588550Y-143368800D01*
X117588550Y-143368800D02*
X117512359Y-143406895D01*
X117512359Y-143406895D02*
X117436169Y-143406895D01*
X117436169Y-143406895D02*
X117359978Y-143368800D01*
X117359978Y-143368800D02*
X117321883Y-143330704D01*
X117321883Y-143330704D02*
X117283788Y-143254514D01*
X117283788Y-143254514D02*
X117245692Y-143102133D01*
X117245692Y-143102133D02*
X117245692Y-142911657D01*
X117245692Y-142911657D02*
X117283788Y-142759276D01*
X117283788Y-142759276D02*
X117321883Y-142683085D01*
X117321883Y-142683085D02*
X117359978Y-142644990D01*
X117359978Y-142644990D02*
X117436169Y-142606895D01*
X118007597Y-142683085D02*
X118045693Y-142644990D01*
X118045693Y-142644990D02*
X118121883Y-142606895D01*
X118121883Y-142606895D02*
X118312359Y-142606895D01*
X118312359Y-142606895D02*
X118388550Y-142644990D01*
X118388550Y-142644990D02*
X118426645Y-142683085D01*
X118426645Y-142683085D02*
X118464740Y-142759276D01*
X118464740Y-142759276D02*
X118464740Y-142835466D01*
X118464740Y-142835466D02*
X118426645Y-142949752D01*
X118426645Y-142949752D02*
X117969502Y-143406895D01*
X117969502Y-143406895D02*
X118464740Y-143406895D01*
X119150455Y-142873561D02*
X119150455Y-143406895D01*
X118959979Y-142568800D02*
X118769502Y-143140228D01*
X118769502Y-143140228D02*
X119264741Y-143140228D01*
D11*
X164384510Y-141556828D02*
X164384510Y-142771114D01*
X164384510Y-142771114D02*
X164455939Y-142913971D01*
X164455939Y-142913971D02*
X164527368Y-142985400D01*
X164527368Y-142985400D02*
X164670225Y-143056828D01*
X164670225Y-143056828D02*
X164955939Y-143056828D01*
X164955939Y-143056828D02*
X165098796Y-142985400D01*
X165098796Y-142985400D02*
X165170225Y-142913971D01*
X165170225Y-142913971D02*
X165241653Y-142771114D01*
X165241653Y-142771114D02*
X165241653Y-141556828D01*
X165884511Y-142985400D02*
X166098797Y-143056828D01*
X166098797Y-143056828D02*
X166455939Y-143056828D01*
X166455939Y-143056828D02*
X166598797Y-142985400D01*
X166598797Y-142985400D02*
X166670225Y-142913971D01*
X166670225Y-142913971D02*
X166741654Y-142771114D01*
X166741654Y-142771114D02*
X166741654Y-142628257D01*
X166741654Y-142628257D02*
X166670225Y-142485400D01*
X166670225Y-142485400D02*
X166598797Y-142413971D01*
X166598797Y-142413971D02*
X166455939Y-142342542D01*
X166455939Y-142342542D02*
X166170225Y-142271114D01*
X166170225Y-142271114D02*
X166027368Y-142199685D01*
X166027368Y-142199685D02*
X165955939Y-142128257D01*
X165955939Y-142128257D02*
X165884511Y-141985400D01*
X165884511Y-141985400D02*
X165884511Y-141842542D01*
X165884511Y-141842542D02*
X165955939Y-141699685D01*
X165955939Y-141699685D02*
X166027368Y-141628257D01*
X166027368Y-141628257D02*
X166170225Y-141556828D01*
X166170225Y-141556828D02*
X166527368Y-141556828D01*
X166527368Y-141556828D02*
X166741654Y-141628257D01*
X167884510Y-142271114D02*
X168098796Y-142342542D01*
X168098796Y-142342542D02*
X168170225Y-142413971D01*
X168170225Y-142413971D02*
X168241653Y-142556828D01*
X168241653Y-142556828D02*
X168241653Y-142771114D01*
X168241653Y-142771114D02*
X168170225Y-142913971D01*
X168170225Y-142913971D02*
X168098796Y-142985400D01*
X168098796Y-142985400D02*
X167955939Y-143056828D01*
X167955939Y-143056828D02*
X167384510Y-143056828D01*
X167384510Y-143056828D02*
X167384510Y-141556828D01*
X167384510Y-141556828D02*
X167884510Y-141556828D01*
X167884510Y-141556828D02*
X168027368Y-141628257D01*
X168027368Y-141628257D02*
X168098796Y-141699685D01*
X168098796Y-141699685D02*
X168170225Y-141842542D01*
X168170225Y-141842542D02*
X168170225Y-141985400D01*
X168170225Y-141985400D02*
X168098796Y-142128257D01*
X168098796Y-142128257D02*
X168027368Y-142199685D01*
X168027368Y-142199685D02*
X167884510Y-142271114D01*
X167884510Y-142271114D02*
X167384510Y-142271114D01*
D12*
X109561333Y-100213319D02*
X109228000Y-99737128D01*
X108989905Y-100213319D02*
X108989905Y-99213319D01*
X108989905Y-99213319D02*
X109370857Y-99213319D01*
X109370857Y-99213319D02*
X109466095Y-99260938D01*
X109466095Y-99260938D02*
X109513714Y-99308557D01*
X109513714Y-99308557D02*
X109561333Y-99403795D01*
X109561333Y-99403795D02*
X109561333Y-99546652D01*
X109561333Y-99546652D02*
X109513714Y-99641890D01*
X109513714Y-99641890D02*
X109466095Y-99689509D01*
X109466095Y-99689509D02*
X109370857Y-99737128D01*
X109370857Y-99737128D02*
X108989905Y-99737128D01*
X109894667Y-99213319D02*
X110513714Y-99213319D01*
X110513714Y-99213319D02*
X110180381Y-99594271D01*
X110180381Y-99594271D02*
X110323238Y-99594271D01*
X110323238Y-99594271D02*
X110418476Y-99641890D01*
X110418476Y-99641890D02*
X110466095Y-99689509D01*
X110466095Y-99689509D02*
X110513714Y-99784747D01*
X110513714Y-99784747D02*
X110513714Y-100022842D01*
X110513714Y-100022842D02*
X110466095Y-100118080D01*
X110466095Y-100118080D02*
X110418476Y-100165700D01*
X110418476Y-100165700D02*
X110323238Y-100213319D01*
X110323238Y-100213319D02*
X110037524Y-100213319D01*
X110037524Y-100213319D02*
X109942286Y-100165700D01*
X109942286Y-100165700D02*
X109894667Y-100118080D01*
X109561333Y-97038319D02*
X109228000Y-96562128D01*
X108989905Y-97038319D02*
X108989905Y-96038319D01*
X108989905Y-96038319D02*
X109370857Y-96038319D01*
X109370857Y-96038319D02*
X109466095Y-96085938D01*
X109466095Y-96085938D02*
X109513714Y-96133557D01*
X109513714Y-96133557D02*
X109561333Y-96228795D01*
X109561333Y-96228795D02*
X109561333Y-96371652D01*
X109561333Y-96371652D02*
X109513714Y-96466890D01*
X109513714Y-96466890D02*
X109466095Y-96514509D01*
X109466095Y-96514509D02*
X109370857Y-96562128D01*
X109370857Y-96562128D02*
X108989905Y-96562128D01*
X110466095Y-96038319D02*
X109989905Y-96038319D01*
X109989905Y-96038319D02*
X109942286Y-96514509D01*
X109942286Y-96514509D02*
X109989905Y-96466890D01*
X109989905Y-96466890D02*
X110085143Y-96419271D01*
X110085143Y-96419271D02*
X110323238Y-96419271D01*
X110323238Y-96419271D02*
X110418476Y-96466890D01*
X110418476Y-96466890D02*
X110466095Y-96514509D01*
X110466095Y-96514509D02*
X110513714Y-96609747D01*
X110513714Y-96609747D02*
X110513714Y-96847842D01*
X110513714Y-96847842D02*
X110466095Y-96943080D01*
X110466095Y-96943080D02*
X110418476Y-96990700D01*
X110418476Y-96990700D02*
X110323238Y-97038319D01*
X110323238Y-97038319D02*
X110085143Y-97038319D01*
X110085143Y-97038319D02*
X109989905Y-96990700D01*
X109989905Y-96990700D02*
X109942286Y-96943080D01*
X111281642Y-110267519D02*
X110948309Y-109791328D01*
X110710214Y-110267519D02*
X110710214Y-109267519D01*
X110710214Y-109267519D02*
X111091166Y-109267519D01*
X111091166Y-109267519D02*
X111186404Y-109315138D01*
X111186404Y-109315138D02*
X111234023Y-109362757D01*
X111234023Y-109362757D02*
X111281642Y-109457995D01*
X111281642Y-109457995D02*
X111281642Y-109600852D01*
X111281642Y-109600852D02*
X111234023Y-109696090D01*
X111234023Y-109696090D02*
X111186404Y-109743709D01*
X111186404Y-109743709D02*
X111091166Y-109791328D01*
X111091166Y-109791328D02*
X110710214Y-109791328D01*
X112234023Y-110267519D02*
X111662595Y-110267519D01*
X111948309Y-110267519D02*
X111948309Y-109267519D01*
X111948309Y-109267519D02*
X111853071Y-109410376D01*
X111853071Y-109410376D02*
X111757833Y-109505614D01*
X111757833Y-109505614D02*
X111662595Y-109553233D01*
X113091166Y-109600852D02*
X113091166Y-110267519D01*
X112853071Y-109219900D02*
X112614976Y-109934185D01*
X112614976Y-109934185D02*
X113234023Y-109934185D01*
X107504076Y-88577009D02*
X107170743Y-88577009D01*
X107170743Y-89100819D02*
X107170743Y-88100819D01*
X107170743Y-88100819D02*
X107646933Y-88100819D01*
X108027886Y-88100819D02*
X108027886Y-88910342D01*
X108027886Y-88910342D02*
X108075505Y-89005580D01*
X108075505Y-89005580D02*
X108123124Y-89053200D01*
X108123124Y-89053200D02*
X108218362Y-89100819D01*
X108218362Y-89100819D02*
X108408838Y-89100819D01*
X108408838Y-89100819D02*
X108504076Y-89053200D01*
X108504076Y-89053200D02*
X108551695Y-89005580D01*
X108551695Y-89005580D02*
X108599314Y-88910342D01*
X108599314Y-88910342D02*
X108599314Y-88100819D01*
X109027886Y-89053200D02*
X109170743Y-89100819D01*
X109170743Y-89100819D02*
X109408838Y-89100819D01*
X109408838Y-89100819D02*
X109504076Y-89053200D01*
X109504076Y-89053200D02*
X109551695Y-89005580D01*
X109551695Y-89005580D02*
X109599314Y-88910342D01*
X109599314Y-88910342D02*
X109599314Y-88815104D01*
X109599314Y-88815104D02*
X109551695Y-88719866D01*
X109551695Y-88719866D02*
X109504076Y-88672247D01*
X109504076Y-88672247D02*
X109408838Y-88624628D01*
X109408838Y-88624628D02*
X109218362Y-88577009D01*
X109218362Y-88577009D02*
X109123124Y-88529390D01*
X109123124Y-88529390D02*
X109075505Y-88481771D01*
X109075505Y-88481771D02*
X109027886Y-88386533D01*
X109027886Y-88386533D02*
X109027886Y-88291295D01*
X109027886Y-88291295D02*
X109075505Y-88196057D01*
X109075505Y-88196057D02*
X109123124Y-88148438D01*
X109123124Y-88148438D02*
X109218362Y-88100819D01*
X109218362Y-88100819D02*
X109456457Y-88100819D01*
X109456457Y-88100819D02*
X109599314Y-88148438D01*
X110027886Y-88577009D02*
X110361219Y-88577009D01*
X110504076Y-89100819D02*
X110027886Y-89100819D01*
X110027886Y-89100819D02*
X110027886Y-88100819D01*
X110027886Y-88100819D02*
X110504076Y-88100819D01*
X150201333Y-121771580D02*
X150153714Y-121819200D01*
X150153714Y-121819200D02*
X150010857Y-121866819D01*
X150010857Y-121866819D02*
X149915619Y-121866819D01*
X149915619Y-121866819D02*
X149772762Y-121819200D01*
X149772762Y-121819200D02*
X149677524Y-121723961D01*
X149677524Y-121723961D02*
X149629905Y-121628723D01*
X149629905Y-121628723D02*
X149582286Y-121438247D01*
X149582286Y-121438247D02*
X149582286Y-121295390D01*
X149582286Y-121295390D02*
X149629905Y-121104914D01*
X149629905Y-121104914D02*
X149677524Y-121009676D01*
X149677524Y-121009676D02*
X149772762Y-120914438D01*
X149772762Y-120914438D02*
X149915619Y-120866819D01*
X149915619Y-120866819D02*
X150010857Y-120866819D01*
X150010857Y-120866819D02*
X150153714Y-120914438D01*
X150153714Y-120914438D02*
X150201333Y-120962057D01*
X150772762Y-121295390D02*
X150677524Y-121247771D01*
X150677524Y-121247771D02*
X150629905Y-121200152D01*
X150629905Y-121200152D02*
X150582286Y-121104914D01*
X150582286Y-121104914D02*
X150582286Y-121057295D01*
X150582286Y-121057295D02*
X150629905Y-120962057D01*
X150629905Y-120962057D02*
X150677524Y-120914438D01*
X150677524Y-120914438D02*
X150772762Y-120866819D01*
X150772762Y-120866819D02*
X150963238Y-120866819D01*
X150963238Y-120866819D02*
X151058476Y-120914438D01*
X151058476Y-120914438D02*
X151106095Y-120962057D01*
X151106095Y-120962057D02*
X151153714Y-121057295D01*
X151153714Y-121057295D02*
X151153714Y-121104914D01*
X151153714Y-121104914D02*
X151106095Y-121200152D01*
X151106095Y-121200152D02*
X151058476Y-121247771D01*
X151058476Y-121247771D02*
X150963238Y-121295390D01*
X150963238Y-121295390D02*
X150772762Y-121295390D01*
X150772762Y-121295390D02*
X150677524Y-121343009D01*
X150677524Y-121343009D02*
X150629905Y-121390628D01*
X150629905Y-121390628D02*
X150582286Y-121485866D01*
X150582286Y-121485866D02*
X150582286Y-121676342D01*
X150582286Y-121676342D02*
X150629905Y-121771580D01*
X150629905Y-121771580D02*
X150677524Y-121819200D01*
X150677524Y-121819200D02*
X150772762Y-121866819D01*
X150772762Y-121866819D02*
X150963238Y-121866819D01*
X150963238Y-121866819D02*
X151058476Y-121819200D01*
X151058476Y-121819200D02*
X151106095Y-121771580D01*
X151106095Y-121771580D02*
X151153714Y-121676342D01*
X151153714Y-121676342D02*
X151153714Y-121485866D01*
X151153714Y-121485866D02*
X151106095Y-121390628D01*
X151106095Y-121390628D02*
X151058476Y-121343009D01*
X151058476Y-121343009D02*
X150963238Y-121295390D01*
X172502533Y-94490380D02*
X172454914Y-94538000D01*
X172454914Y-94538000D02*
X172312057Y-94585619D01*
X172312057Y-94585619D02*
X172216819Y-94585619D01*
X172216819Y-94585619D02*
X172073962Y-94538000D01*
X172073962Y-94538000D02*
X171978724Y-94442761D01*
X171978724Y-94442761D02*
X171931105Y-94347523D01*
X171931105Y-94347523D02*
X171883486Y-94157047D01*
X171883486Y-94157047D02*
X171883486Y-94014190D01*
X171883486Y-94014190D02*
X171931105Y-93823714D01*
X171931105Y-93823714D02*
X171978724Y-93728476D01*
X171978724Y-93728476D02*
X172073962Y-93633238D01*
X172073962Y-93633238D02*
X172216819Y-93585619D01*
X172216819Y-93585619D02*
X172312057Y-93585619D01*
X172312057Y-93585619D02*
X172454914Y-93633238D01*
X172454914Y-93633238D02*
X172502533Y-93680857D01*
X172835867Y-93585619D02*
X173454914Y-93585619D01*
X173454914Y-93585619D02*
X173121581Y-93966571D01*
X173121581Y-93966571D02*
X173264438Y-93966571D01*
X173264438Y-93966571D02*
X173359676Y-94014190D01*
X173359676Y-94014190D02*
X173407295Y-94061809D01*
X173407295Y-94061809D02*
X173454914Y-94157047D01*
X173454914Y-94157047D02*
X173454914Y-94395142D01*
X173454914Y-94395142D02*
X173407295Y-94490380D01*
X173407295Y-94490380D02*
X173359676Y-94538000D01*
X173359676Y-94538000D02*
X173264438Y-94585619D01*
X173264438Y-94585619D02*
X172978724Y-94585619D01*
X172978724Y-94585619D02*
X172883486Y-94538000D01*
X172883486Y-94538000D02*
X172835867Y-94490380D01*
X163416330Y-112774240D02*
X163416330Y-114104352D01*
X163416330Y-114104352D02*
X163494572Y-114260836D01*
X163494572Y-114260836D02*
X163572814Y-114339078D01*
X163572814Y-114339078D02*
X163729297Y-114417319D01*
X163729297Y-114417319D02*
X164042265Y-114417319D01*
X164042265Y-114417319D02*
X164198748Y-114339078D01*
X164198748Y-114339078D02*
X164276990Y-114260836D01*
X164276990Y-114260836D02*
X164355232Y-114104352D01*
X164355232Y-114104352D02*
X164355232Y-112774240D01*
X165920069Y-112774240D02*
X165137651Y-112774240D01*
X165137651Y-112774240D02*
X165059409Y-113556659D01*
X165059409Y-113556659D02*
X165137651Y-113478417D01*
X165137651Y-113478417D02*
X165294135Y-113400175D01*
X165294135Y-113400175D02*
X165685344Y-113400175D01*
X165685344Y-113400175D02*
X165841828Y-113478417D01*
X165841828Y-113478417D02*
X165920069Y-113556659D01*
X165920069Y-113556659D02*
X165998311Y-113713143D01*
X165998311Y-113713143D02*
X165998311Y-114104352D01*
X165998311Y-114104352D02*
X165920069Y-114260836D01*
X165920069Y-114260836D02*
X165841828Y-114339078D01*
X165841828Y-114339078D02*
X165685344Y-114417319D01*
X165685344Y-114417319D02*
X165294135Y-114417319D01*
X165294135Y-114417319D02*
X165137651Y-114339078D01*
X165137651Y-114339078D02*
X165059409Y-114260836D01*
X142795666Y-90640819D02*
X142795666Y-91355104D01*
X142795666Y-91355104D02*
X142748047Y-91497961D01*
X142748047Y-91497961D02*
X142652809Y-91593200D01*
X142652809Y-91593200D02*
X142509952Y-91640819D01*
X142509952Y-91640819D02*
X142414714Y-91640819D01*
X143795666Y-91640819D02*
X143224238Y-91640819D01*
X143509952Y-91640819D02*
X143509952Y-90640819D01*
X143509952Y-90640819D02*
X143414714Y-90783676D01*
X143414714Y-90783676D02*
X143319476Y-90878914D01*
X143319476Y-90878914D02*
X143224238Y-90926533D01*
X139221380Y-138596666D02*
X139269000Y-138644285D01*
X139269000Y-138644285D02*
X139316619Y-138787142D01*
X139316619Y-138787142D02*
X139316619Y-138882380D01*
X139316619Y-138882380D02*
X139269000Y-139025237D01*
X139269000Y-139025237D02*
X139173761Y-139120475D01*
X139173761Y-139120475D02*
X139078523Y-139168094D01*
X139078523Y-139168094D02*
X138888047Y-139215713D01*
X138888047Y-139215713D02*
X138745190Y-139215713D01*
X138745190Y-139215713D02*
X138554714Y-139168094D01*
X138554714Y-139168094D02*
X138459476Y-139120475D01*
X138459476Y-139120475D02*
X138364238Y-139025237D01*
X138364238Y-139025237D02*
X138316619Y-138882380D01*
X138316619Y-138882380D02*
X138316619Y-138787142D01*
X138316619Y-138787142D02*
X138364238Y-138644285D01*
X138364238Y-138644285D02*
X138411857Y-138596666D01*
X138316619Y-138263332D02*
X138316619Y-137596666D01*
X138316619Y-137596666D02*
X139316619Y-138025237D01*
X172985133Y-116437580D02*
X172937514Y-116485200D01*
X172937514Y-116485200D02*
X172794657Y-116532819D01*
X172794657Y-116532819D02*
X172699419Y-116532819D01*
X172699419Y-116532819D02*
X172556562Y-116485200D01*
X172556562Y-116485200D02*
X172461324Y-116389961D01*
X172461324Y-116389961D02*
X172413705Y-116294723D01*
X172413705Y-116294723D02*
X172366086Y-116104247D01*
X172366086Y-116104247D02*
X172366086Y-115961390D01*
X172366086Y-115961390D02*
X172413705Y-115770914D01*
X172413705Y-115770914D02*
X172461324Y-115675676D01*
X172461324Y-115675676D02*
X172556562Y-115580438D01*
X172556562Y-115580438D02*
X172699419Y-115532819D01*
X172699419Y-115532819D02*
X172794657Y-115532819D01*
X172794657Y-115532819D02*
X172937514Y-115580438D01*
X172937514Y-115580438D02*
X172985133Y-115628057D01*
X173937514Y-116532819D02*
X173366086Y-116532819D01*
X173651800Y-116532819D02*
X173651800Y-115532819D01*
X173651800Y-115532819D02*
X173556562Y-115675676D01*
X173556562Y-115675676D02*
X173461324Y-115770914D01*
X173461324Y-115770914D02*
X173366086Y-115818533D01*
X109561333Y-90688319D02*
X109228000Y-90212128D01*
X108989905Y-90688319D02*
X108989905Y-89688319D01*
X108989905Y-89688319D02*
X109370857Y-89688319D01*
X109370857Y-89688319D02*
X109466095Y-89735938D01*
X109466095Y-89735938D02*
X109513714Y-89783557D01*
X109513714Y-89783557D02*
X109561333Y-89878795D01*
X109561333Y-89878795D02*
X109561333Y-90021652D01*
X109561333Y-90021652D02*
X109513714Y-90116890D01*
X109513714Y-90116890D02*
X109466095Y-90164509D01*
X109466095Y-90164509D02*
X109370857Y-90212128D01*
X109370857Y-90212128D02*
X108989905Y-90212128D01*
X110037524Y-90688319D02*
X110228000Y-90688319D01*
X110228000Y-90688319D02*
X110323238Y-90640700D01*
X110323238Y-90640700D02*
X110370857Y-90593080D01*
X110370857Y-90593080D02*
X110466095Y-90450223D01*
X110466095Y-90450223D02*
X110513714Y-90259747D01*
X110513714Y-90259747D02*
X110513714Y-89878795D01*
X110513714Y-89878795D02*
X110466095Y-89783557D01*
X110466095Y-89783557D02*
X110418476Y-89735938D01*
X110418476Y-89735938D02*
X110323238Y-89688319D01*
X110323238Y-89688319D02*
X110132762Y-89688319D01*
X110132762Y-89688319D02*
X110037524Y-89735938D01*
X110037524Y-89735938D02*
X109989905Y-89783557D01*
X109989905Y-89783557D02*
X109942286Y-89878795D01*
X109942286Y-89878795D02*
X109942286Y-90116890D01*
X109942286Y-90116890D02*
X109989905Y-90212128D01*
X109989905Y-90212128D02*
X110037524Y-90259747D01*
X110037524Y-90259747D02*
X110132762Y-90307366D01*
X110132762Y-90307366D02*
X110323238Y-90307366D01*
X110323238Y-90307366D02*
X110418476Y-90259747D01*
X110418476Y-90259747D02*
X110466095Y-90212128D01*
X110466095Y-90212128D02*
X110513714Y-90116890D01*
X111281642Y-112595819D02*
X110948309Y-112119628D01*
X110710214Y-112595819D02*
X110710214Y-111595819D01*
X110710214Y-111595819D02*
X111091166Y-111595819D01*
X111091166Y-111595819D02*
X111186404Y-111643438D01*
X111186404Y-111643438D02*
X111234023Y-111691057D01*
X111234023Y-111691057D02*
X111281642Y-111786295D01*
X111281642Y-111786295D02*
X111281642Y-111929152D01*
X111281642Y-111929152D02*
X111234023Y-112024390D01*
X111234023Y-112024390D02*
X111186404Y-112072009D01*
X111186404Y-112072009D02*
X111091166Y-112119628D01*
X111091166Y-112119628D02*
X110710214Y-112119628D01*
X112234023Y-112595819D02*
X111662595Y-112595819D01*
X111948309Y-112595819D02*
X111948309Y-111595819D01*
X111948309Y-111595819D02*
X111853071Y-111738676D01*
X111853071Y-111738676D02*
X111757833Y-111833914D01*
X111757833Y-111833914D02*
X111662595Y-111881533D01*
X112567357Y-111595819D02*
X113186404Y-111595819D01*
X113186404Y-111595819D02*
X112853071Y-111976771D01*
X112853071Y-111976771D02*
X112995928Y-111976771D01*
X112995928Y-111976771D02*
X113091166Y-112024390D01*
X113091166Y-112024390D02*
X113138785Y-112072009D01*
X113138785Y-112072009D02*
X113186404Y-112167247D01*
X113186404Y-112167247D02*
X113186404Y-112405342D01*
X113186404Y-112405342D02*
X113138785Y-112500580D01*
X113138785Y-112500580D02*
X113091166Y-112548200D01*
X113091166Y-112548200D02*
X112995928Y-112595819D01*
X112995928Y-112595819D02*
X112710214Y-112595819D01*
X112710214Y-112595819D02*
X112614976Y-112548200D01*
X112614976Y-112548200D02*
X112567357Y-112500580D01*
X131264819Y-117133666D02*
X130788628Y-117466999D01*
X131264819Y-117705094D02*
X130264819Y-117705094D01*
X130264819Y-117705094D02*
X130264819Y-117324142D01*
X130264819Y-117324142D02*
X130312438Y-117228904D01*
X130312438Y-117228904D02*
X130360057Y-117181285D01*
X130360057Y-117181285D02*
X130455295Y-117133666D01*
X130455295Y-117133666D02*
X130598152Y-117133666D01*
X130598152Y-117133666D02*
X130693390Y-117181285D01*
X130693390Y-117181285D02*
X130741009Y-117228904D01*
X130741009Y-117228904D02*
X130788628Y-117324142D01*
X130788628Y-117324142D02*
X130788628Y-117705094D01*
X131264819Y-116181285D02*
X131264819Y-116752713D01*
X131264819Y-116466999D02*
X130264819Y-116466999D01*
X130264819Y-116466999D02*
X130407676Y-116562237D01*
X130407676Y-116562237D02*
X130502914Y-116657475D01*
X130502914Y-116657475D02*
X130550533Y-116752713D01*
X111281642Y-114924119D02*
X110948309Y-114447928D01*
X110710214Y-114924119D02*
X110710214Y-113924119D01*
X110710214Y-113924119D02*
X111091166Y-113924119D01*
X111091166Y-113924119D02*
X111186404Y-113971738D01*
X111186404Y-113971738D02*
X111234023Y-114019357D01*
X111234023Y-114019357D02*
X111281642Y-114114595D01*
X111281642Y-114114595D02*
X111281642Y-114257452D01*
X111281642Y-114257452D02*
X111234023Y-114352690D01*
X111234023Y-114352690D02*
X111186404Y-114400309D01*
X111186404Y-114400309D02*
X111091166Y-114447928D01*
X111091166Y-114447928D02*
X110710214Y-114447928D01*
X112234023Y-114924119D02*
X111662595Y-114924119D01*
X111948309Y-114924119D02*
X111948309Y-113924119D01*
X111948309Y-113924119D02*
X111853071Y-114066976D01*
X111853071Y-114066976D02*
X111757833Y-114162214D01*
X111757833Y-114162214D02*
X111662595Y-114209833D01*
X112614976Y-114019357D02*
X112662595Y-113971738D01*
X112662595Y-113971738D02*
X112757833Y-113924119D01*
X112757833Y-113924119D02*
X112995928Y-113924119D01*
X112995928Y-113924119D02*
X113091166Y-113971738D01*
X113091166Y-113971738D02*
X113138785Y-114019357D01*
X113138785Y-114019357D02*
X113186404Y-114114595D01*
X113186404Y-114114595D02*
X113186404Y-114209833D01*
X113186404Y-114209833D02*
X113138785Y-114352690D01*
X113138785Y-114352690D02*
X112567357Y-114924119D01*
X112567357Y-114924119D02*
X113186404Y-114924119D01*
X111244142Y-105610819D02*
X110910809Y-105134628D01*
X110672714Y-105610819D02*
X110672714Y-104610819D01*
X110672714Y-104610819D02*
X111053666Y-104610819D01*
X111053666Y-104610819D02*
X111148904Y-104658438D01*
X111148904Y-104658438D02*
X111196523Y-104706057D01*
X111196523Y-104706057D02*
X111244142Y-104801295D01*
X111244142Y-104801295D02*
X111244142Y-104944152D01*
X111244142Y-104944152D02*
X111196523Y-105039390D01*
X111196523Y-105039390D02*
X111148904Y-105087009D01*
X111148904Y-105087009D02*
X111053666Y-105134628D01*
X111053666Y-105134628D02*
X110672714Y-105134628D01*
X112196523Y-105610819D02*
X111625095Y-105610819D01*
X111910809Y-105610819D02*
X111910809Y-104610819D01*
X111910809Y-104610819D02*
X111815571Y-104753676D01*
X111815571Y-104753676D02*
X111720333Y-104848914D01*
X111720333Y-104848914D02*
X111625095Y-104896533D01*
X113053666Y-104610819D02*
X112863190Y-104610819D01*
X112863190Y-104610819D02*
X112767952Y-104658438D01*
X112767952Y-104658438D02*
X112720333Y-104706057D01*
X112720333Y-104706057D02*
X112625095Y-104848914D01*
X112625095Y-104848914D02*
X112577476Y-105039390D01*
X112577476Y-105039390D02*
X112577476Y-105420342D01*
X112577476Y-105420342D02*
X112625095Y-105515580D01*
X112625095Y-105515580D02*
X112672714Y-105563200D01*
X112672714Y-105563200D02*
X112767952Y-105610819D01*
X112767952Y-105610819D02*
X112958428Y-105610819D01*
X112958428Y-105610819D02*
X113053666Y-105563200D01*
X113053666Y-105563200D02*
X113101285Y-105515580D01*
X113101285Y-105515580D02*
X113148904Y-105420342D01*
X113148904Y-105420342D02*
X113148904Y-105182247D01*
X113148904Y-105182247D02*
X113101285Y-105087009D01*
X113101285Y-105087009D02*
X113053666Y-105039390D01*
X113053666Y-105039390D02*
X112958428Y-104991771D01*
X112958428Y-104991771D02*
X112767952Y-104991771D01*
X112767952Y-104991771D02*
X112672714Y-105039390D01*
X112672714Y-105039390D02*
X112625095Y-105087009D01*
X112625095Y-105087009D02*
X112577476Y-105182247D01*
X93248362Y-104798019D02*
X93248362Y-103798019D01*
X93248362Y-104274209D02*
X93819790Y-104274209D01*
X93819790Y-104798019D02*
X93819790Y-103798019D01*
X94295981Y-104798019D02*
X94295981Y-103798019D01*
X94295981Y-103798019D02*
X94534076Y-103798019D01*
X94534076Y-103798019D02*
X94676933Y-103845638D01*
X94676933Y-103845638D02*
X94772171Y-103940876D01*
X94772171Y-103940876D02*
X94819790Y-104036114D01*
X94819790Y-104036114D02*
X94867409Y-104226590D01*
X94867409Y-104226590D02*
X94867409Y-104369447D01*
X94867409Y-104369447D02*
X94819790Y-104559923D01*
X94819790Y-104559923D02*
X94772171Y-104655161D01*
X94772171Y-104655161D02*
X94676933Y-104750400D01*
X94676933Y-104750400D02*
X94534076Y-104798019D01*
X94534076Y-104798019D02*
X94295981Y-104798019D01*
X95295981Y-104798019D02*
X95295981Y-103798019D01*
X95295981Y-103798019D02*
X95629314Y-104512304D01*
X95629314Y-104512304D02*
X95962647Y-103798019D01*
X95962647Y-103798019D02*
X95962647Y-104798019D01*
X96438838Y-104798019D02*
X96438838Y-103798019D01*
X93265714Y-122644819D02*
X93837142Y-122644819D01*
X93551428Y-123644819D02*
X93551428Y-122644819D01*
X94503809Y-123121009D02*
X94170476Y-123121009D01*
X94170476Y-123644819D02*
X94170476Y-122644819D01*
X94170476Y-122644819D02*
X94646666Y-122644819D01*
X117308333Y-82216880D02*
X117260714Y-82264500D01*
X117260714Y-82264500D02*
X117117857Y-82312119D01*
X117117857Y-82312119D02*
X117022619Y-82312119D01*
X117022619Y-82312119D02*
X116879762Y-82264500D01*
X116879762Y-82264500D02*
X116784524Y-82169261D01*
X116784524Y-82169261D02*
X116736905Y-82074023D01*
X116736905Y-82074023D02*
X116689286Y-81883547D01*
X116689286Y-81883547D02*
X116689286Y-81740690D01*
X116689286Y-81740690D02*
X116736905Y-81550214D01*
X116736905Y-81550214D02*
X116784524Y-81454976D01*
X116784524Y-81454976D02*
X116879762Y-81359738D01*
X116879762Y-81359738D02*
X117022619Y-81312119D01*
X117022619Y-81312119D02*
X117117857Y-81312119D01*
X117117857Y-81312119D02*
X117260714Y-81359738D01*
X117260714Y-81359738D02*
X117308333Y-81407357D01*
X118165476Y-81312119D02*
X117975000Y-81312119D01*
X117975000Y-81312119D02*
X117879762Y-81359738D01*
X117879762Y-81359738D02*
X117832143Y-81407357D01*
X117832143Y-81407357D02*
X117736905Y-81550214D01*
X117736905Y-81550214D02*
X117689286Y-81740690D01*
X117689286Y-81740690D02*
X117689286Y-82121642D01*
X117689286Y-82121642D02*
X117736905Y-82216880D01*
X117736905Y-82216880D02*
X117784524Y-82264500D01*
X117784524Y-82264500D02*
X117879762Y-82312119D01*
X117879762Y-82312119D02*
X118070238Y-82312119D01*
X118070238Y-82312119D02*
X118165476Y-82264500D01*
X118165476Y-82264500D02*
X118213095Y-82216880D01*
X118213095Y-82216880D02*
X118260714Y-82121642D01*
X118260714Y-82121642D02*
X118260714Y-81883547D01*
X118260714Y-81883547D02*
X118213095Y-81788309D01*
X118213095Y-81788309D02*
X118165476Y-81740690D01*
X118165476Y-81740690D02*
X118070238Y-81693071D01*
X118070238Y-81693071D02*
X117879762Y-81693071D01*
X117879762Y-81693071D02*
X117784524Y-81740690D01*
X117784524Y-81740690D02*
X117736905Y-81788309D01*
X117736905Y-81788309D02*
X117689286Y-81883547D01*
X111281642Y-117252519D02*
X110948309Y-116776328D01*
X110710214Y-117252519D02*
X110710214Y-116252519D01*
X110710214Y-116252519D02*
X111091166Y-116252519D01*
X111091166Y-116252519D02*
X111186404Y-116300138D01*
X111186404Y-116300138D02*
X111234023Y-116347757D01*
X111234023Y-116347757D02*
X111281642Y-116442995D01*
X111281642Y-116442995D02*
X111281642Y-116585852D01*
X111281642Y-116585852D02*
X111234023Y-116681090D01*
X111234023Y-116681090D02*
X111186404Y-116728709D01*
X111186404Y-116728709D02*
X111091166Y-116776328D01*
X111091166Y-116776328D02*
X110710214Y-116776328D01*
X112234023Y-117252519D02*
X111662595Y-117252519D01*
X111948309Y-117252519D02*
X111948309Y-116252519D01*
X111948309Y-116252519D02*
X111853071Y-116395376D01*
X111853071Y-116395376D02*
X111757833Y-116490614D01*
X111757833Y-116490614D02*
X111662595Y-116538233D01*
X113186404Y-117252519D02*
X112614976Y-117252519D01*
X112900690Y-117252519D02*
X112900690Y-116252519D01*
X112900690Y-116252519D02*
X112805452Y-116395376D01*
X112805452Y-116395376D02*
X112710214Y-116490614D01*
X112710214Y-116490614D02*
X112614976Y-116538233D01*
X116437580Y-92749666D02*
X116485200Y-92797285D01*
X116485200Y-92797285D02*
X116532819Y-92940142D01*
X116532819Y-92940142D02*
X116532819Y-93035380D01*
X116532819Y-93035380D02*
X116485200Y-93178237D01*
X116485200Y-93178237D02*
X116389961Y-93273475D01*
X116389961Y-93273475D02*
X116294723Y-93321094D01*
X116294723Y-93321094D02*
X116104247Y-93368713D01*
X116104247Y-93368713D02*
X115961390Y-93368713D01*
X115961390Y-93368713D02*
X115770914Y-93321094D01*
X115770914Y-93321094D02*
X115675676Y-93273475D01*
X115675676Y-93273475D02*
X115580438Y-93178237D01*
X115580438Y-93178237D02*
X115532819Y-93035380D01*
X115532819Y-93035380D02*
X115532819Y-92940142D01*
X115532819Y-92940142D02*
X115580438Y-92797285D01*
X115580438Y-92797285D02*
X115628057Y-92749666D01*
X115866152Y-91892523D02*
X116532819Y-91892523D01*
X115485200Y-92130618D02*
X116199485Y-92368713D01*
X116199485Y-92368713D02*
X116199485Y-91749666D01*
X134074819Y-93725904D02*
X134884342Y-93725904D01*
X134884342Y-93725904D02*
X134979580Y-93678285D01*
X134979580Y-93678285D02*
X135027200Y-93630666D01*
X135027200Y-93630666D02*
X135074819Y-93535428D01*
X135074819Y-93535428D02*
X135074819Y-93344952D01*
X135074819Y-93344952D02*
X135027200Y-93249714D01*
X135027200Y-93249714D02*
X134979580Y-93202095D01*
X134979580Y-93202095D02*
X134884342Y-93154476D01*
X134884342Y-93154476D02*
X134074819Y-93154476D01*
X135074819Y-92154476D02*
X135074819Y-92725904D01*
X135074819Y-92440190D02*
X134074819Y-92440190D01*
X134074819Y-92440190D02*
X134217676Y-92535428D01*
X134217676Y-92535428D02*
X134312914Y-92630666D01*
X134312914Y-92630666D02*
X134360533Y-92725904D01*
X168082933Y-137519580D02*
X168035314Y-137567200D01*
X168035314Y-137567200D02*
X167892457Y-137614819D01*
X167892457Y-137614819D02*
X167797219Y-137614819D01*
X167797219Y-137614819D02*
X167654362Y-137567200D01*
X167654362Y-137567200D02*
X167559124Y-137471961D01*
X167559124Y-137471961D02*
X167511505Y-137376723D01*
X167511505Y-137376723D02*
X167463886Y-137186247D01*
X167463886Y-137186247D02*
X167463886Y-137043390D01*
X167463886Y-137043390D02*
X167511505Y-136852914D01*
X167511505Y-136852914D02*
X167559124Y-136757676D01*
X167559124Y-136757676D02*
X167654362Y-136662438D01*
X167654362Y-136662438D02*
X167797219Y-136614819D01*
X167797219Y-136614819D02*
X167892457Y-136614819D01*
X167892457Y-136614819D02*
X168035314Y-136662438D01*
X168035314Y-136662438D02*
X168082933Y-136710057D01*
X168987695Y-136614819D02*
X168511505Y-136614819D01*
X168511505Y-136614819D02*
X168463886Y-137091009D01*
X168463886Y-137091009D02*
X168511505Y-137043390D01*
X168511505Y-137043390D02*
X168606743Y-136995771D01*
X168606743Y-136995771D02*
X168844838Y-136995771D01*
X168844838Y-136995771D02*
X168940076Y-137043390D01*
X168940076Y-137043390D02*
X168987695Y-137091009D01*
X168987695Y-137091009D02*
X169035314Y-137186247D01*
X169035314Y-137186247D02*
X169035314Y-137424342D01*
X169035314Y-137424342D02*
X168987695Y-137519580D01*
X168987695Y-137519580D02*
X168940076Y-137567200D01*
X168940076Y-137567200D02*
X168844838Y-137614819D01*
X168844838Y-137614819D02*
X168606743Y-137614819D01*
X168606743Y-137614819D02*
X168511505Y-137567200D01*
X168511505Y-137567200D02*
X168463886Y-137519580D01*
X163655130Y-133915240D02*
X163655130Y-135245352D01*
X163655130Y-135245352D02*
X163733372Y-135401836D01*
X163733372Y-135401836D02*
X163811614Y-135480078D01*
X163811614Y-135480078D02*
X163968097Y-135558319D01*
X163968097Y-135558319D02*
X164281065Y-135558319D01*
X164281065Y-135558319D02*
X164437548Y-135480078D01*
X164437548Y-135480078D02*
X164515790Y-135401836D01*
X164515790Y-135401836D02*
X164594032Y-135245352D01*
X164594032Y-135245352D02*
X164594032Y-133915240D01*
X166080628Y-133915240D02*
X165767660Y-133915240D01*
X165767660Y-133915240D02*
X165611176Y-133993482D01*
X165611176Y-133993482D02*
X165532935Y-134071724D01*
X165532935Y-134071724D02*
X165376451Y-134306450D01*
X165376451Y-134306450D02*
X165298209Y-134619417D01*
X165298209Y-134619417D02*
X165298209Y-135245352D01*
X165298209Y-135245352D02*
X165376451Y-135401836D01*
X165376451Y-135401836D02*
X165454693Y-135480078D01*
X165454693Y-135480078D02*
X165611176Y-135558319D01*
X165611176Y-135558319D02*
X165924144Y-135558319D01*
X165924144Y-135558319D02*
X166080628Y-135480078D01*
X166080628Y-135480078D02*
X166158869Y-135401836D01*
X166158869Y-135401836D02*
X166237111Y-135245352D01*
X166237111Y-135245352D02*
X166237111Y-134854143D01*
X166237111Y-134854143D02*
X166158869Y-134697659D01*
X166158869Y-134697659D02*
X166080628Y-134619417D01*
X166080628Y-134619417D02*
X165924144Y-134541175D01*
X165924144Y-134541175D02*
X165611176Y-134541175D01*
X165611176Y-134541175D02*
X165454693Y-134619417D01*
X165454693Y-134619417D02*
X165376451Y-134697659D01*
X165376451Y-134697659D02*
X165298209Y-134854143D01*
X118800762Y-105102819D02*
X118800762Y-104102819D01*
X118800762Y-104579009D02*
X119372190Y-104579009D01*
X119372190Y-105102819D02*
X119372190Y-104102819D01*
X119848381Y-105102819D02*
X119848381Y-104102819D01*
X119848381Y-104102819D02*
X120086476Y-104102819D01*
X120086476Y-104102819D02*
X120229333Y-104150438D01*
X120229333Y-104150438D02*
X120324571Y-104245676D01*
X120324571Y-104245676D02*
X120372190Y-104340914D01*
X120372190Y-104340914D02*
X120419809Y-104531390D01*
X120419809Y-104531390D02*
X120419809Y-104674247D01*
X120419809Y-104674247D02*
X120372190Y-104864723D01*
X120372190Y-104864723D02*
X120324571Y-104959961D01*
X120324571Y-104959961D02*
X120229333Y-105055200D01*
X120229333Y-105055200D02*
X120086476Y-105102819D01*
X120086476Y-105102819D02*
X119848381Y-105102819D01*
X120848381Y-105102819D02*
X120848381Y-104102819D01*
X120848381Y-104102819D02*
X121181714Y-104817104D01*
X121181714Y-104817104D02*
X121515047Y-104102819D01*
X121515047Y-104102819D02*
X121515047Y-105102819D01*
X121991238Y-105102819D02*
X121991238Y-104102819D01*
X111281642Y-119580819D02*
X110948309Y-119104628D01*
X110710214Y-119580819D02*
X110710214Y-118580819D01*
X110710214Y-118580819D02*
X111091166Y-118580819D01*
X111091166Y-118580819D02*
X111186404Y-118628438D01*
X111186404Y-118628438D02*
X111234023Y-118676057D01*
X111234023Y-118676057D02*
X111281642Y-118771295D01*
X111281642Y-118771295D02*
X111281642Y-118914152D01*
X111281642Y-118914152D02*
X111234023Y-119009390D01*
X111234023Y-119009390D02*
X111186404Y-119057009D01*
X111186404Y-119057009D02*
X111091166Y-119104628D01*
X111091166Y-119104628D02*
X110710214Y-119104628D01*
X112234023Y-119580819D02*
X111662595Y-119580819D01*
X111948309Y-119580819D02*
X111948309Y-118580819D01*
X111948309Y-118580819D02*
X111853071Y-118723676D01*
X111853071Y-118723676D02*
X111757833Y-118818914D01*
X111757833Y-118818914D02*
X111662595Y-118866533D01*
X112853071Y-118580819D02*
X112948309Y-118580819D01*
X112948309Y-118580819D02*
X113043547Y-118628438D01*
X113043547Y-118628438D02*
X113091166Y-118676057D01*
X113091166Y-118676057D02*
X113138785Y-118771295D01*
X113138785Y-118771295D02*
X113186404Y-118961771D01*
X113186404Y-118961771D02*
X113186404Y-119199866D01*
X113186404Y-119199866D02*
X113138785Y-119390342D01*
X113138785Y-119390342D02*
X113091166Y-119485580D01*
X113091166Y-119485580D02*
X113043547Y-119533200D01*
X113043547Y-119533200D02*
X112948309Y-119580819D01*
X112948309Y-119580819D02*
X112853071Y-119580819D01*
X112853071Y-119580819D02*
X112757833Y-119533200D01*
X112757833Y-119533200D02*
X112710214Y-119485580D01*
X112710214Y-119485580D02*
X112662595Y-119390342D01*
X112662595Y-119390342D02*
X112614976Y-119199866D01*
X112614976Y-119199866D02*
X112614976Y-118961771D01*
X112614976Y-118961771D02*
X112662595Y-118771295D01*
X112662595Y-118771295D02*
X112710214Y-118676057D01*
X112710214Y-118676057D02*
X112757833Y-118628438D01*
X112757833Y-118628438D02*
X112853071Y-118580819D01*
X163162330Y-90930240D02*
X163162330Y-92260352D01*
X163162330Y-92260352D02*
X163240572Y-92416836D01*
X163240572Y-92416836D02*
X163318814Y-92495078D01*
X163318814Y-92495078D02*
X163475297Y-92573319D01*
X163475297Y-92573319D02*
X163788265Y-92573319D01*
X163788265Y-92573319D02*
X163944748Y-92495078D01*
X163944748Y-92495078D02*
X164022990Y-92416836D01*
X164022990Y-92416836D02*
X164101232Y-92260352D01*
X164101232Y-92260352D02*
X164101232Y-90930240D01*
X165587828Y-91477933D02*
X165587828Y-92573319D01*
X165196618Y-90851999D02*
X164805409Y-92025626D01*
X164805409Y-92025626D02*
X165822553Y-92025626D01*
X119681714Y-121374819D02*
X120253142Y-121374819D01*
X119967428Y-122374819D02*
X119967428Y-121374819D01*
X120919809Y-121851009D02*
X120586476Y-121851009D01*
X120586476Y-122374819D02*
X120586476Y-121374819D01*
X120586476Y-121374819D02*
X121062666Y-121374819D01*
X109561333Y-98625819D02*
X109228000Y-98149628D01*
X108989905Y-98625819D02*
X108989905Y-97625819D01*
X108989905Y-97625819D02*
X109370857Y-97625819D01*
X109370857Y-97625819D02*
X109466095Y-97673438D01*
X109466095Y-97673438D02*
X109513714Y-97721057D01*
X109513714Y-97721057D02*
X109561333Y-97816295D01*
X109561333Y-97816295D02*
X109561333Y-97959152D01*
X109561333Y-97959152D02*
X109513714Y-98054390D01*
X109513714Y-98054390D02*
X109466095Y-98102009D01*
X109466095Y-98102009D02*
X109370857Y-98149628D01*
X109370857Y-98149628D02*
X108989905Y-98149628D01*
X110418476Y-97959152D02*
X110418476Y-98625819D01*
X110180381Y-97578200D02*
X109942286Y-98292485D01*
X109942286Y-98292485D02*
X110561333Y-98292485D01*
X148552819Y-126491904D02*
X149362342Y-126491904D01*
X149362342Y-126491904D02*
X149457580Y-126444285D01*
X149457580Y-126444285D02*
X149505200Y-126396666D01*
X149505200Y-126396666D02*
X149552819Y-126301428D01*
X149552819Y-126301428D02*
X149552819Y-126110952D01*
X149552819Y-126110952D02*
X149505200Y-126015714D01*
X149505200Y-126015714D02*
X149457580Y-125968095D01*
X149457580Y-125968095D02*
X149362342Y-125920476D01*
X149362342Y-125920476D02*
X148552819Y-125920476D01*
X148648057Y-125491904D02*
X148600438Y-125444285D01*
X148600438Y-125444285D02*
X148552819Y-125349047D01*
X148552819Y-125349047D02*
X148552819Y-125110952D01*
X148552819Y-125110952D02*
X148600438Y-125015714D01*
X148600438Y-125015714D02*
X148648057Y-124968095D01*
X148648057Y-124968095D02*
X148743295Y-124920476D01*
X148743295Y-124920476D02*
X148838533Y-124920476D01*
X148838533Y-124920476D02*
X148981390Y-124968095D01*
X148981390Y-124968095D02*
X149552819Y-125539523D01*
X149552819Y-125539523D02*
X149552819Y-124920476D01*
X111281642Y-107939119D02*
X110948309Y-107462928D01*
X110710214Y-107939119D02*
X110710214Y-106939119D01*
X110710214Y-106939119D02*
X111091166Y-106939119D01*
X111091166Y-106939119D02*
X111186404Y-106986738D01*
X111186404Y-106986738D02*
X111234023Y-107034357D01*
X111234023Y-107034357D02*
X111281642Y-107129595D01*
X111281642Y-107129595D02*
X111281642Y-107272452D01*
X111281642Y-107272452D02*
X111234023Y-107367690D01*
X111234023Y-107367690D02*
X111186404Y-107415309D01*
X111186404Y-107415309D02*
X111091166Y-107462928D01*
X111091166Y-107462928D02*
X110710214Y-107462928D01*
X112234023Y-107939119D02*
X111662595Y-107939119D01*
X111948309Y-107939119D02*
X111948309Y-106939119D01*
X111948309Y-106939119D02*
X111853071Y-107081976D01*
X111853071Y-107081976D02*
X111757833Y-107177214D01*
X111757833Y-107177214D02*
X111662595Y-107224833D01*
X113138785Y-106939119D02*
X112662595Y-106939119D01*
X112662595Y-106939119D02*
X112614976Y-107415309D01*
X112614976Y-107415309D02*
X112662595Y-107367690D01*
X112662595Y-107367690D02*
X112757833Y-107320071D01*
X112757833Y-107320071D02*
X112995928Y-107320071D01*
X112995928Y-107320071D02*
X113091166Y-107367690D01*
X113091166Y-107367690D02*
X113138785Y-107415309D01*
X113138785Y-107415309D02*
X113186404Y-107510547D01*
X113186404Y-107510547D02*
X113186404Y-107748642D01*
X113186404Y-107748642D02*
X113138785Y-107843880D01*
X113138785Y-107843880D02*
X113091166Y-107891500D01*
X113091166Y-107891500D02*
X112995928Y-107939119D01*
X112995928Y-107939119D02*
X112757833Y-107939119D01*
X112757833Y-107939119D02*
X112662595Y-107891500D01*
X112662595Y-107891500D02*
X112614976Y-107843880D01*
X139004333Y-88962580D02*
X138956714Y-89010200D01*
X138956714Y-89010200D02*
X138813857Y-89057819D01*
X138813857Y-89057819D02*
X138718619Y-89057819D01*
X138718619Y-89057819D02*
X138575762Y-89010200D01*
X138575762Y-89010200D02*
X138480524Y-88914961D01*
X138480524Y-88914961D02*
X138432905Y-88819723D01*
X138432905Y-88819723D02*
X138385286Y-88629247D01*
X138385286Y-88629247D02*
X138385286Y-88486390D01*
X138385286Y-88486390D02*
X138432905Y-88295914D01*
X138432905Y-88295914D02*
X138480524Y-88200676D01*
X138480524Y-88200676D02*
X138575762Y-88105438D01*
X138575762Y-88105438D02*
X138718619Y-88057819D01*
X138718619Y-88057819D02*
X138813857Y-88057819D01*
X138813857Y-88057819D02*
X138956714Y-88105438D01*
X138956714Y-88105438D02*
X139004333Y-88153057D01*
X139385286Y-88153057D02*
X139432905Y-88105438D01*
X139432905Y-88105438D02*
X139528143Y-88057819D01*
X139528143Y-88057819D02*
X139766238Y-88057819D01*
X139766238Y-88057819D02*
X139861476Y-88105438D01*
X139861476Y-88105438D02*
X139909095Y-88153057D01*
X139909095Y-88153057D02*
X139956714Y-88248295D01*
X139956714Y-88248295D02*
X139956714Y-88343533D01*
X139956714Y-88343533D02*
X139909095Y-88486390D01*
X139909095Y-88486390D02*
X139337667Y-89057819D01*
X139337667Y-89057819D02*
X139956714Y-89057819D01*
X109561333Y-101800819D02*
X109228000Y-101324628D01*
X108989905Y-101800819D02*
X108989905Y-100800819D01*
X108989905Y-100800819D02*
X109370857Y-100800819D01*
X109370857Y-100800819D02*
X109466095Y-100848438D01*
X109466095Y-100848438D02*
X109513714Y-100896057D01*
X109513714Y-100896057D02*
X109561333Y-100991295D01*
X109561333Y-100991295D02*
X109561333Y-101134152D01*
X109561333Y-101134152D02*
X109513714Y-101229390D01*
X109513714Y-101229390D02*
X109466095Y-101277009D01*
X109466095Y-101277009D02*
X109370857Y-101324628D01*
X109370857Y-101324628D02*
X108989905Y-101324628D01*
X109942286Y-100896057D02*
X109989905Y-100848438D01*
X109989905Y-100848438D02*
X110085143Y-100800819D01*
X110085143Y-100800819D02*
X110323238Y-100800819D01*
X110323238Y-100800819D02*
X110418476Y-100848438D01*
X110418476Y-100848438D02*
X110466095Y-100896057D01*
X110466095Y-100896057D02*
X110513714Y-100991295D01*
X110513714Y-100991295D02*
X110513714Y-101086533D01*
X110513714Y-101086533D02*
X110466095Y-101229390D01*
X110466095Y-101229390D02*
X109894667Y-101800819D01*
X109894667Y-101800819D02*
X110513714Y-101800819D01*
X109561333Y-92275819D02*
X109228000Y-91799628D01*
X108989905Y-92275819D02*
X108989905Y-91275819D01*
X108989905Y-91275819D02*
X109370857Y-91275819D01*
X109370857Y-91275819D02*
X109466095Y-91323438D01*
X109466095Y-91323438D02*
X109513714Y-91371057D01*
X109513714Y-91371057D02*
X109561333Y-91466295D01*
X109561333Y-91466295D02*
X109561333Y-91609152D01*
X109561333Y-91609152D02*
X109513714Y-91704390D01*
X109513714Y-91704390D02*
X109466095Y-91752009D01*
X109466095Y-91752009D02*
X109370857Y-91799628D01*
X109370857Y-91799628D02*
X108989905Y-91799628D01*
X110132762Y-91704390D02*
X110037524Y-91656771D01*
X110037524Y-91656771D02*
X109989905Y-91609152D01*
X109989905Y-91609152D02*
X109942286Y-91513914D01*
X109942286Y-91513914D02*
X109942286Y-91466295D01*
X109942286Y-91466295D02*
X109989905Y-91371057D01*
X109989905Y-91371057D02*
X110037524Y-91323438D01*
X110037524Y-91323438D02*
X110132762Y-91275819D01*
X110132762Y-91275819D02*
X110323238Y-91275819D01*
X110323238Y-91275819D02*
X110418476Y-91323438D01*
X110418476Y-91323438D02*
X110466095Y-91371057D01*
X110466095Y-91371057D02*
X110513714Y-91466295D01*
X110513714Y-91466295D02*
X110513714Y-91513914D01*
X110513714Y-91513914D02*
X110466095Y-91609152D01*
X110466095Y-91609152D02*
X110418476Y-91656771D01*
X110418476Y-91656771D02*
X110323238Y-91704390D01*
X110323238Y-91704390D02*
X110132762Y-91704390D01*
X110132762Y-91704390D02*
X110037524Y-91752009D01*
X110037524Y-91752009D02*
X109989905Y-91799628D01*
X109989905Y-91799628D02*
X109942286Y-91894866D01*
X109942286Y-91894866D02*
X109942286Y-92085342D01*
X109942286Y-92085342D02*
X109989905Y-92180580D01*
X109989905Y-92180580D02*
X110037524Y-92228200D01*
X110037524Y-92228200D02*
X110132762Y-92275819D01*
X110132762Y-92275819D02*
X110323238Y-92275819D01*
X110323238Y-92275819D02*
X110418476Y-92228200D01*
X110418476Y-92228200D02*
X110466095Y-92180580D01*
X110466095Y-92180580D02*
X110513714Y-92085342D01*
X110513714Y-92085342D02*
X110513714Y-91894866D01*
X110513714Y-91894866D02*
X110466095Y-91799628D01*
X110466095Y-91799628D02*
X110418476Y-91752009D01*
X110418476Y-91752009D02*
X110323238Y-91704390D01*
X109561333Y-95450819D02*
X109228000Y-94974628D01*
X108989905Y-95450819D02*
X108989905Y-94450819D01*
X108989905Y-94450819D02*
X109370857Y-94450819D01*
X109370857Y-94450819D02*
X109466095Y-94498438D01*
X109466095Y-94498438D02*
X109513714Y-94546057D01*
X109513714Y-94546057D02*
X109561333Y-94641295D01*
X109561333Y-94641295D02*
X109561333Y-94784152D01*
X109561333Y-94784152D02*
X109513714Y-94879390D01*
X109513714Y-94879390D02*
X109466095Y-94927009D01*
X109466095Y-94927009D02*
X109370857Y-94974628D01*
X109370857Y-94974628D02*
X108989905Y-94974628D01*
X110418476Y-94450819D02*
X110228000Y-94450819D01*
X110228000Y-94450819D02*
X110132762Y-94498438D01*
X110132762Y-94498438D02*
X110085143Y-94546057D01*
X110085143Y-94546057D02*
X109989905Y-94688914D01*
X109989905Y-94688914D02*
X109942286Y-94879390D01*
X109942286Y-94879390D02*
X109942286Y-95260342D01*
X109942286Y-95260342D02*
X109989905Y-95355580D01*
X109989905Y-95355580D02*
X110037524Y-95403200D01*
X110037524Y-95403200D02*
X110132762Y-95450819D01*
X110132762Y-95450819D02*
X110323238Y-95450819D01*
X110323238Y-95450819D02*
X110418476Y-95403200D01*
X110418476Y-95403200D02*
X110466095Y-95355580D01*
X110466095Y-95355580D02*
X110513714Y-95260342D01*
X110513714Y-95260342D02*
X110513714Y-95022247D01*
X110513714Y-95022247D02*
X110466095Y-94927009D01*
X110466095Y-94927009D02*
X110418476Y-94879390D01*
X110418476Y-94879390D02*
X110323238Y-94831771D01*
X110323238Y-94831771D02*
X110132762Y-94831771D01*
X110132762Y-94831771D02*
X110037524Y-94879390D01*
X110037524Y-94879390D02*
X109989905Y-94927009D01*
X109989905Y-94927009D02*
X109942286Y-95022247D01*
X118538857Y-124914819D02*
X118538857Y-123914819D01*
X118538857Y-123914819D02*
X118919809Y-123914819D01*
X118919809Y-123914819D02*
X119015047Y-123962438D01*
X119015047Y-123962438D02*
X119062666Y-124010057D01*
X119062666Y-124010057D02*
X119110285Y-124105295D01*
X119110285Y-124105295D02*
X119110285Y-124248152D01*
X119110285Y-124248152D02*
X119062666Y-124343390D01*
X119062666Y-124343390D02*
X119015047Y-124391009D01*
X119015047Y-124391009D02*
X118919809Y-124438628D01*
X118919809Y-124438628D02*
X118538857Y-124438628D01*
X119538857Y-124914819D02*
X119538857Y-123914819D01*
X119538857Y-123914819D02*
X119872190Y-124629104D01*
X119872190Y-124629104D02*
X120205523Y-123914819D01*
X120205523Y-123914819D02*
X120205523Y-124914819D01*
X120872190Y-123914819D02*
X121062666Y-123914819D01*
X121062666Y-123914819D02*
X121157904Y-123962438D01*
X121157904Y-123962438D02*
X121253142Y-124057676D01*
X121253142Y-124057676D02*
X121300761Y-124248152D01*
X121300761Y-124248152D02*
X121300761Y-124581485D01*
X121300761Y-124581485D02*
X121253142Y-124771961D01*
X121253142Y-124771961D02*
X121157904Y-124867200D01*
X121157904Y-124867200D02*
X121062666Y-124914819D01*
X121062666Y-124914819D02*
X120872190Y-124914819D01*
X120872190Y-124914819D02*
X120776952Y-124867200D01*
X120776952Y-124867200D02*
X120681714Y-124771961D01*
X120681714Y-124771961D02*
X120634095Y-124581485D01*
X120634095Y-124581485D02*
X120634095Y-124248152D01*
X120634095Y-124248152D02*
X120681714Y-124057676D01*
X120681714Y-124057676D02*
X120776952Y-123962438D01*
X120776952Y-123962438D02*
X120872190Y-123914819D01*
X121729333Y-124914819D02*
X121729333Y-123914819D01*
X121729333Y-123914819D02*
X121967428Y-123914819D01*
X121967428Y-123914819D02*
X122110285Y-123962438D01*
X122110285Y-123962438D02*
X122205523Y-124057676D01*
X122205523Y-124057676D02*
X122253142Y-124152914D01*
X122253142Y-124152914D02*
X122300761Y-124343390D01*
X122300761Y-124343390D02*
X122300761Y-124486247D01*
X122300761Y-124486247D02*
X122253142Y-124676723D01*
X122253142Y-124676723D02*
X122205523Y-124771961D01*
X122205523Y-124771961D02*
X122110285Y-124867200D01*
X122110285Y-124867200D02*
X121967428Y-124914819D01*
X121967428Y-124914819D02*
X121729333Y-124914819D01*
X109561333Y-93863319D02*
X109228000Y-93387128D01*
X108989905Y-93863319D02*
X108989905Y-92863319D01*
X108989905Y-92863319D02*
X109370857Y-92863319D01*
X109370857Y-92863319D02*
X109466095Y-92910938D01*
X109466095Y-92910938D02*
X109513714Y-92958557D01*
X109513714Y-92958557D02*
X109561333Y-93053795D01*
X109561333Y-93053795D02*
X109561333Y-93196652D01*
X109561333Y-93196652D02*
X109513714Y-93291890D01*
X109513714Y-93291890D02*
X109466095Y-93339509D01*
X109466095Y-93339509D02*
X109370857Y-93387128D01*
X109370857Y-93387128D02*
X108989905Y-93387128D01*
X109894667Y-92863319D02*
X110561333Y-92863319D01*
X110561333Y-92863319D02*
X110132762Y-93863319D01*
D13*
X163017200Y-102082600D02*
X163017200Y-102285800D01*
X163017200Y-114884200D02*
X163017200Y-115087400D01*
X163017200Y-115087400D02*
X166522400Y-115087400D01*
X166522400Y-115087400D02*
X167132000Y-115087400D01*
X167132000Y-115087400D02*
X170637200Y-115087400D01*
X170637200Y-102082600D02*
X163017200Y-102082600D01*
X170637200Y-102285800D02*
X170637200Y-102082600D01*
X170637200Y-115087400D02*
X170637200Y-114884200D01*
X166522400Y-115087400D02*
G75*
G02*
X167132000Y-115087400I304800J0D01*
G01*
D14*
X140021000Y-92082000D02*
X140021000Y-143122000D01*
X140021000Y-143122000D02*
X157921000Y-143122000D01*
X142511000Y-92142000D02*
X142511000Y-143062000D01*
X142511000Y-143062000D02*
X155431000Y-143062000D01*
X147971000Y-92142000D02*
X142511000Y-92142000D01*
X155431000Y-92142000D02*
X149971000Y-92142000D01*
X155431000Y-143062000D02*
X155431000Y-92142000D01*
X157921000Y-92082000D02*
X140021000Y-92082000D01*
X157921000Y-143122000D02*
X157921000Y-92082000D01*
X149971000Y-92142000D02*
G75*
G02*
X147971000Y-92142000I-1000000J0D01*
G01*
D12*
X94200000Y-102784000D02*
X96275000Y-102784000D01*
X96275000Y-87484000D02*
X94200000Y-87484000D01*
X99290000Y-87484000D02*
X101750000Y-87484000D01*
X101750000Y-102784000D02*
X99290000Y-102784000D01*
X105500000Y-88934000D02*
X105500000Y-90034000D01*
X105500000Y-100234000D02*
X105500000Y-101334000D01*
X106575000Y-99234000D02*
X106575000Y-100034000D01*
X106575000Y-100034000D02*
X107275000Y-99634000D01*
X107275000Y-99634000D02*
X106575000Y-99234000D01*
D15*
X93152000Y-106844000D02*
X96352000Y-106844000D01*
X93152000Y-106974000D02*
X93152000Y-106844000D01*
X93152000Y-121994000D02*
X93152000Y-106974000D01*
X93282000Y-121994000D02*
X93152000Y-121994000D01*
X96352000Y-121994000D02*
X93282000Y-121994000D01*
X99012000Y-106844000D02*
X106302000Y-106844000D01*
X106302000Y-121994000D02*
X99012000Y-121994000D01*
X108262000Y-106844000D02*
X108292000Y-106844000D01*
X108282000Y-119124000D02*
X108282000Y-117274000D01*
X108282000Y-119124000D02*
X108282000Y-121994000D01*
X108282000Y-121994000D02*
X108262000Y-121994000D01*
X108292000Y-106844000D02*
X108292000Y-107294000D01*
D14*
X118340000Y-83622300D02*
X115363000Y-83622300D01*
X118340000Y-83662300D02*
X115370000Y-83662300D01*
X118340000Y-83702300D02*
X115378000Y-83702300D01*
X118340000Y-83742300D02*
X115386000Y-83742300D01*
X118340000Y-83782300D02*
X115395000Y-83782300D01*
X118340000Y-83822300D02*
X115404000Y-83822300D01*
X118340000Y-83862300D02*
X115413000Y-83862300D01*
X118340000Y-83902300D02*
X115423000Y-83902300D01*
X118340000Y-83942300D02*
X115433000Y-83942300D01*
X118340000Y-83982300D02*
X115444000Y-83982300D01*
X118340000Y-84022300D02*
X115455000Y-84022300D01*
X118340000Y-84062300D02*
X115466000Y-84062300D01*
X118340000Y-84102300D02*
X115478000Y-84102300D01*
X118340000Y-84142300D02*
X115491000Y-84142300D01*
X118340000Y-84182300D02*
X115503000Y-84182300D01*
X118340000Y-84222300D02*
X115517000Y-84222300D01*
X118340000Y-84262300D02*
X115530000Y-84262300D01*
X118340000Y-84302300D02*
X115545000Y-84302300D01*
X118340000Y-84342300D02*
X115559000Y-84342300D01*
X118340000Y-84382300D02*
X115575000Y-84382300D01*
X118340000Y-84422300D02*
X115590000Y-84422300D01*
X118340000Y-84462300D02*
X115606000Y-84462300D01*
X118340000Y-84502300D02*
X115623000Y-84502300D01*
X118340000Y-84542300D02*
X115640000Y-84542300D01*
X118340000Y-84582300D02*
X115658000Y-84582300D01*
X118340000Y-84622300D02*
X115676000Y-84622300D01*
X118340000Y-84662300D02*
X115694000Y-84662300D01*
X118340000Y-84702300D02*
X115714000Y-84702300D01*
X118340000Y-84742300D02*
X115733000Y-84742300D01*
X118340000Y-84782300D02*
X115753000Y-84782300D01*
X118340000Y-84822300D02*
X115774000Y-84822300D01*
X118340000Y-84862300D02*
X115796000Y-84862300D01*
X118340000Y-84902300D02*
X115818000Y-84902300D01*
X118340000Y-84942300D02*
X115840000Y-84942300D01*
X118340000Y-84982300D02*
X115863000Y-84982300D01*
X118340000Y-85022300D02*
X115887000Y-85022300D01*
X118340000Y-85062300D02*
X115911000Y-85062300D01*
X118340000Y-85102300D02*
X115936000Y-85102300D01*
X118340000Y-85142300D02*
X115962000Y-85142300D01*
X118340000Y-85182300D02*
X115988000Y-85182300D01*
X118340000Y-85222300D02*
X116015000Y-85222300D01*
X118340000Y-85262300D02*
X116042000Y-85262300D01*
X118340000Y-85302300D02*
X116071000Y-85302300D01*
X118340000Y-85342300D02*
X116100000Y-85342300D01*
X118340000Y-85382300D02*
X116130000Y-85382300D01*
X118340000Y-85422300D02*
X116160000Y-85422300D01*
X118340000Y-85462300D02*
X116191000Y-85462300D01*
X118340000Y-85502300D02*
X116224000Y-85502300D01*
X118340000Y-85542300D02*
X116256000Y-85542300D01*
X118340000Y-85582300D02*
X116290000Y-85582300D01*
X118340000Y-85622300D02*
X116325000Y-85622300D01*
X118340000Y-85662300D02*
X116361000Y-85662300D01*
X119913000Y-86982300D02*
X118847000Y-86982300D01*
X120148000Y-86942300D02*
X118612000Y-86942300D01*
X120328000Y-86902300D02*
X118432000Y-86902300D01*
X120478000Y-86862300D02*
X118282000Y-86862300D01*
X120609000Y-86822300D02*
X118151000Y-86822300D01*
X120726000Y-86782300D02*
X118034000Y-86782300D01*
X120833000Y-86742300D02*
X117927000Y-86742300D01*
X120932000Y-86702300D02*
X117828000Y-86702300D01*
X121025000Y-86662300D02*
X117735000Y-86662300D01*
X121111000Y-86622300D02*
X117649000Y-86622300D01*
X121193000Y-86582300D02*
X117567000Y-86582300D01*
X121270000Y-86542300D02*
X117490000Y-86542300D01*
X121344000Y-86502300D02*
X117416000Y-86502300D01*
X121414000Y-86462300D02*
X117346000Y-86462300D01*
X121482000Y-86422300D02*
X117278000Y-86422300D01*
X121546000Y-86382300D02*
X117214000Y-86382300D01*
X121608000Y-86342300D02*
X117152000Y-86342300D01*
X121667000Y-86302300D02*
X117093000Y-86302300D01*
X121695000Y-78491602D02*
X121695000Y-79291602D01*
X121725000Y-86262300D02*
X117035000Y-86262300D01*
X121780000Y-86222300D02*
X116980000Y-86222300D01*
X121834000Y-86182300D02*
X116926000Y-86182300D01*
X121885000Y-86142300D02*
X116875000Y-86142300D01*
X121936000Y-86102300D02*
X116824000Y-86102300D01*
X121984000Y-86062300D02*
X116776000Y-86062300D01*
X122031000Y-86022300D02*
X116729000Y-86022300D01*
X122077000Y-85982300D02*
X116683000Y-85982300D01*
X122095000Y-78891602D02*
X121295000Y-78891602D01*
X122121000Y-85942300D02*
X116639000Y-85942300D01*
X122164000Y-85902300D02*
X116596000Y-85902300D01*
X122206000Y-85862300D02*
X116554000Y-85862300D01*
X122247000Y-85822300D02*
X116513000Y-85822300D01*
X122287000Y-85782300D02*
X116473000Y-85782300D01*
X122325000Y-85742300D02*
X116435000Y-85742300D01*
X122363000Y-85702300D02*
X116397000Y-85702300D01*
X122399000Y-85662300D02*
X120420000Y-85662300D01*
X122435000Y-85622300D02*
X120420000Y-85622300D01*
X122470000Y-85582300D02*
X120420000Y-85582300D01*
X122504000Y-85542300D02*
X120420000Y-85542300D01*
X122536000Y-85502300D02*
X120420000Y-85502300D01*
X122569000Y-85462300D02*
X120420000Y-85462300D01*
X122600000Y-85422300D02*
X120420000Y-85422300D01*
X122630000Y-85382300D02*
X120420000Y-85382300D01*
X122660000Y-85342300D02*
X120420000Y-85342300D01*
X122689000Y-85302300D02*
X120420000Y-85302300D01*
X122718000Y-85262300D02*
X120420000Y-85262300D01*
X122745000Y-85222300D02*
X120420000Y-85222300D01*
X122772000Y-85182300D02*
X120420000Y-85182300D01*
X122798000Y-85142300D02*
X120420000Y-85142300D01*
X122824000Y-85102300D02*
X120420000Y-85102300D01*
X122849000Y-85062300D02*
X120420000Y-85062300D01*
X122873000Y-85022300D02*
X120420000Y-85022300D01*
X122897000Y-84982300D02*
X120420000Y-84982300D01*
X122920000Y-84942300D02*
X120420000Y-84942300D01*
X122942000Y-84902300D02*
X120420000Y-84902300D01*
X122964000Y-84862300D02*
X120420000Y-84862300D01*
X122986000Y-84822300D02*
X120420000Y-84822300D01*
X123007000Y-84782300D02*
X120420000Y-84782300D01*
X123027000Y-84742300D02*
X120420000Y-84742300D01*
X123046000Y-84702300D02*
X120420000Y-84702300D01*
X123066000Y-84662300D02*
X120420000Y-84662300D01*
X123084000Y-84622300D02*
X120420000Y-84622300D01*
X123102000Y-84582300D02*
X120420000Y-84582300D01*
X123120000Y-84542300D02*
X120420000Y-84542300D01*
X123137000Y-84502300D02*
X120420000Y-84502300D01*
X123154000Y-84462300D02*
X120420000Y-84462300D01*
X123170000Y-84422300D02*
X120420000Y-84422300D01*
X123185000Y-84382300D02*
X120420000Y-84382300D01*
X123201000Y-84342300D02*
X120420000Y-84342300D01*
X123215000Y-84302300D02*
X120420000Y-84302300D01*
X123230000Y-84262300D02*
X120420000Y-84262300D01*
X123243000Y-84222300D02*
X120420000Y-84222300D01*
X123257000Y-84182300D02*
X120420000Y-84182300D01*
X123269000Y-84142300D02*
X120420000Y-84142300D01*
X123282000Y-84102300D02*
X120420000Y-84102300D01*
X123294000Y-84062300D02*
X120420000Y-84062300D01*
X123305000Y-84022300D02*
X120420000Y-84022300D01*
X123316000Y-83982300D02*
X120420000Y-83982300D01*
X123327000Y-83942300D02*
X120420000Y-83942300D01*
X123337000Y-83902300D02*
X120420000Y-83902300D01*
X123347000Y-83862300D02*
X120420000Y-83862300D01*
X123356000Y-83822300D02*
X120420000Y-83822300D01*
X123365000Y-83782300D02*
X120420000Y-83782300D01*
X123374000Y-83742300D02*
X120420000Y-83742300D01*
X123382000Y-83702300D02*
X120420000Y-83702300D01*
X123390000Y-83662300D02*
X120420000Y-83662300D01*
X123397000Y-83622300D02*
X120420000Y-83622300D01*
X123404000Y-83581300D02*
X115356000Y-83581300D01*
X123410000Y-83541300D02*
X115350000Y-83541300D01*
X123417000Y-83501300D02*
X115343000Y-83501300D01*
X123422000Y-83461300D02*
X115338000Y-83461300D01*
X123428000Y-83421300D02*
X115332000Y-83421300D01*
X123432000Y-83381300D02*
X115328000Y-83381300D01*
X123437000Y-83341300D02*
X115323000Y-83341300D01*
X123441000Y-83301300D02*
X115319000Y-83301300D01*
X123445000Y-83261300D02*
X115315000Y-83261300D01*
X123448000Y-83221300D02*
X115312000Y-83221300D01*
X123451000Y-83181300D02*
X115309000Y-83181300D01*
X123454000Y-83141300D02*
X115306000Y-83141300D01*
X123456000Y-83101300D02*
X115304000Y-83101300D01*
X123457000Y-83061300D02*
X115303000Y-83061300D01*
X123459000Y-83021300D02*
X115301000Y-83021300D01*
X123460000Y-82901300D02*
X115300000Y-82901300D01*
X123460000Y-82941300D02*
X115300000Y-82941300D01*
X123460000Y-82981300D02*
X115300000Y-82981300D01*
X123500000Y-82901300D02*
G75*
G02*
X115260000Y-82901300I-4120000J0D01*
G01*
X115260000Y-82901300D02*
G75*
G02*
X123500000Y-82901300I4120000J0D01*
G01*
D12*
X132850000Y-89634000D02*
X136390000Y-89634000D01*
X132850000Y-96294000D02*
X132850000Y-89634000D01*
X136390000Y-89634000D02*
X136390000Y-96294000D01*
X136390000Y-96294000D02*
X132850000Y-96294000D01*
D11*
X135790000Y-95894000D02*
G75*
G02*
X135490000Y-95894000I-150000J0D01*
G01*
X135490000Y-95894000D02*
G75*
G02*
X135790000Y-95894000I150000J0D01*
G01*
X137640000Y-96524000D02*
G75*
G02*
X137340000Y-96524000I-150000J0D01*
G01*
X137340000Y-96524000D02*
G75*
G02*
X137640000Y-96524000I150000J0D01*
G01*
D13*
X163256000Y-123223600D02*
X163256000Y-123426800D01*
X163256000Y-136025200D02*
X163256000Y-136228400D01*
X163256000Y-136228400D02*
X166761200Y-136228400D01*
X166761200Y-136228400D02*
X167370800Y-136228400D01*
X167370800Y-136228400D02*
X170876000Y-136228400D01*
X170876000Y-123223600D02*
X163256000Y-123223600D01*
X170876000Y-123426800D02*
X170876000Y-123223600D01*
X170876000Y-136228400D02*
X170876000Y-136025200D01*
X166761200Y-136228400D02*
G75*
G02*
X167370800Y-136228400I304800J0D01*
G01*
D14*
X117796000Y-88332000D02*
X119126000Y-88332000D01*
X117796000Y-89662000D02*
X117796000Y-88332000D01*
X117796000Y-90932000D02*
X117796000Y-103692000D01*
X117796000Y-90932000D02*
X120396000Y-90932000D01*
X117796000Y-103692000D02*
X122996000Y-103692000D01*
X120396000Y-88332000D02*
X122996000Y-88332000D01*
X120396000Y-90932000D02*
X120396000Y-88332000D01*
X122996000Y-88332000D02*
X122996000Y-103692000D01*
D13*
X162763200Y-80238600D02*
X162763200Y-80441800D01*
X162763200Y-93040200D02*
X162763200Y-93243400D01*
X162763200Y-93243400D02*
X166268400Y-93243400D01*
X166268400Y-93243400D02*
X166878000Y-93243400D01*
X166878000Y-93243400D02*
X170383200Y-93243400D01*
X170383200Y-80238600D02*
X162763200Y-80238600D01*
X170383200Y-80441800D02*
X170383200Y-80238600D01*
X170383200Y-93243400D02*
X170383200Y-93040200D01*
X166268400Y-93243400D02*
G75*
G02*
X166878000Y-93243400I304800J0D01*
G01*
D14*
X117796000Y-105604000D02*
X119126000Y-105604000D01*
X117796000Y-106934000D02*
X117796000Y-105604000D01*
X117796000Y-108204000D02*
X117796000Y-120964000D01*
X117796000Y-108204000D02*
X120396000Y-108204000D01*
X117796000Y-120964000D02*
X122996000Y-120964000D01*
X120396000Y-105604000D02*
X122996000Y-105604000D01*
X120396000Y-108204000D02*
X120396000Y-105604000D01*
X122996000Y-105604000D02*
X122996000Y-120964000D01*
D12*
X147328000Y-122400000D02*
X150868000Y-122400000D01*
X147328000Y-129060000D02*
X147328000Y-122400000D01*
X150868000Y-122400000D02*
X150868000Y-129060000D01*
X150868000Y-129060000D02*
X147328000Y-129060000D01*
D11*
X146378000Y-122170000D02*
G75*
G02*
X146078000Y-122170000I-150000J0D01*
G01*
X146078000Y-122170000D02*
G75*
G02*
X146378000Y-122170000I150000J0D01*
G01*
X148228000Y-122800000D02*
G75*
G02*
X147928000Y-122800000I-150000J0D01*
G01*
X147928000Y-122800000D02*
G75*
G02*
X148228000Y-122800000I150000J0D01*
G01*
D14*
X124267500Y-79294000D02*
X125597500Y-79294000D01*
X124267500Y-80624000D02*
X124267500Y-79294000D01*
X124267500Y-81894000D02*
X124267500Y-142914000D01*
X124267500Y-81894000D02*
X126867500Y-81894000D01*
X124267500Y-142914000D02*
X129467500Y-142914000D01*
X126867500Y-79294000D02*
X129467500Y-79294000D01*
X126867500Y-81894000D02*
X126867500Y-79294000D01*
X129467500Y-79294000D02*
X129467500Y-142914000D01*
X175067500Y-79264000D02*
X176397500Y-79264000D01*
X175067500Y-80594000D02*
X175067500Y-79264000D01*
X175067500Y-81864000D02*
X175067500Y-142884000D01*
X175067500Y-81864000D02*
X177667500Y-81864000D01*
X175067500Y-142884000D02*
X180267500Y-142884000D01*
X177667500Y-79264000D02*
X180267500Y-79264000D01*
X177667500Y-81864000D02*
X177667500Y-79264000D01*
X180267500Y-79264000D02*
X180267500Y-142884000D01*
X117796000Y-125416000D02*
X119126000Y-125416000D01*
X117796000Y-126746000D02*
X117796000Y-125416000D01*
X117796000Y-128016000D02*
X117796000Y-140776000D01*
X117796000Y-128016000D02*
X120396000Y-128016000D01*
X117796000Y-140776000D02*
X122996000Y-140776000D01*
X120396000Y-125416000D02*
X122996000Y-125416000D01*
X120396000Y-128016000D02*
X120396000Y-125416000D01*
X122996000Y-125416000D02*
X122996000Y-140776000D01*
%LPC*%
D16*
X105873500Y-90846500D02*
X103146500Y-90846500D01*
X103146500Y-90421500D01*
X105873500Y-90421500D01*
X105873500Y-90846500D01*
G36*
X105873500Y-90846500D02*
G01*
X103146500Y-90846500D01*
X103146500Y-90421500D01*
X105873500Y-90421500D01*
X105873500Y-90846500D01*
G37*
X105873500Y-91346500D02*
X103146500Y-91346500D01*
X103146500Y-90921500D01*
X105873500Y-90921500D01*
X105873500Y-91346500D01*
G36*
X105873500Y-91346500D02*
G01*
X103146500Y-91346500D01*
X103146500Y-90921500D01*
X105873500Y-90921500D01*
X105873500Y-91346500D01*
G37*
X105873500Y-91846500D02*
X103146500Y-91846500D01*
X103146500Y-91421500D01*
X105873500Y-91421500D01*
X105873500Y-91846500D01*
G36*
X105873500Y-91846500D02*
G01*
X103146500Y-91846500D01*
X103146500Y-91421500D01*
X105873500Y-91421500D01*
X105873500Y-91846500D01*
G37*
X105873500Y-92346500D02*
X103146500Y-92346500D01*
X103146500Y-91921500D01*
X105873500Y-91921500D01*
X105873500Y-92346500D01*
G36*
X105873500Y-92346500D02*
G01*
X103146500Y-92346500D01*
X103146500Y-91921500D01*
X105873500Y-91921500D01*
X105873500Y-92346500D01*
G37*
X105873500Y-92846500D02*
X103146500Y-92846500D01*
X103146500Y-92421500D01*
X105873500Y-92421500D01*
X105873500Y-92846500D01*
G36*
X105873500Y-92846500D02*
G01*
X103146500Y-92846500D01*
X103146500Y-92421500D01*
X105873500Y-92421500D01*
X105873500Y-92846500D01*
G37*
X105873500Y-93346500D02*
X103146500Y-93346500D01*
X103146500Y-92921500D01*
X105873500Y-92921500D01*
X105873500Y-93346500D01*
G36*
X105873500Y-93346500D02*
G01*
X103146500Y-93346500D01*
X103146500Y-92921500D01*
X105873500Y-92921500D01*
X105873500Y-93346500D01*
G37*
X105873500Y-93846500D02*
X103146500Y-93846500D01*
X103146500Y-93421500D01*
X105873500Y-93421500D01*
X105873500Y-93846500D01*
G36*
X105873500Y-93846500D02*
G01*
X103146500Y-93846500D01*
X103146500Y-93421500D01*
X105873500Y-93421500D01*
X105873500Y-93846500D01*
G37*
X105873500Y-94346500D02*
X103146500Y-94346500D01*
X103146500Y-93921500D01*
X105873500Y-93921500D01*
X105873500Y-94346500D01*
G36*
X105873500Y-94346500D02*
G01*
X103146500Y-94346500D01*
X103146500Y-93921500D01*
X105873500Y-93921500D01*
X105873500Y-94346500D01*
G37*
X105873500Y-94846500D02*
X103146500Y-94846500D01*
X103146500Y-94421500D01*
X105873500Y-94421500D01*
X105873500Y-94846500D01*
G36*
X105873500Y-94846500D02*
G01*
X103146500Y-94846500D01*
X103146500Y-94421500D01*
X105873500Y-94421500D01*
X105873500Y-94846500D01*
G37*
X105873500Y-95346500D02*
X103146500Y-95346500D01*
X103146500Y-94921500D01*
X105873500Y-94921500D01*
X105873500Y-95346500D01*
G36*
X105873500Y-95346500D02*
G01*
X103146500Y-95346500D01*
X103146500Y-94921500D01*
X105873500Y-94921500D01*
X105873500Y-95346500D01*
G37*
X105873500Y-95846500D02*
X103146500Y-95846500D01*
X103146500Y-95421500D01*
X105873500Y-95421500D01*
X105873500Y-95846500D01*
G36*
X105873500Y-95846500D02*
G01*
X103146500Y-95846500D01*
X103146500Y-95421500D01*
X105873500Y-95421500D01*
X105873500Y-95846500D01*
G37*
X105873500Y-96346500D02*
X103146500Y-96346500D01*
X103146500Y-95921500D01*
X105873500Y-95921500D01*
X105873500Y-96346500D01*
G36*
X105873500Y-96346500D02*
G01*
X103146500Y-96346500D01*
X103146500Y-95921500D01*
X105873500Y-95921500D01*
X105873500Y-96346500D01*
G37*
X105873500Y-96846500D02*
X103146500Y-96846500D01*
X103146500Y-96421500D01*
X105873500Y-96421500D01*
X105873500Y-96846500D01*
G36*
X105873500Y-96846500D02*
G01*
X103146500Y-96846500D01*
X103146500Y-96421500D01*
X105873500Y-96421500D01*
X105873500Y-96846500D01*
G37*
X105873500Y-97346500D02*
X103146500Y-97346500D01*
X103146500Y-96921500D01*
X105873500Y-96921500D01*
X105873500Y-97346500D01*
G36*
X105873500Y-97346500D02*
G01*
X103146500Y-97346500D01*
X103146500Y-96921500D01*
X105873500Y-96921500D01*
X105873500Y-97346500D01*
G37*
X105873500Y-97846500D02*
X103146500Y-97846500D01*
X103146500Y-97421500D01*
X105873500Y-97421500D01*
X105873500Y-97846500D01*
G36*
X105873500Y-97846500D02*
G01*
X103146500Y-97846500D01*
X103146500Y-97421500D01*
X105873500Y-97421500D01*
X105873500Y-97846500D01*
G37*
X105873500Y-98346500D02*
X103146500Y-98346500D01*
X103146500Y-97921500D01*
X105873500Y-97921500D01*
X105873500Y-98346500D01*
G36*
X105873500Y-98346500D02*
G01*
X103146500Y-98346500D01*
X103146500Y-97921500D01*
X105873500Y-97921500D01*
X105873500Y-98346500D01*
G37*
X105873500Y-98846500D02*
X103146500Y-98846500D01*
X103146500Y-98421500D01*
X105873500Y-98421500D01*
X105873500Y-98846500D01*
G36*
X105873500Y-98846500D02*
G01*
X103146500Y-98846500D01*
X103146500Y-98421500D01*
X105873500Y-98421500D01*
X105873500Y-98846500D01*
G37*
X105873500Y-99346500D02*
X103146500Y-99346500D01*
X103146500Y-98921500D01*
X105873500Y-98921500D01*
X105873500Y-99346500D01*
G36*
X105873500Y-99346500D02*
G01*
X103146500Y-99346500D01*
X103146500Y-98921500D01*
X105873500Y-98921500D01*
X105873500Y-99346500D01*
G37*
X105873500Y-99846500D02*
X103146500Y-99846500D01*
X103146500Y-99421500D01*
X105873500Y-99421500D01*
X105873500Y-99846500D01*
G36*
X105873500Y-99846500D02*
G01*
X103146500Y-99846500D01*
X103146500Y-99421500D01*
X105873500Y-99421500D01*
X105873500Y-99846500D01*
G37*
D17*
X113538000Y-99758500D03*
X111506000Y-99758500D03*
X113538000Y-96583500D03*
X111506000Y-96583500D03*
X114046000Y-109812700D03*
X116078000Y-109812700D03*
X113538000Y-88646000D03*
X111506000Y-88646000D03*
X154178000Y-121412000D03*
X152146000Y-121412000D03*
X170855200Y-94130800D03*
X168823200Y-94130800D03*
D18*
X171602400Y-114300000D03*
X171602400Y-113030000D03*
X171602400Y-111760000D03*
X171602400Y-110490000D03*
X171602400Y-109220000D03*
X171602400Y-107950000D03*
X171602400Y-106680000D03*
X171602400Y-105410000D03*
X171602400Y-104140000D03*
X171602400Y-102870000D03*
X162052000Y-102870000D03*
X162052000Y-104140000D03*
X162052000Y-105410000D03*
X162052000Y-106680000D03*
X162052000Y-107950000D03*
X162052000Y-109220000D03*
X162052000Y-110490000D03*
X162052000Y-111760000D03*
X162052000Y-113030000D03*
X162052000Y-114300000D03*
D19*
X141351000Y-93472000D03*
D20*
X141351000Y-96012000D03*
X141351000Y-98552000D03*
X141351000Y-101092000D03*
X141351000Y-103632000D03*
X141351000Y-106172000D03*
X141351000Y-108712000D03*
X141351000Y-111252000D03*
X141351000Y-113792000D03*
X141351000Y-116332000D03*
X141351000Y-118872000D03*
X141351000Y-121412000D03*
X141351000Y-123952000D03*
X141351000Y-126492000D03*
X141351000Y-129032000D03*
X141351000Y-131572000D03*
X141351000Y-134112000D03*
X141351000Y-136652000D03*
X141351000Y-139192000D03*
X141351000Y-141732000D03*
X156591000Y-141732000D03*
X156591000Y-139192000D03*
X156591000Y-136652000D03*
X156591000Y-134112000D03*
X156591000Y-131572000D03*
X156591000Y-129032000D03*
X156591000Y-126492000D03*
X156591000Y-123952000D03*
X156591000Y-121412000D03*
X156591000Y-118872000D03*
X156591000Y-116332000D03*
X156591000Y-113792000D03*
X156591000Y-111252000D03*
X156591000Y-108712000D03*
X156591000Y-106172000D03*
X156591000Y-103632000D03*
X156591000Y-101092000D03*
X156591000Y-98552000D03*
X156591000Y-96012000D03*
X156591000Y-93472000D03*
D21*
X138861800Y-136652000D03*
X138861800Y-134620000D03*
D17*
X171348400Y-116078000D03*
X169316400Y-116078000D03*
X113538000Y-90233500D03*
X111506000Y-90233500D03*
X114046000Y-112141000D03*
X116078000Y-112141000D03*
D21*
X130810000Y-120777000D03*
X130810000Y-118745000D03*
D17*
X114046000Y-114469300D03*
X116078000Y-114469300D03*
X116078000Y-105156000D03*
X114046000Y-105156000D03*
D22*
X103750000Y-102384000D03*
X103750000Y-87884000D03*
D23*
X97790000Y-102384000D03*
X97790000Y-87884000D03*
D24*
X97282000Y-109474000D03*
X97282000Y-117474000D03*
D25*
X108282000Y-116674000D03*
X108282000Y-115574000D03*
X108282000Y-114474000D03*
X108282000Y-113374000D03*
X108282000Y-112274000D03*
X108282000Y-111174000D03*
X108282000Y-110074000D03*
X108282000Y-108974000D03*
X108282000Y-107874000D03*
D26*
X107282000Y-106624000D03*
D27*
X97682000Y-106624000D03*
X97682000Y-122224000D03*
D28*
X107282000Y-121274000D03*
D19*
X119380000Y-81151300D03*
D29*
X119380000Y-84651300D03*
D17*
X114046000Y-116797700D03*
X116078000Y-116797700D03*
D21*
X116078000Y-88773000D03*
X116078000Y-90805000D03*
D30*
X137490000Y-95894000D03*
X137490000Y-95244000D03*
X137490000Y-94594000D03*
X137490000Y-93944000D03*
X137490000Y-93284000D03*
X137490000Y-92634000D03*
X137490000Y-91984000D03*
X137490000Y-91334000D03*
X137490000Y-90684000D03*
X137490000Y-90034000D03*
X131750000Y-90034000D03*
X131750000Y-90684000D03*
X131750000Y-91334000D03*
X131750000Y-91984000D03*
X131750000Y-92634000D03*
X131750000Y-93284000D03*
X131750000Y-93944000D03*
X131750000Y-94594000D03*
X131750000Y-95244000D03*
X131750000Y-95894000D03*
D17*
X172059600Y-137160000D03*
X170027600Y-137160000D03*
D18*
X171841200Y-135441000D03*
X171841200Y-134171000D03*
X171841200Y-132901000D03*
X171841200Y-131631000D03*
X171841200Y-130361000D03*
X171841200Y-129091000D03*
X171841200Y-127821000D03*
X171841200Y-126551000D03*
X171841200Y-125281000D03*
X171841200Y-124011000D03*
X162290800Y-124011000D03*
X162290800Y-125281000D03*
X162290800Y-126551000D03*
X162290800Y-127821000D03*
X162290800Y-129091000D03*
X162290800Y-130361000D03*
X162290800Y-131631000D03*
X162290800Y-132901000D03*
X162290800Y-134171000D03*
X162290800Y-135441000D03*
D31*
X119126000Y-89662000D03*
D32*
X121666000Y-89662000D03*
X119126000Y-92202000D03*
X121666000Y-92202000D03*
X119126000Y-94742000D03*
X121666000Y-94742000D03*
X119126000Y-97282000D03*
X121666000Y-97282000D03*
X119126000Y-99822000D03*
X121666000Y-99822000D03*
X119126000Y-102362000D03*
X121666000Y-102362000D03*
D17*
X114046000Y-119126000D03*
X116078000Y-119126000D03*
D18*
X171348400Y-92456000D03*
X171348400Y-91186000D03*
X171348400Y-89916000D03*
X171348400Y-88646000D03*
X171348400Y-87376000D03*
X171348400Y-86106000D03*
X171348400Y-84836000D03*
X171348400Y-83566000D03*
X171348400Y-82296000D03*
X171348400Y-81026000D03*
X161798000Y-81026000D03*
X161798000Y-82296000D03*
X161798000Y-83566000D03*
X161798000Y-84836000D03*
X161798000Y-86106000D03*
X161798000Y-87376000D03*
X161798000Y-88646000D03*
X161798000Y-89916000D03*
X161798000Y-91186000D03*
X161798000Y-92456000D03*
D31*
X119126000Y-106934000D03*
D32*
X121666000Y-106934000D03*
X119126000Y-109474000D03*
X121666000Y-109474000D03*
X119126000Y-112014000D03*
X121666000Y-112014000D03*
X119126000Y-114554000D03*
X121666000Y-114554000D03*
X119126000Y-117094000D03*
X121666000Y-117094000D03*
X119126000Y-119634000D03*
X121666000Y-119634000D03*
D17*
X113538000Y-98171000D03*
X111506000Y-98171000D03*
D30*
X146228000Y-122800000D03*
X146228000Y-123450000D03*
X146228000Y-124100000D03*
X146228000Y-124750000D03*
X146228000Y-125410000D03*
X146228000Y-126060000D03*
X146228000Y-126710000D03*
X146228000Y-127360000D03*
X146228000Y-128010000D03*
X146228000Y-128660000D03*
X151968000Y-128660000D03*
X151968000Y-128010000D03*
X151968000Y-127360000D03*
X151968000Y-126710000D03*
X151968000Y-126060000D03*
X151968000Y-125410000D03*
X151968000Y-124750000D03*
X151968000Y-124100000D03*
X151968000Y-123450000D03*
X151968000Y-122800000D03*
D31*
X125597500Y-80624000D03*
D32*
X128137500Y-80624000D03*
X125597500Y-83164000D03*
X128137500Y-83164000D03*
X125597500Y-85704000D03*
X128137500Y-85704000D03*
X125597500Y-88244000D03*
X128137500Y-88244000D03*
X125597500Y-90784000D03*
X128137500Y-90784000D03*
X125597500Y-93324000D03*
X128137500Y-93324000D03*
X125597500Y-95864000D03*
X128137500Y-95864000D03*
X125597500Y-98404000D03*
X128137500Y-98404000D03*
X125597500Y-100944000D03*
X128137500Y-100944000D03*
X125597500Y-103484000D03*
X128137500Y-103484000D03*
X125597500Y-106024000D03*
X128137500Y-106024000D03*
X125597500Y-108564000D03*
X128137500Y-108564000D03*
X125597500Y-111104000D03*
X128137500Y-111104000D03*
X125597500Y-113644000D03*
X128137500Y-113644000D03*
X125597500Y-116184000D03*
X128137500Y-116184000D03*
X125597500Y-118724000D03*
X128137500Y-118724000D03*
X125597500Y-121264000D03*
X128137500Y-121264000D03*
X125597500Y-123804000D03*
X128137500Y-123804000D03*
X125597500Y-126344000D03*
X128137500Y-126344000D03*
X125597500Y-128884000D03*
X128137500Y-128884000D03*
X125597500Y-131424000D03*
X128137500Y-131424000D03*
X125597500Y-133964000D03*
X128137500Y-133964000D03*
X125597500Y-136504000D03*
X128137500Y-136504000D03*
X125597500Y-139044000D03*
X128137500Y-139044000D03*
X125597500Y-141584000D03*
X128137500Y-141584000D03*
D31*
X176397500Y-80594000D03*
D32*
X178937500Y-80594000D03*
X176397500Y-83134000D03*
X178937500Y-83134000D03*
X176397500Y-85674000D03*
X178937500Y-85674000D03*
X176397500Y-88214000D03*
X178937500Y-88214000D03*
X176397500Y-90754000D03*
X178937500Y-90754000D03*
X176397500Y-93294000D03*
X178937500Y-93294000D03*
X176397500Y-95834000D03*
X178937500Y-95834000D03*
X176397500Y-98374000D03*
X178937500Y-98374000D03*
X176397500Y-100914000D03*
X178937500Y-100914000D03*
X176397500Y-103454000D03*
X178937500Y-103454000D03*
X176397500Y-105994000D03*
X178937500Y-105994000D03*
X176397500Y-108534000D03*
X178937500Y-108534000D03*
X176397500Y-111074000D03*
X178937500Y-111074000D03*
X176397500Y-113614000D03*
X178937500Y-113614000D03*
X176397500Y-116154000D03*
X178937500Y-116154000D03*
X176397500Y-118694000D03*
X178937500Y-118694000D03*
X176397500Y-121234000D03*
X178937500Y-121234000D03*
X176397500Y-123774000D03*
X178937500Y-123774000D03*
X176397500Y-126314000D03*
X178937500Y-126314000D03*
X176397500Y-128854000D03*
X178937500Y-128854000D03*
X176397500Y-131394000D03*
X178937500Y-131394000D03*
X176397500Y-133934000D03*
X178937500Y-133934000D03*
X176397500Y-136474000D03*
X178937500Y-136474000D03*
X176397500Y-139014000D03*
X178937500Y-139014000D03*
X176397500Y-141554000D03*
X178937500Y-141554000D03*
D17*
X114046000Y-107484300D03*
X116078000Y-107484300D03*
X135361000Y-88603000D03*
X137393000Y-88603000D03*
X113538000Y-101346000D03*
X111506000Y-101346000D03*
X113538000Y-91821000D03*
X111506000Y-91821000D03*
X113538000Y-94996000D03*
X111506000Y-94996000D03*
D31*
X119126000Y-126746000D03*
D32*
X121666000Y-126746000D03*
X119126000Y-129286000D03*
X121666000Y-129286000D03*
X119126000Y-131826000D03*
X121666000Y-131826000D03*
X119126000Y-134366000D03*
X121666000Y-134366000D03*
X119126000Y-136906000D03*
X121666000Y-136906000D03*
X119126000Y-139446000D03*
X121666000Y-139446000D03*
D17*
X113538000Y-93408500D03*
X111506000Y-93408500D03*
%LPD*%
M02*
