G04 #@! TF.GenerationSoftware,KiCad,Pcbnew,8.0.3*
G04 #@! TF.CreationDate,2024-06-06T03:05:29-03:00*
G04 #@! TF.ProjectId,MSX_GOAULD_XC7,4d53585f-474f-4415-954c-445f5843372e,rev?*
G04 #@! TF.SameCoordinates,Original*
G04 #@! TF.FileFunction,Copper,L2,Bot*
G04 #@! TF.FilePolarity,Positive*
%FSLAX46Y46*%
G04 Gerber Fmt 4.6, Leading zero omitted, Abs format (unit mm)*
G04 Created by KiCad (PCBNEW 8.0.3) date 2024-06-06 03:05:29*
%MOMM*%
%LPD*%
G01*
G04 APERTURE LIST*
G04 #@! TA.AperFunction,ComponentPad*
%ADD10R,1.600000X1.600000*%
G04 #@! TD*
G04 #@! TA.AperFunction,ComponentPad*
%ADD11O,1.600000X1.600000*%
G04 #@! TD*
G04 #@! TA.AperFunction,ComponentPad*
%ADD12O,3.300000X1.500000*%
G04 #@! TD*
G04 #@! TA.AperFunction,ComponentPad*
%ADD13O,2.300000X1.500000*%
G04 #@! TD*
G04 #@! TA.AperFunction,ComponentPad*
%ADD14C,1.000000*%
G04 #@! TD*
G04 #@! TA.AperFunction,ComponentPad*
%ADD15C,1.600000*%
G04 #@! TD*
G04 #@! TA.AperFunction,ComponentPad*
%ADD16R,1.700000X1.700000*%
G04 #@! TD*
G04 #@! TA.AperFunction,ComponentPad*
%ADD17O,1.700000X1.700000*%
G04 #@! TD*
G04 #@! TA.AperFunction,ViaPad*
%ADD18C,0.800000*%
G04 #@! TD*
G04 #@! TA.AperFunction,Conductor*
%ADD19C,0.450000*%
G04 #@! TD*
G04 #@! TA.AperFunction,Conductor*
%ADD20C,0.300000*%
G04 #@! TD*
G04 APERTURE END LIST*
D10*
X141351000Y-93472000D03*
D11*
X141351000Y-96012000D03*
X141351000Y-98552000D03*
X141351000Y-101092000D03*
X141351000Y-103632000D03*
X141351000Y-106172000D03*
X141351000Y-108712000D03*
X141351000Y-111252000D03*
X141351000Y-113792000D03*
X141351000Y-116332000D03*
X141351000Y-118872000D03*
X141351000Y-121412000D03*
X141351000Y-123952000D03*
X141351000Y-126492000D03*
X141351000Y-129032000D03*
X141351000Y-131572000D03*
X141351000Y-134112000D03*
X141351000Y-136652000D03*
X141351000Y-139192000D03*
X141351000Y-141732000D03*
X156591000Y-141732000D03*
X156591000Y-139192000D03*
X156591000Y-136652000D03*
X156591000Y-134112000D03*
X156591000Y-131572000D03*
X156591000Y-129032000D03*
X156591000Y-126492000D03*
X156591000Y-123952000D03*
X156591000Y-121412000D03*
X156591000Y-118872000D03*
X156591000Y-116332000D03*
X156591000Y-113792000D03*
X156591000Y-111252000D03*
X156591000Y-108712000D03*
X156591000Y-106172000D03*
X156591000Y-103632000D03*
X156591000Y-101092000D03*
X156591000Y-98552000D03*
X156591000Y-96012000D03*
X156591000Y-93472000D03*
D12*
X103750000Y-102384000D03*
X103750000Y-87884000D03*
D13*
X97790000Y-102384000D03*
X97790000Y-87884000D03*
D14*
X97282000Y-109474000D03*
X97282000Y-117474000D03*
D10*
X119380000Y-81151300D03*
D15*
X119380000Y-84651300D03*
D16*
X119126000Y-89662000D03*
D17*
X121666000Y-89662000D03*
X119126000Y-92202000D03*
X121666000Y-92202000D03*
X119126000Y-94742000D03*
X121666000Y-94742000D03*
X119126000Y-97282000D03*
X121666000Y-97282000D03*
X119126000Y-99822000D03*
X121666000Y-99822000D03*
X119126000Y-102362000D03*
X121666000Y-102362000D03*
D16*
X119126000Y-106934000D03*
D17*
X121666000Y-106934000D03*
X119126000Y-109474000D03*
X121666000Y-109474000D03*
X119126000Y-112014000D03*
X121666000Y-112014000D03*
X119126000Y-114554000D03*
X121666000Y-114554000D03*
X119126000Y-117094000D03*
X121666000Y-117094000D03*
X119126000Y-119634000D03*
X121666000Y-119634000D03*
D16*
X125597500Y-80624000D03*
D17*
X128137500Y-80624000D03*
X125597500Y-83164000D03*
X128137500Y-83164000D03*
X125597500Y-85704000D03*
X128137500Y-85704000D03*
X125597500Y-88244000D03*
X128137500Y-88244000D03*
X125597500Y-90784000D03*
X128137500Y-90784000D03*
X125597500Y-93324000D03*
X128137500Y-93324000D03*
X125597500Y-95864000D03*
X128137500Y-95864000D03*
X125597500Y-98404000D03*
X128137500Y-98404000D03*
X125597500Y-100944000D03*
X128137500Y-100944000D03*
X125597500Y-103484000D03*
X128137500Y-103484000D03*
X125597500Y-106024000D03*
X128137500Y-106024000D03*
X125597500Y-108564000D03*
X128137500Y-108564000D03*
X125597500Y-111104000D03*
X128137500Y-111104000D03*
X125597500Y-113644000D03*
X128137500Y-113644000D03*
X125597500Y-116184000D03*
X128137500Y-116184000D03*
X125597500Y-118724000D03*
X128137500Y-118724000D03*
X125597500Y-121264000D03*
X128137500Y-121264000D03*
X125597500Y-123804000D03*
X128137500Y-123804000D03*
X125597500Y-126344000D03*
X128137500Y-126344000D03*
X125597500Y-128884000D03*
X128137500Y-128884000D03*
X125597500Y-131424000D03*
X128137500Y-131424000D03*
X125597500Y-133964000D03*
X128137500Y-133964000D03*
X125597500Y-136504000D03*
X128137500Y-136504000D03*
X125597500Y-139044000D03*
X128137500Y-139044000D03*
X125597500Y-141584000D03*
X128137500Y-141584000D03*
D16*
X176397500Y-80594000D03*
D17*
X178937500Y-80594000D03*
X176397500Y-83134000D03*
X178937500Y-83134000D03*
X176397500Y-85674000D03*
X178937500Y-85674000D03*
X176397500Y-88214000D03*
X178937500Y-88214000D03*
X176397500Y-90754000D03*
X178937500Y-90754000D03*
X176397500Y-93294000D03*
X178937500Y-93294000D03*
X176397500Y-95834000D03*
X178937500Y-95834000D03*
X176397500Y-98374000D03*
X178937500Y-98374000D03*
X176397500Y-100914000D03*
X178937500Y-100914000D03*
X176397500Y-103454000D03*
X178937500Y-103454000D03*
X176397500Y-105994000D03*
X178937500Y-105994000D03*
X176397500Y-108534000D03*
X178937500Y-108534000D03*
X176397500Y-111074000D03*
X178937500Y-111074000D03*
X176397500Y-113614000D03*
X178937500Y-113614000D03*
X176397500Y-116154000D03*
X178937500Y-116154000D03*
X176397500Y-118694000D03*
X178937500Y-118694000D03*
X176397500Y-121234000D03*
X178937500Y-121234000D03*
X176397500Y-123774000D03*
X178937500Y-123774000D03*
X176397500Y-126314000D03*
X178937500Y-126314000D03*
X176397500Y-128854000D03*
X178937500Y-128854000D03*
X176397500Y-131394000D03*
X178937500Y-131394000D03*
X176397500Y-133934000D03*
X178937500Y-133934000D03*
X176397500Y-136474000D03*
X178937500Y-136474000D03*
X176397500Y-139014000D03*
X178937500Y-139014000D03*
X176397500Y-141554000D03*
X178937500Y-141554000D03*
D16*
X119126000Y-126746000D03*
D17*
X121666000Y-126746000D03*
X119126000Y-129286000D03*
X121666000Y-129286000D03*
X119126000Y-131826000D03*
X121666000Y-131826000D03*
X119126000Y-134366000D03*
X121666000Y-134366000D03*
X119126000Y-136906000D03*
X121666000Y-136906000D03*
X119126000Y-139446000D03*
X121666000Y-139446000D03*
D18*
X123444000Y-85852000D03*
X152480700Y-118533700D03*
X115316000Y-120396000D03*
X134250000Y-87492000D03*
X170309700Y-131631000D03*
X160466200Y-113060700D03*
X168122700Y-116078000D03*
X171197500Y-101974900D03*
X154151700Y-120199400D03*
X166935000Y-94541300D03*
X166915800Y-114325300D03*
X163320300Y-89916000D03*
X172822600Y-99917800D03*
X173112500Y-106423300D03*
X164662200Y-129000100D03*
X149124500Y-123943200D03*
X138823000Y-93201500D03*
X139510000Y-92265400D03*
X136014000Y-92215000D03*
X135382000Y-91440000D03*
X134601000Y-90815300D03*
X163830000Y-88646000D03*
X161056300Y-93353000D03*
X160285800Y-86615700D03*
X159554700Y-94186100D03*
X160266800Y-83900200D03*
X164292000Y-102660700D03*
X163571200Y-105697800D03*
X173107900Y-109220000D03*
X177334500Y-107312000D03*
X147719000Y-125079600D03*
X169680300Y-124662600D03*
X168984200Y-125932600D03*
X173940800Y-124885200D03*
X173363500Y-127025500D03*
X109982000Y-115570000D03*
X109982000Y-116586000D03*
X109982000Y-108966000D03*
X109982000Y-109982000D03*
X109982000Y-114554000D03*
X109982000Y-112268000D03*
D19*
X126862000Y-79349000D02*
X127500000Y-79986500D01*
X134250000Y-87056500D02*
X134250000Y-87492000D01*
X134250000Y-87056500D02*
X149049700Y-87056500D01*
X127500000Y-79986500D02*
X128138000Y-80624000D01*
X123444000Y-85852000D02*
X123444000Y-85789000D01*
X152480700Y-90487500D02*
X163650900Y-79317300D01*
X121666000Y-126746000D02*
X119126000Y-126746000D01*
X152480700Y-118533700D02*
X152480700Y-90487500D01*
X123444000Y-80170200D02*
X124265000Y-79349000D01*
X127500000Y-79986500D02*
X128137500Y-80624000D01*
X177660800Y-79317300D02*
X178937500Y-80594000D01*
X120929000Y-89662000D02*
X122941000Y-91673900D01*
X124265000Y-79349000D02*
X126862000Y-79349000D01*
X123444000Y-85852000D02*
X123444000Y-85789000D01*
X122941000Y-105659000D02*
X121666000Y-106934000D01*
X123444000Y-85789000D02*
X123444000Y-80170200D01*
X134250000Y-86736500D02*
X134250000Y-87056500D01*
X128138000Y-80624000D02*
X134250000Y-86736500D01*
X149049700Y-87056500D02*
X152480700Y-90487500D01*
X119126000Y-89662000D02*
X120929000Y-89662000D01*
X115316000Y-120396000D02*
X121666000Y-126746000D01*
X122941000Y-91673900D02*
X122941000Y-105659000D01*
X163650900Y-79317300D02*
X177660800Y-79317300D01*
X176397500Y-141554000D02*
X170309700Y-135466200D01*
X168140700Y-116078000D02*
X168140700Y-105031700D01*
X106983000Y-84651300D02*
X103750000Y-87884000D01*
X156591000Y-120645300D02*
X160466200Y-116770100D01*
X168140700Y-116078000D02*
X168140700Y-129462000D01*
X155364300Y-121412000D02*
X154151700Y-120199400D01*
X168140700Y-129462000D02*
X170309700Y-131631000D01*
X171197500Y-88334000D02*
X176397500Y-83134000D01*
X156591000Y-121412000D02*
X156591000Y-120645300D01*
X160466200Y-116770100D02*
X160466200Y-113060700D01*
X170309700Y-135466200D02*
X170309700Y-131631000D01*
X168140700Y-105031700D02*
X171197500Y-101974900D01*
X156591000Y-121412000D02*
X155364300Y-121412000D01*
X171197500Y-101974900D02*
X171197500Y-88334000D01*
X119380000Y-84651300D02*
X106983000Y-84651300D01*
X168140700Y-116078000D02*
X168122700Y-116078000D01*
X156591000Y-136652000D02*
X143804500Y-136652000D01*
X166935000Y-90056500D02*
X166935000Y-94541300D01*
X143191100Y-136038600D02*
X142577700Y-136652000D01*
X166915800Y-125579773D02*
X166915800Y-114325300D01*
X141351000Y-118872000D02*
X141351000Y-120098700D01*
X143191100Y-121487800D02*
X141802000Y-120098700D01*
X163837200Y-129278800D02*
X163837200Y-128658373D01*
X143804500Y-136652000D02*
X143191100Y-136038600D01*
X166915800Y-94560500D02*
X166915800Y-114325300D01*
X166935000Y-94541300D02*
X166915800Y-94560500D01*
X143191100Y-136038600D02*
X143191100Y-121487800D01*
X156591000Y-136652000D02*
X156591000Y-136525000D01*
X141802000Y-120098700D02*
X141351000Y-120098700D01*
X156591000Y-136525000D02*
X163837200Y-129278800D01*
X141351000Y-136652000D02*
X142577700Y-136652000D01*
X163837200Y-128658373D02*
X166915800Y-125579773D01*
X176397500Y-80594000D02*
X166935000Y-90056500D01*
D20*
X156591000Y-118872000D02*
X156591000Y-118008200D01*
X162309800Y-90926500D02*
X163320300Y-89916000D01*
X159450600Y-115148600D02*
X159450600Y-112197000D01*
X156591000Y-118008200D02*
X159450600Y-115148600D01*
X162309800Y-109337800D02*
X162309800Y-90926500D01*
X159450600Y-112197000D02*
X162309800Y-109337800D01*
X172822600Y-95148800D02*
X172822600Y-99917800D01*
X178937500Y-88214000D02*
X178937500Y-89040100D01*
X178937500Y-89040100D02*
X177735800Y-90241800D01*
X177735800Y-90241800D02*
X177735800Y-91200000D01*
X175947400Y-92024000D02*
X172822600Y-95148800D01*
X176911800Y-92024000D02*
X175947400Y-92024000D01*
X177735800Y-91200000D02*
X176911800Y-92024000D01*
X175966300Y-97104000D02*
X173574300Y-99496000D01*
X173574300Y-105961500D02*
X173112500Y-106423300D01*
X177735800Y-92781800D02*
X177735800Y-96252200D01*
X177735800Y-96252200D02*
X176884000Y-97104000D01*
X178937500Y-90754000D02*
X178937500Y-91580100D01*
X173574300Y-99496000D02*
X173574300Y-105961500D01*
X176884000Y-97104000D02*
X175966300Y-97104000D01*
X178937500Y-91580100D02*
X177735800Y-92781800D01*
X156591000Y-138328200D02*
X164662200Y-130257000D01*
X156591000Y-139192000D02*
X156591000Y-138328200D01*
X164662200Y-130257000D02*
X164662200Y-129000100D01*
X156591000Y-129032000D02*
X155439300Y-129032000D01*
X150350500Y-123943200D02*
X149124500Y-123943200D01*
X155439300Y-129032000D02*
X150350500Y-123943200D01*
X138811000Y-108585000D02*
X141351000Y-111125000D01*
X138811000Y-93213200D02*
X138811000Y-108585000D01*
X141351000Y-111125000D02*
X141351000Y-111252000D01*
X138823000Y-93201500D02*
X138811000Y-93213200D01*
X141351000Y-108712000D02*
X139573000Y-106934000D01*
X139573000Y-106934000D02*
X139573000Y-92456000D01*
X139573200Y-92455800D02*
X139573000Y-92456000D01*
X139637000Y-92392400D02*
X139510000Y-92265400D01*
X139573200Y-92329200D02*
X139573200Y-92455800D01*
X139510000Y-92265400D02*
X139573200Y-92329200D01*
X139573200Y-92329200D02*
X139636000Y-92392600D01*
X136017000Y-95631000D02*
X138311000Y-97925000D01*
X136017000Y-92217900D02*
X136017000Y-95631000D01*
X138311000Y-110752000D02*
X141351000Y-113792000D01*
X138311000Y-97925000D02*
X138311000Y-110752000D01*
X136014000Y-92215000D02*
X136017000Y-92217900D01*
X135517000Y-95838100D02*
X137811000Y-98132100D01*
X135264000Y-91558000D02*
X135264000Y-92525600D01*
X137811000Y-110959000D02*
X140201000Y-113349000D01*
X140201000Y-115182000D02*
X141351000Y-116332000D01*
X137811000Y-98132100D02*
X137811000Y-110959000D01*
X135517000Y-92778600D02*
X135517000Y-95838100D01*
X140201000Y-113349000D02*
X140201000Y-115182000D01*
X135264000Y-92525600D02*
X135517000Y-92778600D01*
X135382000Y-91440000D02*
X135264000Y-91558000D01*
X137311000Y-98339200D02*
X137311000Y-111166000D01*
X135017000Y-96045200D02*
X137311000Y-98339200D01*
X139701000Y-113556000D02*
X139701000Y-122302000D01*
X137311000Y-111166000D02*
X139701000Y-113556000D01*
X135017000Y-92985700D02*
X135017000Y-96045200D01*
X139701000Y-122302000D02*
X141351000Y-123952000D01*
X134601000Y-92569800D02*
X135017000Y-92985700D01*
X134601000Y-90815300D02*
X134601000Y-92569800D01*
X161808100Y-90367539D02*
X161808100Y-109006000D01*
X157742700Y-113071400D02*
X157742700Y-115180300D01*
X163529639Y-88646000D02*
X161808100Y-90367539D01*
X163830000Y-88646000D02*
X163529639Y-88646000D01*
X157742700Y-115180300D02*
X156591000Y-116332000D01*
X161808100Y-109006000D02*
X157742700Y-113071400D01*
X156718000Y-112762700D02*
X161056300Y-108424400D01*
X161056300Y-108424400D02*
X161056300Y-93353000D01*
X156591000Y-113792000D02*
X156591000Y-112903000D01*
X156591000Y-112903000D02*
X156718000Y-112776000D01*
X156718000Y-112776000D02*
X156718000Y-112762700D01*
X160307700Y-106671500D02*
X160307700Y-93875800D01*
X160307700Y-93875800D02*
X160285800Y-93853900D01*
X160285800Y-93853900D02*
X160285800Y-86615700D01*
X156591000Y-111252000D02*
X156591000Y-110388200D01*
X156591000Y-110388200D02*
X160307700Y-106671500D01*
X156591000Y-108712000D02*
X156591000Y-107848200D01*
X159554700Y-104884500D02*
X159554700Y-94186100D01*
X156591000Y-107848200D02*
X159554700Y-104884500D01*
X160266800Y-83900200D02*
X158803000Y-85364000D01*
X158803000Y-85364000D02*
X158803000Y-103960000D01*
X158803000Y-103960000D02*
X156591000Y-106172000D01*
X156129000Y-125125600D02*
X157069600Y-125125600D01*
X141351000Y-103632000D02*
X141351000Y-104495700D01*
X143002000Y-111998600D02*
X156129000Y-125125600D01*
X157069600Y-125125600D02*
X164354800Y-117840400D01*
X164354800Y-102723500D02*
X164292000Y-102660700D01*
X141351000Y-104495700D02*
X143002000Y-106146700D01*
X143002000Y-106146700D02*
X143002000Y-111998600D01*
X164354800Y-117840400D02*
X164354800Y-102723500D01*
X155428400Y-122595000D02*
X157045300Y-122595000D01*
X141351000Y-98552000D02*
X141351000Y-99415800D01*
X151485400Y-109550200D02*
X151485400Y-118652000D01*
X141351000Y-99415800D02*
X151485400Y-109550200D01*
X157045300Y-122595000D02*
X163571200Y-116069100D01*
X151485400Y-118652000D02*
X155428400Y-122595000D01*
X163571200Y-116069100D02*
X163571200Y-105697800D01*
X177735800Y-97861800D02*
X177735800Y-98799900D01*
X177735800Y-98799900D02*
X176891700Y-99644000D01*
X176891700Y-99644000D02*
X175892600Y-99644000D01*
X174528800Y-101007800D02*
X174528800Y-107799100D01*
X174528800Y-107799100D02*
X173107900Y-109220000D01*
X178937500Y-96660100D02*
X177735800Y-97861800D01*
X175892600Y-99644000D02*
X174528800Y-101007800D01*
X178937500Y-95834000D02*
X178937500Y-96660100D01*
X177334500Y-107312000D02*
X177667500Y-106979000D01*
X177667500Y-106979000D02*
X177667500Y-100472200D01*
X177667500Y-100472200D02*
X178937500Y-99202200D01*
X178937500Y-99202200D02*
X178937500Y-98374000D01*
X156591000Y-133951600D02*
X147719000Y-125079600D01*
X156591000Y-134112000D02*
X156591000Y-133951600D01*
X169680300Y-124662600D02*
X170654600Y-125636900D01*
X174998000Y-127454500D02*
X176397500Y-128854000D01*
X174998000Y-126820200D02*
X174998000Y-127454500D01*
X173814700Y-125636900D02*
X174998000Y-126820200D01*
X170654600Y-125636900D02*
X173814700Y-125636900D01*
X174498000Y-127099339D02*
X174498000Y-129494500D01*
X173537261Y-126138600D02*
X174498000Y-127099339D01*
X168984200Y-125932600D02*
X169190200Y-126138600D01*
X174498000Y-129494500D02*
X176397500Y-131394000D01*
X169190200Y-126138600D02*
X173537261Y-126138600D01*
X175640443Y-124714000D02*
X174112000Y-124714000D01*
X177616400Y-125833400D02*
X176757000Y-124974000D01*
X177616400Y-134426900D02*
X177616400Y-125833400D01*
X176397500Y-136474000D02*
X176397500Y-135645800D01*
X175900443Y-124974000D02*
X175640443Y-124714000D01*
X176397500Y-135645800D02*
X177616400Y-134426900D01*
X174112000Y-124714000D02*
X173940800Y-124885200D01*
X176757000Y-124974000D02*
X175900443Y-124974000D01*
X173363500Y-130071800D02*
X173363500Y-127025500D01*
X176397500Y-132732300D02*
X176024000Y-132732300D01*
X176397500Y-133934000D02*
X176397500Y-132732300D01*
X176024000Y-132732300D02*
X173363500Y-130071800D01*
X122768000Y-118434000D02*
X125597500Y-121263500D01*
X121169000Y-118434000D02*
X122768000Y-118434000D01*
X125597500Y-121263500D02*
X125598000Y-121264000D01*
X109982000Y-115570000D02*
X114554000Y-115570000D01*
X114554000Y-115570000D02*
X118618000Y-119634000D01*
X118618000Y-119634000D02*
X119126000Y-119634000D01*
X125597500Y-121263500D02*
X125597500Y-121264000D01*
X119969000Y-119634000D02*
X121169000Y-118434000D01*
X119126000Y-119634000D02*
X119969000Y-119634000D01*
X121666000Y-119634000D02*
X125598000Y-123566000D01*
X125598000Y-123685000D02*
X125598000Y-123804000D01*
X125597500Y-123685500D02*
X125597500Y-123804000D01*
X125598000Y-123685000D02*
X125597500Y-123685500D01*
X109982000Y-116586000D02*
X114381000Y-116586000D01*
X125598000Y-123566000D02*
X125598000Y-123685000D01*
X120466000Y-120834000D02*
X121666000Y-119634000D01*
X118629000Y-120834000D02*
X120466000Y-120834000D01*
X114381000Y-116586000D02*
X118629000Y-120834000D01*
X125597500Y-111104000D02*
X125597600Y-111104000D01*
X111506000Y-108966000D02*
X117094000Y-114554000D01*
X123348000Y-113354000D02*
X125597800Y-111104200D01*
X109982000Y-108966000D02*
X111506000Y-108966000D01*
X125597800Y-111104200D02*
X125598000Y-111104000D01*
X120326000Y-113354000D02*
X123348000Y-113354000D01*
X117094000Y-114554000D02*
X119126000Y-114554000D01*
X119126000Y-114554000D02*
X120326000Y-113354000D01*
X125597600Y-111104000D02*
X125597800Y-111104200D01*
X120466000Y-115754000D02*
X121666000Y-114554000D01*
X125597500Y-113644500D02*
X125597500Y-113644000D01*
X121666000Y-114554000D02*
X124688000Y-114554000D01*
X124688000Y-114554000D02*
X125597500Y-113644500D01*
X117532000Y-115754000D02*
X120466000Y-115754000D01*
X109982000Y-109982000D02*
X111760000Y-109982000D01*
X125597500Y-113644500D02*
X125598000Y-113644000D01*
X111760000Y-109982000D02*
X117532000Y-115754000D01*
X121666000Y-117094000D02*
X122174000Y-117094000D01*
X122174000Y-117094000D02*
X123084000Y-116184000D01*
X114554000Y-114554000D02*
X118364000Y-118364000D01*
X125597500Y-116184000D02*
X125598000Y-116184000D01*
X123084000Y-116184000D02*
X125597500Y-116184000D01*
X120396000Y-118364000D02*
X121666000Y-117094000D01*
X118364000Y-118364000D02*
X120396000Y-118364000D01*
X109982000Y-114554000D02*
X114554000Y-114554000D01*
X113284000Y-112268000D02*
X118110000Y-117094000D01*
X118110000Y-117094000D02*
X119126000Y-117094000D01*
X109982000Y-112268000D02*
X113284000Y-112268000D01*
X128137500Y-139044000D02*
X126937500Y-137844000D01*
X126937500Y-137844000D02*
X123268000Y-137844000D01*
X123268000Y-137844000D02*
X121666000Y-139446000D01*
X120378000Y-135654000D02*
X119126000Y-136906000D01*
X125597500Y-136504000D02*
X124747500Y-135654000D01*
X124747500Y-135654000D02*
X120378000Y-135654000D01*
X126797500Y-132624000D02*
X128137500Y-133964000D01*
X123408000Y-132624000D02*
X126797500Y-132624000D01*
X121666000Y-134366000D02*
X123408000Y-132624000D01*
M02*
