M48
; DRILL file {KiCad 8.0.3} date 2024-06-06T03:05:26-0300
; FORMAT={-:-/ absolute / inch / decimal}
; #@! TF.CreationDate,2024-06-06T03:05:26-03:00
; #@! TF.GenerationSoftware,Kicad,Pcbnew,8.0.3
; #@! TF.FileFunction,Plated,1,2,PTH
FMAT,2
INCH
; #@! TA.AperFunction,Plated,PTH,ViaDrill
T1C0.0157
; #@! TA.AperFunction,Plated,PTH,ComponentDrill
T2C0.0315
; #@! TA.AperFunction,Plated,PTH,ComponentDrill
T3C0.0354
; #@! TA.AperFunction,Plated,PTH,ComponentDrill
T4C0.0394
%
G90
G05
T1
X4.33Y-4.29
X4.33Y-4.33
X4.33Y-4.42
X4.33Y-4.51
X4.33Y-4.55
X4.33Y-4.59
X4.54Y-4.74
X4.86Y-3.38
X5.2854Y-3.4446
X5.2993Y-3.5754
X5.33Y-3.6
X5.3549Y-3.6305
X5.4655Y-3.6694
X5.4925Y-3.6325
X5.8157Y-4.9244
X5.871Y-4.8797
X6.0032Y-4.6667
X6.069Y-4.7323
X6.2817Y-3.7081
X6.3097Y-3.3032
X6.3105Y-3.4101
X6.3176Y-4.4512
X6.3408Y-3.6753
X6.4299Y-3.54
X6.4398Y-4.1613
X6.45Y-3.49
X6.4682Y-4.0418
X6.4828Y-5.0787
X6.5715Y-4.501
X6.5722Y-3.7221
X6.619Y-4.57
X6.6529Y-4.958
X6.6803Y-4.908
X6.7051Y-5.1823
X6.7401Y-4.0148
X6.804Y-3.9338
X6.8153Y-4.3
X6.8155Y-4.1899
X6.8253Y-5.001
X6.8481Y-4.9167
X6.9817Y-4.2249
T2
X4.7Y-3.1949
X4.7Y-3.3327
X5.565Y-3.68
X5.565Y-3.78
X5.565Y-3.88
X5.565Y-3.98
X5.565Y-4.08
X5.565Y-4.18
X5.565Y-4.28
X5.565Y-4.38
X5.565Y-4.48
X5.565Y-4.58
X5.565Y-4.68
X5.565Y-4.78
X5.565Y-4.88
X5.565Y-4.98
X5.565Y-5.08
X5.565Y-5.18
X5.565Y-5.28
X5.565Y-5.38
X5.565Y-5.48
X5.565Y-5.58
X6.165Y-3.68
X6.165Y-3.78
X6.165Y-3.88
X6.165Y-3.98
X6.165Y-4.08
X6.165Y-4.18
X6.165Y-4.28
X6.165Y-4.38
X6.165Y-4.48
X6.165Y-4.58
X6.165Y-4.68
X6.165Y-4.78
X6.165Y-4.88
X6.165Y-4.98
X6.165Y-5.08
X6.165Y-5.18
X6.165Y-5.28
X6.165Y-5.38
X6.165Y-5.48
X6.165Y-5.58
T4
X3.83Y-4.31
X3.83Y-4.625
X4.69Y-3.53
X4.69Y-3.63
X4.69Y-3.73
X4.69Y-3.83
X4.69Y-3.93
X4.69Y-4.03
X4.69Y-4.21
X4.69Y-4.31
X4.69Y-4.41
X4.69Y-4.51
X4.69Y-4.61
X4.69Y-4.71
X4.69Y-4.99
X4.69Y-5.09
X4.69Y-5.19
X4.69Y-5.29
X4.69Y-5.39
X4.69Y-5.49
X4.79Y-3.53
X4.79Y-3.63
X4.79Y-3.73
X4.79Y-3.83
X4.79Y-3.93
X4.79Y-4.03
X4.79Y-4.21
X4.79Y-4.31
X4.79Y-4.41
X4.79Y-4.51
X4.79Y-4.61
X4.79Y-4.71
X4.79Y-4.99
X4.79Y-5.09
X4.79Y-5.19
X4.79Y-5.29
X4.79Y-5.39
X4.79Y-5.49
X4.9448Y-3.1742
X4.9448Y-3.2742
X4.9448Y-3.3742
X4.9448Y-3.4742
X4.9448Y-3.5742
X4.9448Y-3.6742
X4.9448Y-3.7742
X4.9448Y-3.8742
X4.9448Y-3.9742
X4.9448Y-4.0742
X4.9448Y-4.1742
X4.9448Y-4.2742
X4.9448Y-4.3742
X4.9448Y-4.4742
X4.9448Y-4.5742
X4.9448Y-4.6742
X4.9448Y-4.7742
X4.9448Y-4.8742
X4.9448Y-4.9742
X4.9448Y-5.0742
X4.9448Y-5.1742
X4.9448Y-5.2742
X4.9448Y-5.3742
X4.9448Y-5.4742
X4.9448Y-5.5742
X5.0448Y-3.1742
X5.0448Y-3.2742
X5.0448Y-3.3742
X5.0448Y-3.4742
X5.0448Y-3.5742
X5.0448Y-3.6742
X5.0448Y-3.7742
X5.0448Y-3.8742
X5.0448Y-3.9742
X5.0448Y-4.0742
X5.0448Y-4.1742
X5.0448Y-4.2742
X5.0448Y-4.3742
X5.0448Y-4.4742
X5.0448Y-4.5742
X5.0448Y-4.6742
X5.0448Y-4.7742
X5.0448Y-4.8742
X5.0448Y-4.9742
X5.0448Y-5.0742
X5.0448Y-5.1742
X5.0448Y-5.2742
X5.0448Y-5.3742
X5.0448Y-5.4742
X5.0448Y-5.5742
X6.9448Y-3.173
X6.9448Y-3.273
X6.9448Y-3.373
X6.9448Y-3.473
X6.9448Y-3.573
X6.9448Y-3.673
X6.9448Y-3.773
X6.9448Y-3.873
X6.9448Y-3.973
X6.9448Y-4.073
X6.9448Y-4.173
X6.9448Y-4.273
X6.9448Y-4.373
X6.9448Y-4.473
X6.9448Y-4.573
X6.9448Y-4.673
X6.9448Y-4.773
X6.9448Y-4.873
X6.9448Y-4.973
X6.9448Y-5.073
X6.9448Y-5.173
X6.9448Y-5.273
X6.9448Y-5.373
X6.9448Y-5.473
X6.9448Y-5.573
X7.0448Y-3.173
X7.0448Y-3.273
X7.0448Y-3.373
X7.0448Y-3.473
X7.0448Y-3.573
X7.0448Y-3.673
X7.0448Y-3.773
X7.0448Y-3.873
X7.0448Y-3.973
X7.0448Y-4.073
X7.0448Y-4.173
X7.0448Y-4.273
X7.0448Y-4.373
X7.0448Y-4.473
X7.0448Y-4.573
X7.0448Y-4.673
X7.0448Y-4.773
X7.0448Y-4.873
X7.0448Y-4.973
X7.0448Y-5.073
X7.0448Y-5.173
X7.0448Y-5.273
X7.0448Y-5.373
X7.0448Y-5.473
X7.0448Y-5.573
T3
G00X3.8657Y-3.46
M15
G01X3.8343Y-3.46
M16
G05
G00X3.8657Y-4.0309
M15
G01X3.8343Y-4.0309
M16
G05
G00X4.1201Y-3.46
M15
G01X4.0492Y-3.46
M16
G05
G00X4.1201Y-4.0309
M15
G01X4.0492Y-4.0309
M16
G05
M30
