G04 #@! TF.GenerationSoftware,KiCad,Pcbnew,(6.0.9)*
G04 #@! TF.CreationDate,2024-06-02T20:06:45+02:00*
G04 #@! TF.ProjectId,Sombrero_MSX_Goa'uld_X,536f6d62-7265-4726-9f5f-4d53585f476f,rev?*
G04 #@! TF.SameCoordinates,Original*
G04 #@! TF.FileFunction,Soldermask,Top*
G04 #@! TF.FilePolarity,Negative*
%FSLAX46Y46*%
G04 Gerber Fmt 4.6, Leading zero omitted, Abs format (unit mm)*
G04 Created by KiCad (PCBNEW (6.0.9)) date 2024-06-02 20:06:45*
%MOMM*%
%LPD*%
G01*
G04 APERTURE LIST*
%ADD10R,1.600000X1.600000*%
%ADD11C,1.600000*%
%ADD12R,2.400000X1.600000*%
%ADD13O,2.400000X1.600000*%
%ADD14R,1.700000X1.700000*%
%ADD15O,1.700000X1.700000*%
%ADD16C,1.700000*%
%ADD17C,1.100000*%
%ADD18O,2.300000X1.500000*%
%ADD19O,1.600000X1.600000*%
%ADD20R,1.600000X2.400000*%
%ADD21O,1.600000X2.400000*%
G04 APERTURE END LIST*
D10*
X146050000Y-114300000D03*
D11*
X148550000Y-114300000D03*
D12*
X151130000Y-102870000D03*
D13*
X151130000Y-100330000D03*
X151130000Y-97790000D03*
X151130000Y-95250000D03*
X151130000Y-92710000D03*
X151130000Y-90170000D03*
X151130000Y-87630000D03*
X151130000Y-85090000D03*
X151130000Y-82550000D03*
X151130000Y-80010000D03*
X143510000Y-80010000D03*
X143510000Y-82550000D03*
X143510000Y-85090000D03*
X143510000Y-87630000D03*
X143510000Y-90170000D03*
X143510000Y-92710000D03*
X143510000Y-95250000D03*
X143510000Y-97790000D03*
X143510000Y-100330000D03*
X143510000Y-102870000D03*
D14*
X120650000Y-78740000D03*
D15*
X123190000Y-78740000D03*
X120650000Y-81280000D03*
X123190000Y-81280000D03*
X120650000Y-83820000D03*
X123190000Y-83820000D03*
X120650000Y-86360000D03*
X123190000Y-86360000D03*
X120650000Y-88900000D03*
X123190000Y-88900000D03*
X120650000Y-91440000D03*
X123190000Y-91440000D03*
X120650000Y-93980000D03*
X123190000Y-93980000D03*
X120650000Y-96520000D03*
X123190000Y-96520000D03*
X120650000Y-99060000D03*
X123190000Y-99060000D03*
X120650000Y-101600000D03*
X123190000Y-101600000D03*
X120650000Y-104140000D03*
X123190000Y-104140000D03*
X120650000Y-106680000D03*
X123190000Y-106680000D03*
X120650000Y-109220000D03*
X123190000Y-109220000D03*
X120650000Y-111760000D03*
X123190000Y-111760000D03*
X120650000Y-114300000D03*
X123190000Y-114300000D03*
X120650000Y-116840000D03*
X123190000Y-116840000D03*
X120650000Y-119380000D03*
X123190000Y-119380000D03*
X120650000Y-121920000D03*
X123190000Y-121920000D03*
X120650000Y-124460000D03*
X123190000Y-124460000D03*
X120650000Y-127000000D03*
X123190000Y-127000000D03*
X120650000Y-129540000D03*
X123190000Y-129540000D03*
X120650000Y-132080000D03*
X123190000Y-132080000D03*
X120650000Y-134620000D03*
X123190000Y-134620000D03*
X120650000Y-137160000D03*
X123190000Y-137160000D03*
X120650000Y-139700000D03*
X123190000Y-139700000D03*
D14*
X171450000Y-78710000D03*
D15*
X173990000Y-78710000D03*
X171450000Y-81250000D03*
X173990000Y-81250000D03*
X171450000Y-83790000D03*
X173990000Y-83790000D03*
X171450000Y-86330000D03*
X173990000Y-86330000D03*
X171450000Y-88870000D03*
X173990000Y-88870000D03*
X171450000Y-91410000D03*
X173990000Y-91410000D03*
X171450000Y-93950000D03*
X173990000Y-93950000D03*
X171450000Y-96490000D03*
X173990000Y-96490000D03*
X171450000Y-99030000D03*
X173990000Y-99030000D03*
X171450000Y-101570000D03*
X173990000Y-101570000D03*
X171450000Y-104110000D03*
X173990000Y-104110000D03*
X171450000Y-106650000D03*
X173990000Y-106650000D03*
X171450000Y-109190000D03*
X173990000Y-109190000D03*
X171450000Y-111730000D03*
X173990000Y-111730000D03*
X171450000Y-114270000D03*
X173990000Y-114270000D03*
X171450000Y-116810000D03*
X173990000Y-116810000D03*
X171450000Y-119350000D03*
X173990000Y-119350000D03*
X171450000Y-121890000D03*
X173990000Y-121890000D03*
X171450000Y-124430000D03*
X173990000Y-124430000D03*
X171450000Y-126970000D03*
X173990000Y-126970000D03*
X171450000Y-129510000D03*
X173990000Y-129510000D03*
X171450000Y-132050000D03*
X173990000Y-132050000D03*
X171450000Y-134590000D03*
X173990000Y-134590000D03*
X171450000Y-137130000D03*
X173990000Y-137130000D03*
X171450000Y-139670000D03*
X173990000Y-139670000D03*
D12*
X167640000Y-104140000D03*
D13*
X167640000Y-101600000D03*
X167640000Y-99060000D03*
X167640000Y-96520000D03*
X167640000Y-93980000D03*
X167640000Y-91440000D03*
X167640000Y-88900000D03*
X167640000Y-86360000D03*
X167640000Y-83820000D03*
X167640000Y-81280000D03*
X160020000Y-81280000D03*
X160020000Y-83820000D03*
X160020000Y-86360000D03*
X160020000Y-88900000D03*
X160020000Y-91440000D03*
X160020000Y-93980000D03*
X160020000Y-96520000D03*
X160020000Y-99060000D03*
X160020000Y-101600000D03*
X160020000Y-104140000D03*
D12*
X134620000Y-106680000D03*
D13*
X134620000Y-104140000D03*
X134620000Y-101600000D03*
X134620000Y-99060000D03*
X134620000Y-96520000D03*
X134620000Y-93980000D03*
X134620000Y-91440000D03*
X134620000Y-88900000D03*
X134620000Y-86360000D03*
X134620000Y-83820000D03*
X127000000Y-83820000D03*
X127000000Y-86360000D03*
X127000000Y-88900000D03*
X127000000Y-91440000D03*
X127000000Y-93980000D03*
X127000000Y-96520000D03*
X127000000Y-99060000D03*
X127000000Y-101600000D03*
X127000000Y-104140000D03*
X127000000Y-106680000D03*
D11*
X165060000Y-113030000D03*
X160060000Y-113030000D03*
D12*
X160005000Y-116840000D03*
D13*
X160005000Y-119380000D03*
X160005000Y-121920000D03*
X160005000Y-124460000D03*
X160005000Y-127000000D03*
X160005000Y-129540000D03*
X160005000Y-132080000D03*
X160005000Y-134620000D03*
X160005000Y-137160000D03*
X160005000Y-139700000D03*
X167625000Y-139700000D03*
X167625000Y-137160000D03*
X167625000Y-134620000D03*
X167625000Y-132080000D03*
X167625000Y-129540000D03*
X167625000Y-127000000D03*
X167625000Y-124460000D03*
X167625000Y-121920000D03*
X167625000Y-119380000D03*
X167625000Y-116840000D03*
D11*
X132080000Y-78740000D03*
X127080000Y-78740000D03*
D16*
X110800000Y-86340000D03*
D17*
X117300000Y-91090000D03*
X115800000Y-90340000D03*
X117300000Y-89590000D03*
X114300000Y-89590000D03*
X115800000Y-88840000D03*
X114300000Y-88090000D03*
X117300000Y-88090000D03*
X115800000Y-87340000D03*
X117300000Y-86590000D03*
X114300000Y-86590000D03*
X115800000Y-85840000D03*
X114300000Y-85090000D03*
X117300000Y-85090000D03*
X115800000Y-84340000D03*
X117300000Y-83590000D03*
X114300000Y-83590000D03*
X115800000Y-82840000D03*
X114300000Y-82090000D03*
X117300000Y-82090000D03*
D18*
X109080000Y-93940000D03*
X109080000Y-78740000D03*
D11*
X160075000Y-109215000D03*
X165075000Y-109215000D03*
X127080000Y-111785000D03*
X132080000Y-111785000D03*
D10*
X139710000Y-78740000D03*
D19*
X139710000Y-81280000D03*
X139710000Y-83820000D03*
X139710000Y-86360000D03*
X139710000Y-88900000D03*
X139710000Y-91440000D03*
X139710000Y-93980000D03*
X139710000Y-96520000D03*
X139710000Y-99060000D03*
X139710000Y-101600000D03*
X139710000Y-104140000D03*
X139710000Y-106680000D03*
X139710000Y-109220000D03*
X139710000Y-111760000D03*
X139710000Y-114300000D03*
X139710000Y-116840000D03*
X139710000Y-119380000D03*
X139710000Y-121920000D03*
X139710000Y-124460000D03*
X139710000Y-127000000D03*
X154950000Y-127000000D03*
X154950000Y-124460000D03*
X154950000Y-121920000D03*
X154950000Y-119380000D03*
X154950000Y-116840000D03*
X154950000Y-114300000D03*
X154950000Y-111760000D03*
X154950000Y-109220000D03*
X154950000Y-106680000D03*
X154950000Y-104140000D03*
X154950000Y-101600000D03*
X154950000Y-99060000D03*
X154950000Y-96520000D03*
X154950000Y-93980000D03*
X154950000Y-91440000D03*
X154950000Y-88900000D03*
X154950000Y-86360000D03*
X154950000Y-83820000D03*
X154950000Y-81280000D03*
X154950000Y-78740000D03*
D11*
X143495000Y-107950000D03*
X148495000Y-107950000D03*
X127000000Y-134620000D03*
X127000000Y-139620000D03*
D14*
X113030000Y-125730000D03*
D15*
X115570000Y-125730000D03*
X113030000Y-128270000D03*
X115570000Y-128270000D03*
X113030000Y-130810000D03*
X115570000Y-130810000D03*
X113030000Y-133350000D03*
X115570000Y-133350000D03*
X113030000Y-135890000D03*
X115570000Y-135890000D03*
X113030000Y-138430000D03*
X115570000Y-138430000D03*
D20*
X132070000Y-139695000D03*
D21*
X134610000Y-139695000D03*
X137150000Y-139695000D03*
X139690000Y-139695000D03*
X142230000Y-139695000D03*
X144770000Y-139695000D03*
X147310000Y-139695000D03*
X149850000Y-139695000D03*
X152390000Y-139695000D03*
X154930000Y-139695000D03*
X154930000Y-132075000D03*
X152390000Y-132075000D03*
X149850000Y-132075000D03*
X147310000Y-132075000D03*
X144770000Y-132075000D03*
X142230000Y-132075000D03*
X139690000Y-132075000D03*
X137150000Y-132075000D03*
X134610000Y-132075000D03*
X132070000Y-132075000D03*
D11*
X134620000Y-116840000D03*
D19*
X127000000Y-116840000D03*
D14*
X116840000Y-119380000D03*
D15*
X116840000Y-116840000D03*
X116840000Y-114300000D03*
X116840000Y-111760000D03*
X116840000Y-109220000D03*
X116840000Y-106680000D03*
X116840000Y-104140000D03*
X116840000Y-101600000D03*
X116840000Y-99060000D03*
M02*
