M48
; DRILL file {KiCad (6.0.9)} date Sun Jun  2 20:06:48 2024
; FORMAT={-:-/ absolute / metric / decimal}
; #@! TF.CreationDate,2024-06-02T20:06:48+02:00
; #@! TF.GenerationSoftware,Kicad,Pcbnew,(6.0.9)
; #@! TF.FileFunction,Plated,1,2,PTH
FMAT,2
METRIC
; #@! TA.AperFunction,Plated,PTH,ComponentDrill
T1C0.500
; #@! TA.AperFunction,Plated,PTH,ComponentDrill
T2C0.800
; #@! TA.AperFunction,Plated,PTH,ComponentDrill
T3C0.900
; #@! TA.AperFunction,Plated,PTH,ComponentDrill
T4C1.000
%
G90
G05
T1
X114.3Y-82.09
X114.3Y-83.59
X114.3Y-85.09
X114.3Y-86.59
X114.3Y-88.09
X114.3Y-89.59
X115.8Y-82.84
X115.8Y-84.34
X115.8Y-85.84
X115.8Y-87.34
X115.8Y-88.84
X115.8Y-90.34
X117.3Y-82.09
X117.3Y-83.59
X117.3Y-85.09
X117.3Y-86.59
X117.3Y-88.09
X117.3Y-89.59
X117.3Y-91.09
T2
X127.0Y-83.82
X127.0Y-86.36
X127.0Y-88.9
X127.0Y-91.44
X127.0Y-93.98
X127.0Y-96.52
X127.0Y-99.06
X127.0Y-101.6
X127.0Y-104.14
X127.0Y-106.68
X127.0Y-116.84
X127.0Y-134.62
X127.0Y-139.62
X127.08Y-78.74
X127.08Y-111.785
X132.07Y-132.075
X132.07Y-139.695
X132.08Y-78.74
X132.08Y-111.785
X134.61Y-132.075
X134.61Y-139.695
X134.62Y-83.82
X134.62Y-86.36
X134.62Y-88.9
X134.62Y-91.44
X134.62Y-93.98
X134.62Y-96.52
X134.62Y-99.06
X134.62Y-101.6
X134.62Y-104.14
X134.62Y-106.68
X134.62Y-116.84
X137.15Y-132.075
X137.15Y-139.695
X139.69Y-132.075
X139.69Y-139.695
X139.71Y-78.74
X139.71Y-81.28
X139.71Y-83.82
X139.71Y-86.36
X139.71Y-88.9
X139.71Y-91.44
X139.71Y-93.98
X139.71Y-96.52
X139.71Y-99.06
X139.71Y-101.6
X139.71Y-104.14
X139.71Y-106.68
X139.71Y-109.22
X139.71Y-111.76
X139.71Y-114.3
X139.71Y-116.84
X139.71Y-119.38
X139.71Y-121.92
X139.71Y-124.46
X139.71Y-127.0
X142.23Y-132.075
X142.23Y-139.695
X143.495Y-107.95
X143.51Y-80.01
X143.51Y-82.55
X143.51Y-85.09
X143.51Y-87.63
X143.51Y-90.17
X143.51Y-92.71
X143.51Y-95.25
X143.51Y-97.79
X143.51Y-100.33
X143.51Y-102.87
X144.77Y-132.075
X144.77Y-139.695
X146.05Y-114.3
X147.31Y-132.075
X147.31Y-139.695
X148.495Y-107.95
X148.55Y-114.3
X149.85Y-132.075
X149.85Y-139.695
X151.13Y-80.01
X151.13Y-82.55
X151.13Y-85.09
X151.13Y-87.63
X151.13Y-90.17
X151.13Y-92.71
X151.13Y-95.25
X151.13Y-97.79
X151.13Y-100.33
X151.13Y-102.87
X152.39Y-132.075
X152.39Y-139.695
X154.93Y-132.075
X154.93Y-139.695
X154.95Y-78.74
X154.95Y-81.28
X154.95Y-83.82
X154.95Y-86.36
X154.95Y-88.9
X154.95Y-91.44
X154.95Y-93.98
X154.95Y-96.52
X154.95Y-99.06
X154.95Y-101.6
X154.95Y-104.14
X154.95Y-106.68
X154.95Y-109.22
X154.95Y-111.76
X154.95Y-114.3
X154.95Y-116.84
X154.95Y-119.38
X154.95Y-121.92
X154.95Y-124.46
X154.95Y-127.0
X160.005Y-116.84
X160.005Y-119.38
X160.005Y-121.92
X160.005Y-124.46
X160.005Y-127.0
X160.005Y-129.54
X160.005Y-132.08
X160.005Y-134.62
X160.005Y-137.16
X160.005Y-139.7
X160.02Y-81.28
X160.02Y-83.82
X160.02Y-86.36
X160.02Y-88.9
X160.02Y-91.44
X160.02Y-93.98
X160.02Y-96.52
X160.02Y-99.06
X160.02Y-101.6
X160.02Y-104.14
X160.06Y-113.03
X160.075Y-109.215
X165.06Y-113.03
X165.075Y-109.215
X167.625Y-116.84
X167.625Y-119.38
X167.625Y-121.92
X167.625Y-124.46
X167.625Y-127.0
X167.625Y-129.54
X167.625Y-132.08
X167.625Y-134.62
X167.625Y-137.16
X167.625Y-139.7
X167.64Y-81.28
X167.64Y-83.82
X167.64Y-86.36
X167.64Y-88.9
X167.64Y-91.44
X167.64Y-93.98
X167.64Y-96.52
X167.64Y-99.06
X167.64Y-101.6
X167.64Y-104.14
T4
X113.03Y-125.73
X113.03Y-128.27
X113.03Y-130.81
X113.03Y-133.35
X113.03Y-135.89
X113.03Y-138.43
X115.57Y-125.73
X115.57Y-128.27
X115.57Y-130.81
X115.57Y-133.35
X115.57Y-135.89
X115.57Y-138.43
X116.84Y-99.06
X116.84Y-101.6
X116.84Y-104.14
X116.84Y-106.68
X116.84Y-109.22
X116.84Y-111.76
X116.84Y-114.3
X116.84Y-116.84
X116.84Y-119.38
X120.65Y-78.74
X120.65Y-81.28
X120.65Y-83.82
X120.65Y-86.36
X120.65Y-88.9
X120.65Y-91.44
X120.65Y-93.98
X120.65Y-96.52
X120.65Y-99.06
X120.65Y-101.6
X120.65Y-104.14
X120.65Y-106.68
X120.65Y-109.22
X120.65Y-111.76
X120.65Y-114.3
X120.65Y-116.84
X120.65Y-119.38
X120.65Y-121.92
X120.65Y-124.46
X120.65Y-127.0
X120.65Y-129.54
X120.65Y-132.08
X120.65Y-134.62
X120.65Y-137.16
X120.65Y-139.7
X123.19Y-78.74
X123.19Y-81.28
X123.19Y-83.82
X123.19Y-86.36
X123.19Y-88.9
X123.19Y-91.44
X123.19Y-93.98
X123.19Y-96.52
X123.19Y-99.06
X123.19Y-101.6
X123.19Y-104.14
X123.19Y-106.68
X123.19Y-109.22
X123.19Y-111.76
X123.19Y-114.3
X123.19Y-116.84
X123.19Y-119.38
X123.19Y-121.92
X123.19Y-124.46
X123.19Y-127.0
X123.19Y-129.54
X123.19Y-132.08
X123.19Y-134.62
X123.19Y-137.16
X123.19Y-139.7
X171.45Y-78.71
X171.45Y-81.25
X171.45Y-83.79
X171.45Y-86.33
X171.45Y-88.87
X171.45Y-91.41
X171.45Y-93.95
X171.45Y-96.49
X171.45Y-99.03
X171.45Y-101.57
X171.45Y-104.11
X171.45Y-106.65
X171.45Y-109.19
X171.45Y-111.73
X171.45Y-114.27
X171.45Y-116.81
X171.45Y-119.35
X171.45Y-121.89
X171.45Y-124.43
X171.45Y-126.97
X171.45Y-129.51
X171.45Y-132.05
X171.45Y-134.59
X171.45Y-137.13
X171.45Y-139.67
X173.99Y-78.71
X173.99Y-81.25
X173.99Y-83.79
X173.99Y-86.33
X173.99Y-88.87
X173.99Y-91.41
X173.99Y-93.95
X173.99Y-96.49
X173.99Y-99.03
X173.99Y-101.57
X173.99Y-104.11
X173.99Y-106.65
X173.99Y-109.19
X173.99Y-111.73
X173.99Y-114.27
X173.99Y-116.81
X173.99Y-119.35
X173.99Y-121.89
X173.99Y-124.43
X173.99Y-126.97
X173.99Y-129.51
X173.99Y-132.05
X173.99Y-134.59
X173.99Y-137.13
X173.99Y-139.67
T3
X109.48Y-78.74G85X108.68Y-78.74
G05
X109.48Y-93.94G85X108.68Y-93.94
G05
T0
M30
