G04 #@! TF.GenerationSoftware,KiCad,Pcbnew,(6.0.9)*
G04 #@! TF.CreationDate,2024-06-02T20:06:45+02:00*
G04 #@! TF.ProjectId,Sombrero_MSX_Goa'uld_X,536f6d62-7265-4726-9f5f-4d53585f476f,rev?*
G04 #@! TF.SameCoordinates,Original*
G04 #@! TF.FileFunction,Copper,L2,Bot*
G04 #@! TF.FilePolarity,Positive*
%FSLAX46Y46*%
G04 Gerber Fmt 4.6, Leading zero omitted, Abs format (unit mm)*
G04 Created by KiCad (PCBNEW (6.0.9)) date 2024-06-02 20:06:45*
%MOMM*%
%LPD*%
G01*
G04 APERTURE LIST*
G04 #@! TA.AperFunction,ComponentPad*
%ADD10R,1.600000X1.600000*%
G04 #@! TD*
G04 #@! TA.AperFunction,ComponentPad*
%ADD11C,1.600000*%
G04 #@! TD*
G04 #@! TA.AperFunction,ComponentPad*
%ADD12R,2.400000X1.600000*%
G04 #@! TD*
G04 #@! TA.AperFunction,ComponentPad*
%ADD13O,2.400000X1.600000*%
G04 #@! TD*
G04 #@! TA.AperFunction,ComponentPad*
%ADD14R,1.700000X1.700000*%
G04 #@! TD*
G04 #@! TA.AperFunction,ComponentPad*
%ADD15O,1.700000X1.700000*%
G04 #@! TD*
G04 #@! TA.AperFunction,ComponentPad*
%ADD16C,1.100000*%
G04 #@! TD*
G04 #@! TA.AperFunction,ComponentPad*
%ADD17O,2.300000X1.500000*%
G04 #@! TD*
G04 #@! TA.AperFunction,ComponentPad*
%ADD18O,1.600000X1.600000*%
G04 #@! TD*
G04 #@! TA.AperFunction,ComponentPad*
%ADD19R,1.600000X2.400000*%
G04 #@! TD*
G04 #@! TA.AperFunction,ComponentPad*
%ADD20O,1.600000X2.400000*%
G04 #@! TD*
G04 #@! TA.AperFunction,Conductor*
%ADD21C,0.300000*%
G04 #@! TD*
G04 #@! TA.AperFunction,Conductor*
%ADD22C,0.450000*%
G04 #@! TD*
G04 APERTURE END LIST*
D10*
X146050000Y-114300000D03*
D11*
X148550000Y-114300000D03*
D12*
X151130000Y-102870000D03*
D13*
X151130000Y-100330000D03*
X151130000Y-97790000D03*
X151130000Y-95250000D03*
X151130000Y-92710000D03*
X151130000Y-90170000D03*
X151130000Y-87630000D03*
X151130000Y-85090000D03*
X151130000Y-82550000D03*
X151130000Y-80010000D03*
X143510000Y-80010000D03*
X143510000Y-82550000D03*
X143510000Y-85090000D03*
X143510000Y-87630000D03*
X143510000Y-90170000D03*
X143510000Y-92710000D03*
X143510000Y-95250000D03*
X143510000Y-97790000D03*
X143510000Y-100330000D03*
X143510000Y-102870000D03*
D14*
X120650000Y-78740000D03*
D15*
X123190000Y-78740000D03*
X120650000Y-81280000D03*
X123190000Y-81280000D03*
X120650000Y-83820000D03*
X123190000Y-83820000D03*
X120650000Y-86360000D03*
X123190000Y-86360000D03*
X120650000Y-88900000D03*
X123190000Y-88900000D03*
X120650000Y-91440000D03*
X123190000Y-91440000D03*
X120650000Y-93980000D03*
X123190000Y-93980000D03*
X120650000Y-96520000D03*
X123190000Y-96520000D03*
X120650000Y-99060000D03*
X123190000Y-99060000D03*
X120650000Y-101600000D03*
X123190000Y-101600000D03*
X120650000Y-104140000D03*
X123190000Y-104140000D03*
X120650000Y-106680000D03*
X123190000Y-106680000D03*
X120650000Y-109220000D03*
X123190000Y-109220000D03*
X120650000Y-111760000D03*
X123190000Y-111760000D03*
X120650000Y-114300000D03*
X123190000Y-114300000D03*
X120650000Y-116840000D03*
X123190000Y-116840000D03*
X120650000Y-119380000D03*
X123190000Y-119380000D03*
X120650000Y-121920000D03*
X123190000Y-121920000D03*
X120650000Y-124460000D03*
X123190000Y-124460000D03*
X120650000Y-127000000D03*
X123190000Y-127000000D03*
X120650000Y-129540000D03*
X123190000Y-129540000D03*
X120650000Y-132080000D03*
X123190000Y-132080000D03*
X120650000Y-134620000D03*
X123190000Y-134620000D03*
X120650000Y-137160000D03*
X123190000Y-137160000D03*
X120650000Y-139700000D03*
X123190000Y-139700000D03*
D14*
X171450000Y-78710000D03*
D15*
X173990000Y-78710000D03*
X171450000Y-81250000D03*
X173990000Y-81250000D03*
X171450000Y-83790000D03*
X173990000Y-83790000D03*
X171450000Y-86330000D03*
X173990000Y-86330000D03*
X171450000Y-88870000D03*
X173990000Y-88870000D03*
X171450000Y-91410000D03*
X173990000Y-91410000D03*
X171450000Y-93950000D03*
X173990000Y-93950000D03*
X171450000Y-96490000D03*
X173990000Y-96490000D03*
X171450000Y-99030000D03*
X173990000Y-99030000D03*
X171450000Y-101570000D03*
X173990000Y-101570000D03*
X171450000Y-104110000D03*
X173990000Y-104110000D03*
X171450000Y-106650000D03*
X173990000Y-106650000D03*
X171450000Y-109190000D03*
X173990000Y-109190000D03*
X171450000Y-111730000D03*
X173990000Y-111730000D03*
X171450000Y-114270000D03*
X173990000Y-114270000D03*
X171450000Y-116810000D03*
X173990000Y-116810000D03*
X171450000Y-119350000D03*
X173990000Y-119350000D03*
X171450000Y-121890000D03*
X173990000Y-121890000D03*
X171450000Y-124430000D03*
X173990000Y-124430000D03*
X171450000Y-126970000D03*
X173990000Y-126970000D03*
X171450000Y-129510000D03*
X173990000Y-129510000D03*
X171450000Y-132050000D03*
X173990000Y-132050000D03*
X171450000Y-134590000D03*
X173990000Y-134590000D03*
X171450000Y-137130000D03*
X173990000Y-137130000D03*
X171450000Y-139670000D03*
X173990000Y-139670000D03*
D12*
X167640000Y-104140000D03*
D13*
X167640000Y-101600000D03*
X167640000Y-99060000D03*
X167640000Y-96520000D03*
X167640000Y-93980000D03*
X167640000Y-91440000D03*
X167640000Y-88900000D03*
X167640000Y-86360000D03*
X167640000Y-83820000D03*
X167640000Y-81280000D03*
X160020000Y-81280000D03*
X160020000Y-83820000D03*
X160020000Y-86360000D03*
X160020000Y-88900000D03*
X160020000Y-91440000D03*
X160020000Y-93980000D03*
X160020000Y-96520000D03*
X160020000Y-99060000D03*
X160020000Y-101600000D03*
X160020000Y-104140000D03*
D12*
X134620000Y-106680000D03*
D13*
X134620000Y-104140000D03*
X134620000Y-101600000D03*
X134620000Y-99060000D03*
X134620000Y-96520000D03*
X134620000Y-93980000D03*
X134620000Y-91440000D03*
X134620000Y-88900000D03*
X134620000Y-86360000D03*
X134620000Y-83820000D03*
X127000000Y-83820000D03*
X127000000Y-86360000D03*
X127000000Y-88900000D03*
X127000000Y-91440000D03*
X127000000Y-93980000D03*
X127000000Y-96520000D03*
X127000000Y-99060000D03*
X127000000Y-101600000D03*
X127000000Y-104140000D03*
X127000000Y-106680000D03*
D11*
X165060000Y-113030000D03*
X160060000Y-113030000D03*
D12*
X160005000Y-116840000D03*
D13*
X160005000Y-119380000D03*
X160005000Y-121920000D03*
X160005000Y-124460000D03*
X160005000Y-127000000D03*
X160005000Y-129540000D03*
X160005000Y-132080000D03*
X160005000Y-134620000D03*
X160005000Y-137160000D03*
X160005000Y-139700000D03*
X167625000Y-139700000D03*
X167625000Y-137160000D03*
X167625000Y-134620000D03*
X167625000Y-132080000D03*
X167625000Y-129540000D03*
X167625000Y-127000000D03*
X167625000Y-124460000D03*
X167625000Y-121920000D03*
X167625000Y-119380000D03*
X167625000Y-116840000D03*
D11*
X132080000Y-78740000D03*
X127080000Y-78740000D03*
D16*
X117300000Y-91090000D03*
X115800000Y-90340000D03*
X117300000Y-89590000D03*
X114300000Y-89590000D03*
X115800000Y-88840000D03*
X114300000Y-88090000D03*
X117300000Y-88090000D03*
X115800000Y-87340000D03*
X117300000Y-86590000D03*
X114300000Y-86590000D03*
X115800000Y-85840000D03*
X114300000Y-85090000D03*
X117300000Y-85090000D03*
X115800000Y-84340000D03*
X117300000Y-83590000D03*
X114300000Y-83590000D03*
X115800000Y-82840000D03*
X114300000Y-82090000D03*
X117300000Y-82090000D03*
D17*
X109080000Y-93940000D03*
X109080000Y-78740000D03*
D11*
X160075000Y-109215000D03*
X165075000Y-109215000D03*
X127080000Y-111785000D03*
X132080000Y-111785000D03*
D10*
X139710000Y-78740000D03*
D18*
X139710000Y-81280000D03*
X139710000Y-83820000D03*
X139710000Y-86360000D03*
X139710000Y-88900000D03*
X139710000Y-91440000D03*
X139710000Y-93980000D03*
X139710000Y-96520000D03*
X139710000Y-99060000D03*
X139710000Y-101600000D03*
X139710000Y-104140000D03*
X139710000Y-106680000D03*
X139710000Y-109220000D03*
X139710000Y-111760000D03*
X139710000Y-114300000D03*
X139710000Y-116840000D03*
X139710000Y-119380000D03*
X139710000Y-121920000D03*
X139710000Y-124460000D03*
X139710000Y-127000000D03*
X154950000Y-127000000D03*
X154950000Y-124460000D03*
X154950000Y-121920000D03*
X154950000Y-119380000D03*
X154950000Y-116840000D03*
X154950000Y-114300000D03*
X154950000Y-111760000D03*
X154950000Y-109220000D03*
X154950000Y-106680000D03*
X154950000Y-104140000D03*
X154950000Y-101600000D03*
X154950000Y-99060000D03*
X154950000Y-96520000D03*
X154950000Y-93980000D03*
X154950000Y-91440000D03*
X154950000Y-88900000D03*
X154950000Y-86360000D03*
X154950000Y-83820000D03*
X154950000Y-81280000D03*
X154950000Y-78740000D03*
D11*
X143495000Y-107950000D03*
X148495000Y-107950000D03*
X127000000Y-134620000D03*
X127000000Y-139620000D03*
D14*
X113030000Y-125730000D03*
D15*
X115570000Y-125730000D03*
X113030000Y-128270000D03*
X115570000Y-128270000D03*
X113030000Y-130810000D03*
X115570000Y-130810000D03*
X113030000Y-133350000D03*
X115570000Y-133350000D03*
X113030000Y-135890000D03*
X115570000Y-135890000D03*
X113030000Y-138430000D03*
X115570000Y-138430000D03*
D19*
X132070000Y-139695000D03*
D20*
X134610000Y-139695000D03*
X137150000Y-139695000D03*
X139690000Y-139695000D03*
X142230000Y-139695000D03*
X144770000Y-139695000D03*
X147310000Y-139695000D03*
X149850000Y-139695000D03*
X152390000Y-139695000D03*
X154930000Y-139695000D03*
X154930000Y-132075000D03*
X152390000Y-132075000D03*
X149850000Y-132075000D03*
X147310000Y-132075000D03*
X144770000Y-132075000D03*
X142230000Y-132075000D03*
X139690000Y-132075000D03*
X137150000Y-132075000D03*
X134610000Y-132075000D03*
X132070000Y-132075000D03*
D11*
X134620000Y-116840000D03*
D18*
X127000000Y-116840000D03*
D14*
X116840000Y-119380000D03*
D15*
X116840000Y-116840000D03*
X116840000Y-114300000D03*
X116840000Y-111760000D03*
X116840000Y-109220000D03*
X116840000Y-106680000D03*
X116840000Y-104140000D03*
X116840000Y-101600000D03*
X116840000Y-99060000D03*
D21*
X119449900Y-88739900D02*
X117300000Y-86590000D01*
X119449900Y-94494900D02*
X119449900Y-88739900D01*
X120274900Y-95319900D02*
X119449900Y-94494900D01*
X120650000Y-95319900D02*
X120274900Y-95319900D01*
X120650000Y-96520000D02*
X120650000Y-95319900D01*
X114300000Y-92710000D02*
X114300000Y-89590000D01*
X120650000Y-99060000D02*
X114300000Y-92710000D01*
X120292600Y-100399900D02*
X120650000Y-100399900D01*
X113368000Y-93475300D02*
X120292600Y-100399900D01*
X113368000Y-89022000D02*
X113368000Y-93475300D01*
X114300000Y-88090000D02*
X113368000Y-89022000D01*
X120650000Y-101600000D02*
X120650000Y-100399900D01*
X121023000Y-105479900D02*
X120650000Y-105479900D01*
X121920000Y-104582900D02*
X121023000Y-105479900D01*
X121920000Y-98572500D02*
X121920000Y-104582900D01*
X121207300Y-97859800D02*
X121920000Y-98572500D01*
X120290800Y-97859800D02*
X121207300Y-97859800D01*
X117300000Y-94869000D02*
X120290800Y-97859800D01*
X117300000Y-91090000D02*
X117300000Y-94869000D01*
X120650000Y-106680000D02*
X120650000Y-105479900D01*
X123190000Y-91440000D02*
X123190000Y-90239900D01*
X122817000Y-90239900D02*
X123190000Y-90239900D01*
X121877800Y-89300700D02*
X122817000Y-90239900D01*
X121877800Y-88414400D02*
X121877800Y-89300700D01*
X121093400Y-87630000D02*
X121877800Y-88414400D01*
X120168800Y-87630000D02*
X121093400Y-87630000D01*
X118691300Y-86152500D02*
X120168800Y-87630000D01*
X118691300Y-82178000D02*
X118691300Y-86152500D01*
X117677100Y-81163800D02*
X118691300Y-82178000D01*
X113924000Y-81163800D02*
X117677100Y-81163800D01*
X113386700Y-81701100D02*
X113924000Y-81163800D01*
X113386700Y-84176700D02*
X113386700Y-81701100D01*
X114300000Y-85090000D02*
X113386700Y-84176700D01*
X121850100Y-91813000D02*
X121850100Y-91440000D01*
X122747100Y-92710000D02*
X121850100Y-91813000D01*
X123665000Y-92710000D02*
X122747100Y-92710000D01*
X124425200Y-91949800D02*
X123665000Y-92710000D01*
X124425200Y-88414100D02*
X124425200Y-91949800D01*
X123641100Y-87630000D02*
X124425200Y-88414100D01*
X122677900Y-87630000D02*
X123641100Y-87630000D01*
X121850100Y-86802200D02*
X122677900Y-87630000D01*
X121850100Y-85803600D02*
X121850100Y-86802200D01*
X121136500Y-85090000D02*
X121850100Y-85803600D01*
X120218700Y-85090000D02*
X121136500Y-85090000D01*
X119261300Y-84132600D02*
X120218700Y-85090000D01*
X119261300Y-82006200D02*
X119261300Y-84132600D01*
X117915100Y-80660000D02*
X119261300Y-82006200D01*
X113641200Y-80660000D02*
X117915100Y-80660000D01*
X112871600Y-81429600D02*
X113641200Y-80660000D01*
X112871600Y-85161600D02*
X112871600Y-81429600D01*
X114300000Y-86590000D02*
X112871600Y-85161600D01*
X120650000Y-91440000D02*
X121850100Y-91440000D01*
X119950100Y-113099900D02*
X120650000Y-113099900D01*
X117270300Y-110420100D02*
X119950100Y-113099900D01*
X116840000Y-110420100D02*
X117270300Y-110420100D01*
X116840000Y-109220000D02*
X116840000Y-110420100D01*
X120650000Y-114300000D02*
X120650000Y-113099900D01*
X120277000Y-120719900D02*
X120650000Y-120719900D01*
X119310200Y-119753100D02*
X120277000Y-120719900D01*
X119310200Y-115027700D02*
X119310200Y-119753100D01*
X117312500Y-113030000D02*
X119310200Y-115027700D01*
X116376800Y-113030000D02*
X117312500Y-113030000D01*
X115618500Y-112271700D02*
X116376800Y-113030000D01*
X115618500Y-103646600D02*
X115618500Y-112271700D01*
X116465000Y-102800100D02*
X115618500Y-103646600D01*
X116840000Y-102800100D02*
X116465000Y-102800100D01*
X116840000Y-101600000D02*
X116840000Y-102800100D01*
X120650000Y-121920000D02*
X120650000Y-120719900D01*
X121023000Y-118179900D02*
X120650000Y-118179900D01*
X121920000Y-117282900D02*
X121023000Y-118179900D01*
X121920000Y-111302700D02*
X121920000Y-117282900D01*
X121177100Y-110559800D02*
X121920000Y-111302700D01*
X120221700Y-110559800D02*
X121177100Y-110559800D01*
X117542000Y-107880100D02*
X120221700Y-110559800D01*
X116840000Y-107880100D02*
X117542000Y-107880100D01*
X116840000Y-106680000D02*
X116840000Y-107880100D01*
X120650000Y-119380000D02*
X120650000Y-118179900D01*
X171924900Y-100330000D02*
X151130000Y-100330000D01*
X172789900Y-101195000D02*
X171924900Y-100330000D01*
X172789900Y-101570000D02*
X172789900Y-101195000D01*
X173990000Y-101570000D02*
X172789900Y-101570000D01*
X171924900Y-97790000D02*
X151130000Y-97790000D01*
X172789900Y-98655000D02*
X171924900Y-97790000D01*
X172789900Y-99030000D02*
X172789900Y-98655000D01*
X173990000Y-99030000D02*
X172789900Y-99030000D01*
X171924900Y-95250000D02*
X151130000Y-95250000D01*
X172789900Y-96115000D02*
X171924900Y-95250000D01*
X172789900Y-96490000D02*
X172789900Y-96115000D01*
X173990000Y-96490000D02*
X172789900Y-96490000D01*
X171924900Y-92710000D02*
X151130000Y-92710000D01*
X172789900Y-93575000D02*
X171924900Y-92710000D01*
X172789900Y-93950000D02*
X172789900Y-93575000D01*
X173990000Y-93950000D02*
X172789900Y-93950000D01*
X154930000Y-132075000D02*
X154930000Y-130524900D01*
X154950000Y-109220000D02*
X154950000Y-110370100D01*
X156616300Y-128838600D02*
X154930000Y-130524900D01*
X156616300Y-111798100D02*
X156616300Y-128838600D01*
X155188300Y-110370100D02*
X156616300Y-111798100D01*
X154950000Y-110370100D02*
X155188300Y-110370100D01*
X155188300Y-112910100D02*
X154950000Y-112910100D01*
X156105000Y-113826800D02*
X155188300Y-112910100D01*
X156105000Y-127488100D02*
X156105000Y-113826800D01*
X153068200Y-130524900D02*
X156105000Y-127488100D01*
X152390000Y-130524900D02*
X153068200Y-130524900D01*
X152390000Y-132075000D02*
X152390000Y-130524900D01*
X154950000Y-111760000D02*
X154950000Y-112910100D01*
X133069900Y-108230100D02*
X133069900Y-106680000D01*
X127000000Y-114300000D02*
X133069900Y-108230100D01*
X127000000Y-116840000D02*
X127000000Y-114300000D01*
X134620000Y-106680000D02*
X133069900Y-106680000D01*
X145060100Y-91587200D02*
X145060100Y-97790000D01*
X150287300Y-86360000D02*
X145060100Y-91587200D01*
X152410000Y-86360000D02*
X150287300Y-86360000D01*
X154950000Y-83820000D02*
X152410000Y-86360000D01*
X143510000Y-97790000D02*
X145060100Y-97790000D01*
X141959900Y-84392400D02*
X141959900Y-87630000D01*
X139997600Y-82430100D02*
X141959900Y-84392400D01*
X139710000Y-82430100D02*
X139997600Y-82430100D01*
X139710000Y-81280000D02*
X139710000Y-82430100D01*
X143510000Y-87630000D02*
X141959900Y-87630000D01*
X139336700Y-90170000D02*
X143510000Y-90170000D01*
X137998500Y-88831800D02*
X139336700Y-90170000D01*
X137998500Y-80451500D02*
X137998500Y-88831800D01*
X139710000Y-78740000D02*
X137998500Y-80451500D01*
X139298600Y-80010000D02*
X143510000Y-80010000D01*
X138550000Y-80758600D02*
X139298600Y-80010000D01*
X138550000Y-86877400D02*
X138550000Y-80758600D01*
X139422500Y-87749900D02*
X138550000Y-86877400D01*
X139710000Y-87749900D02*
X139422500Y-87749900D01*
X139710000Y-88900000D02*
X139710000Y-87749900D01*
X139948300Y-100449900D02*
X139710000Y-100449900D01*
X140860100Y-99538100D02*
X139948300Y-100449900D01*
X140860100Y-96027800D02*
X140860100Y-99538100D01*
X140082300Y-95250000D02*
X140860100Y-96027800D01*
X139304400Y-95250000D02*
X140082300Y-95250000D01*
X136170100Y-92115700D02*
X139304400Y-95250000D01*
X136170100Y-88900000D02*
X136170100Y-92115700D01*
X134620000Y-88900000D02*
X136170100Y-88900000D01*
X139710000Y-101600000D02*
X139710000Y-100449900D01*
X137476300Y-94296300D02*
X134620000Y-91440000D01*
X137476300Y-95933300D02*
X137476300Y-94296300D01*
X139452900Y-97909900D02*
X137476300Y-95933300D01*
X139710000Y-97909900D02*
X139452900Y-97909900D01*
X139710000Y-99060000D02*
X139710000Y-97909900D01*
X137356500Y-101796500D02*
X134620000Y-99060000D01*
X137356500Y-103463900D02*
X137356500Y-101796500D01*
X139422500Y-105529900D02*
X137356500Y-103463900D01*
X139710000Y-105529900D02*
X139422500Y-105529900D01*
X139710000Y-106680000D02*
X139710000Y-105529900D01*
X136170100Y-109897600D02*
X136170100Y-101600000D01*
X139422400Y-113149900D02*
X136170100Y-109897600D01*
X139710000Y-113149900D02*
X139422400Y-113149900D01*
X139710000Y-114300000D02*
X139710000Y-113149900D01*
X134620000Y-101600000D02*
X136170100Y-101600000D01*
X158454900Y-110998300D02*
X158454900Y-119380000D01*
X155406600Y-107950000D02*
X158454900Y-110998300D01*
X153167800Y-107950000D02*
X155406600Y-107950000D01*
X144216400Y-98998600D02*
X153167800Y-107950000D01*
X142673500Y-98998600D02*
X144216400Y-98998600D01*
X141603000Y-97928100D02*
X142673500Y-98998600D01*
X141603000Y-94195600D02*
X141603000Y-97928100D01*
X139997500Y-92590100D02*
X141603000Y-94195600D01*
X139710000Y-92590100D02*
X139997500Y-92590100D01*
X139710000Y-91440000D02*
X139710000Y-92590100D01*
X160005000Y-119380000D02*
X158454900Y-119380000D01*
X154711700Y-125610100D02*
X154950000Y-125610100D01*
X149850000Y-130471800D02*
X154711700Y-125610100D01*
X149850000Y-132075000D02*
X149850000Y-130471800D01*
X154950000Y-124460000D02*
X154950000Y-125610100D01*
X139690000Y-128170100D02*
X139710000Y-128150100D01*
X139690000Y-132075000D02*
X139690000Y-128170100D01*
X139710000Y-127000000D02*
X139710000Y-128150100D01*
X139471700Y-125610100D02*
X139710000Y-125610100D01*
X137150000Y-127931800D02*
X139471700Y-125610100D01*
X137150000Y-132075000D02*
X137150000Y-127931800D01*
X139710000Y-124460000D02*
X139710000Y-125610100D01*
X171924900Y-90170000D02*
X151130000Y-90170000D01*
X172789900Y-91035000D02*
X171924900Y-90170000D01*
X172789900Y-91410000D02*
X172789900Y-91035000D01*
X173990000Y-91410000D02*
X172789900Y-91410000D01*
X171924900Y-87630000D02*
X151130000Y-87630000D01*
X172789900Y-88495000D02*
X171924900Y-87630000D01*
X172789900Y-88870000D02*
X172789900Y-88495000D01*
X173990000Y-88870000D02*
X172789900Y-88870000D01*
X152680100Y-84438100D02*
X152680100Y-85090000D01*
X154454900Y-82663300D02*
X152680100Y-84438100D01*
X162894500Y-82663300D02*
X154454900Y-82663300D01*
X165361100Y-85129900D02*
X162894500Y-82663300D01*
X171964900Y-85129900D02*
X165361100Y-85129900D01*
X172789900Y-85954900D02*
X171964900Y-85129900D01*
X172789900Y-86330000D02*
X172789900Y-85954900D01*
X173990000Y-86330000D02*
X172789900Y-86330000D01*
X151130000Y-85090000D02*
X152680100Y-85090000D01*
X149579900Y-79533400D02*
X149579900Y-82550000D01*
X151531400Y-77581900D02*
X149579900Y-79533400D01*
X164637100Y-77581900D02*
X151531400Y-77581900D01*
X166965400Y-79910200D02*
X164637100Y-77581900D01*
X171864000Y-79910200D02*
X166965400Y-79910200D01*
X172789900Y-80836100D02*
X171864000Y-79910200D01*
X172789900Y-81764900D02*
X172789900Y-80836100D01*
X173614900Y-82589900D02*
X172789900Y-81764900D01*
X173990000Y-82589900D02*
X173614900Y-82589900D01*
X173990000Y-83790000D02*
X173990000Y-82589900D01*
X151130000Y-82550000D02*
X149579900Y-82550000D01*
D22*
X143510000Y-102870000D02*
X141884900Y-102870000D01*
X141884900Y-104140000D02*
X141884900Y-102870000D01*
X141884900Y-106339900D02*
X141884900Y-104140000D01*
X143495000Y-107950000D02*
X141884900Y-106339900D01*
X143495000Y-110519900D02*
X143495000Y-107950000D01*
X146050000Y-113074900D02*
X143495000Y-110519900D01*
X132070000Y-134620000D02*
X127000000Y-134620000D01*
X132070000Y-139695000D02*
X132070000Y-134620000D01*
X132070000Y-134620000D02*
X132070000Y-132075000D01*
X139202300Y-123145100D02*
X139710000Y-123145100D01*
X132070000Y-130277400D02*
X139202300Y-123145100D01*
X132070000Y-132075000D02*
X132070000Y-130277400D01*
X139710000Y-121920000D02*
X139710000Y-123145100D01*
X146050000Y-113687400D02*
X146050000Y-113074900D01*
X146050000Y-113687400D02*
X146050000Y-114300000D01*
X139710000Y-121920000D02*
X139710000Y-120694900D01*
X146050000Y-114300000D02*
X146050000Y-115525100D01*
X140880200Y-120694900D02*
X139710000Y-120694900D01*
X146050000Y-115525100D02*
X140880200Y-120694900D01*
X152444900Y-121920000D02*
X154950000Y-121920000D01*
X146050000Y-115525100D02*
X152444900Y-121920000D01*
X139710000Y-104140000D02*
X141884900Y-104140000D01*
X132080000Y-96170700D02*
X132080000Y-78740000D01*
X133699300Y-97790000D02*
X132080000Y-96170700D01*
X135499800Y-97790000D02*
X133699300Y-97790000D01*
X137014100Y-99304300D02*
X135499800Y-97790000D01*
X137014100Y-100640600D02*
X137014100Y-99304300D01*
X139288400Y-102914900D02*
X137014100Y-100640600D01*
X139710000Y-102914900D02*
X139288400Y-102914900D01*
X139710000Y-104140000D02*
X139710000Y-102914900D01*
X157124900Y-102870000D02*
X158394900Y-104140000D01*
X151130000Y-102870000D02*
X157124900Y-102870000D01*
X160020000Y-104140000D02*
X158394900Y-104140000D01*
X148495000Y-114245000D02*
X148550000Y-114300000D01*
X148495000Y-107950000D02*
X148495000Y-114245000D01*
X115800000Y-85840000D02*
X115800000Y-87340000D01*
X115800000Y-87340000D02*
X115800000Y-88840000D01*
X115800000Y-88840000D02*
X115800000Y-90340000D01*
X173990000Y-139670000D02*
X171450000Y-139670000D01*
X171450000Y-139670000D02*
X170174900Y-139670000D01*
X148495000Y-105315000D02*
X148495000Y-107950000D01*
X143510000Y-100330000D02*
X148495000Y-105315000D01*
X115570000Y-128270000D02*
X116845100Y-128270000D01*
X116845100Y-135895100D02*
X120650000Y-139700000D01*
X116845100Y-128270000D02*
X116845100Y-135895100D01*
X165999900Y-125170200D02*
X161630100Y-129540000D01*
X165999900Y-119380000D02*
X165999900Y-125170200D01*
X167625000Y-119380000D02*
X165999900Y-119380000D01*
X160817600Y-132080000D02*
X160817600Y-129540000D01*
X160005000Y-129540000D02*
X160817600Y-129540000D01*
X160817600Y-129540000D02*
X161630100Y-129540000D01*
X160005000Y-139700000D02*
X160817600Y-139700000D01*
X161630100Y-138887500D02*
X161630100Y-138430000D01*
X160817600Y-139700000D02*
X161630100Y-138887500D01*
X168934900Y-138430000D02*
X161630100Y-138430000D01*
X170174900Y-139670000D02*
X168934900Y-138430000D01*
X161630100Y-138430000D02*
X161630100Y-137160000D01*
X160411300Y-134620000D02*
X160411300Y-137160000D01*
X160005000Y-137160000D02*
X160411300Y-137160000D01*
X160411300Y-137160000D02*
X161630100Y-137160000D01*
X160208200Y-134620000D02*
X160208200Y-132080000D01*
X160005000Y-134620000D02*
X160208200Y-134620000D01*
X160208200Y-134620000D02*
X160411300Y-134620000D01*
X160005000Y-132080000D02*
X160208200Y-132080000D01*
X160208200Y-132080000D02*
X160817600Y-132080000D01*
X118115200Y-126999900D02*
X116845100Y-128270000D01*
X118115200Y-118115200D02*
X118115200Y-126999900D01*
X116840000Y-116840000D02*
X118115200Y-118115200D01*
X154930000Y-141320100D02*
X142230000Y-141320100D01*
X154930000Y-139695000D02*
X154930000Y-141320100D01*
X142230000Y-139695000D02*
X142230000Y-141320100D01*
X162500000Y-111790000D02*
X165075000Y-109215000D01*
X160060000Y-111790000D02*
X162500000Y-111790000D01*
X160060000Y-113030000D02*
X160060000Y-111790000D01*
X156175100Y-107905100D02*
X156175100Y-106680000D01*
X160060000Y-111790000D02*
X156175100Y-107905100D01*
X154950000Y-106680000D02*
X156175100Y-106680000D01*
X164744900Y-80010000D02*
X166014900Y-81280000D01*
X151130000Y-80010000D02*
X164744900Y-80010000D01*
X167640000Y-81280000D02*
X166014900Y-81280000D01*
X165999900Y-113969900D02*
X165060000Y-113030000D01*
X165999900Y-116840000D02*
X165999900Y-113969900D01*
X167625000Y-116840000D02*
X165999900Y-116840000D01*
X160005000Y-116840000D02*
X165999900Y-116840000D01*
X127000000Y-106680000D02*
X126187500Y-106680000D01*
X127080000Y-107572500D02*
X127080000Y-111785000D01*
X126187500Y-106680000D02*
X127080000Y-107572500D01*
X115570000Y-125730000D02*
X115570000Y-124454900D01*
X116840000Y-119380000D02*
X115564900Y-119380000D01*
X115564900Y-124449800D02*
X115570000Y-124454900D01*
X115564900Y-119380000D02*
X115564900Y-124449800D01*
X121884800Y-77434800D02*
X123190000Y-78740000D01*
X116053000Y-77434800D02*
X121884800Y-77434800D01*
X112296400Y-81191400D02*
X116053000Y-77434800D01*
X112296400Y-116111500D02*
X112296400Y-81191400D01*
X115564900Y-119380000D02*
X112296400Y-116111500D01*
X125327900Y-105820400D02*
X126187500Y-106680000D01*
X125327900Y-80591400D02*
X125327900Y-105820400D01*
X124465100Y-79728600D02*
X125327900Y-80591400D01*
X124465100Y-78740000D02*
X124465100Y-79728600D01*
X172234200Y-76954200D02*
X173990000Y-78710000D01*
X130635300Y-76954200D02*
X172234200Y-76954200D01*
X126998100Y-80591400D02*
X130635300Y-76954200D01*
X125327900Y-80591400D02*
X126998100Y-80591400D01*
X123190000Y-78740000D02*
X124465100Y-78740000D01*
M02*
