G04 #@! TF.GenerationSoftware,KiCad,Pcbnew,(6.0.9)*
G04 #@! TF.CreationDate,2024-06-02T20:06:45+02:00*
G04 #@! TF.ProjectId,Sombrero_MSX_Goa'uld_X,536f6d62-7265-4726-9f5f-4d53585f476f,rev?*
G04 #@! TF.SameCoordinates,Original*
G04 #@! TF.FileFunction,Legend,Top*
G04 #@! TF.FilePolarity,Positive*
%FSLAX46Y46*%
G04 Gerber Fmt 4.6, Leading zero omitted, Abs format (unit mm)*
G04 Created by KiCad (PCBNEW (6.0.9)) date 2024-06-02 20:06:45*
%MOMM*%
%LPD*%
G01*
G04 APERTURE LIST*
%ADD10C,0.150000*%
%ADD11C,0.120000*%
%ADD12C,0.096520*%
%ADD13R,1.600000X1.600000*%
%ADD14C,1.600000*%
%ADD15R,2.400000X1.600000*%
%ADD16O,2.400000X1.600000*%
%ADD17R,1.700000X1.700000*%
%ADD18O,1.700000X1.700000*%
%ADD19C,1.700000*%
%ADD20C,1.100000*%
%ADD21O,2.300000X1.500000*%
%ADD22O,1.600000X1.600000*%
%ADD23R,1.600000X2.400000*%
%ADD24O,1.600000X2.400000*%
G04 APERTURE END LIST*
D10*
X115911428Y-77922380D02*
X115911428Y-76922380D01*
X116149523Y-76922380D01*
X116292380Y-76970000D01*
X116387619Y-77065238D01*
X116435238Y-77160476D01*
X116482857Y-77350952D01*
X116482857Y-77493809D01*
X116435238Y-77684285D01*
X116387619Y-77779523D01*
X116292380Y-77874761D01*
X116149523Y-77922380D01*
X115911428Y-77922380D01*
X116768571Y-76922380D02*
X117101904Y-77922380D01*
X117435238Y-76922380D01*
X117768571Y-77922380D02*
X117768571Y-76922380D01*
D11*
X119106904Y-99688571D02*
X118306904Y-99688571D01*
X119106904Y-99231428D01*
X118306904Y-99231428D01*
X119030714Y-98393333D02*
X119068809Y-98431428D01*
X119106904Y-98545714D01*
X119106904Y-98621904D01*
X119068809Y-98736190D01*
X118992619Y-98812380D01*
X118916428Y-98850476D01*
X118764047Y-98888571D01*
X118649761Y-98888571D01*
X118497380Y-98850476D01*
X118421190Y-98812380D01*
X118345000Y-98736190D01*
X118306904Y-98621904D01*
X118306904Y-98545714D01*
X118345000Y-98431428D01*
X118383095Y-98393333D01*
X119106904Y-102190476D02*
X118306904Y-102190476D01*
X118306904Y-102000000D01*
X118345000Y-101885714D01*
X118421190Y-101809523D01*
X118497380Y-101771428D01*
X118649761Y-101733333D01*
X118764047Y-101733333D01*
X118916428Y-101771428D01*
X118992619Y-101809523D01*
X119068809Y-101885714D01*
X119106904Y-102000000D01*
X119106904Y-102190476D01*
X118383095Y-101428571D02*
X118345000Y-101390476D01*
X118306904Y-101314285D01*
X118306904Y-101123809D01*
X118345000Y-101047619D01*
X118383095Y-101009523D01*
X118459285Y-100971428D01*
X118535476Y-100971428D01*
X118649761Y-101009523D01*
X119106904Y-101466666D01*
X119106904Y-100971428D01*
D10*
X114601714Y-95718380D02*
X115173142Y-95718380D01*
X114887428Y-96718380D02*
X114887428Y-95718380D01*
X115839809Y-96194571D02*
X115506476Y-96194571D01*
X115506476Y-96718380D02*
X115506476Y-95718380D01*
X115982666Y-95718380D01*
D11*
X119106904Y-112350476D02*
X118306904Y-112350476D01*
X118306904Y-112160000D01*
X118345000Y-112045714D01*
X118421190Y-111969523D01*
X118497380Y-111931428D01*
X118649761Y-111893333D01*
X118764047Y-111893333D01*
X118916428Y-111931428D01*
X118992619Y-111969523D01*
X119068809Y-112045714D01*
X119106904Y-112160000D01*
X119106904Y-112350476D01*
X118306904Y-111398095D02*
X118306904Y-111321904D01*
X118345000Y-111245714D01*
X118383095Y-111207619D01*
X118459285Y-111169523D01*
X118611666Y-111131428D01*
X118802142Y-111131428D01*
X118954523Y-111169523D01*
X119030714Y-111207619D01*
X119068809Y-111245714D01*
X119106904Y-111321904D01*
X119106904Y-111398095D01*
X119068809Y-111474285D01*
X119030714Y-111512380D01*
X118954523Y-111550476D01*
X118802142Y-111588571D01*
X118611666Y-111588571D01*
X118459285Y-111550476D01*
X118383095Y-111512380D01*
X118345000Y-111474285D01*
X118306904Y-111398095D01*
X119030714Y-109829523D02*
X119068809Y-109867619D01*
X119106904Y-109981904D01*
X119106904Y-110058095D01*
X119068809Y-110172380D01*
X118992619Y-110248571D01*
X118916428Y-110286666D01*
X118764047Y-110324761D01*
X118649761Y-110324761D01*
X118497380Y-110286666D01*
X118421190Y-110248571D01*
X118345000Y-110172380D01*
X118306904Y-110058095D01*
X118306904Y-109981904D01*
X118345000Y-109867619D01*
X118383095Y-109829523D01*
X119106904Y-109486666D02*
X118306904Y-109486666D01*
X118878333Y-109220000D01*
X118306904Y-108953333D01*
X119106904Y-108953333D01*
X119106904Y-108572380D02*
X118306904Y-108572380D01*
X118306904Y-108381904D01*
X118345000Y-108267619D01*
X118421190Y-108191428D01*
X118497380Y-108153333D01*
X118649761Y-108115238D01*
X118764047Y-108115238D01*
X118916428Y-108153333D01*
X118992619Y-108191428D01*
X119068809Y-108267619D01*
X119106904Y-108381904D01*
X119106904Y-108572380D01*
X118306904Y-120370476D02*
X118306904Y-119875238D01*
X118611666Y-120141904D01*
X118611666Y-120027619D01*
X118649761Y-119951428D01*
X118687857Y-119913333D01*
X118764047Y-119875238D01*
X118954523Y-119875238D01*
X119030714Y-119913333D01*
X119068809Y-119951428D01*
X119106904Y-120027619D01*
X119106904Y-120256190D01*
X119068809Y-120332380D01*
X119030714Y-120370476D01*
X118306904Y-119646666D02*
X119106904Y-119380000D01*
X118306904Y-119113333D01*
X118306904Y-118922857D02*
X118306904Y-118427619D01*
X118611666Y-118694285D01*
X118611666Y-118580000D01*
X118649761Y-118503809D01*
X118687857Y-118465714D01*
X118764047Y-118427619D01*
X118954523Y-118427619D01*
X119030714Y-118465714D01*
X119068809Y-118503809D01*
X119106904Y-118580000D01*
X119106904Y-118808571D01*
X119068809Y-118884761D01*
X119030714Y-118922857D01*
X118345000Y-117449523D02*
X118306904Y-117525714D01*
X118306904Y-117640000D01*
X118345000Y-117754285D01*
X118421190Y-117830476D01*
X118497380Y-117868571D01*
X118649761Y-117906666D01*
X118764047Y-117906666D01*
X118916428Y-117868571D01*
X118992619Y-117830476D01*
X119068809Y-117754285D01*
X119106904Y-117640000D01*
X119106904Y-117563809D01*
X119068809Y-117449523D01*
X119030714Y-117411428D01*
X118764047Y-117411428D01*
X118764047Y-117563809D01*
X119106904Y-117068571D02*
X118306904Y-117068571D01*
X119106904Y-116611428D01*
X118306904Y-116611428D01*
X119106904Y-116230476D02*
X118306904Y-116230476D01*
X118306904Y-116040000D01*
X118345000Y-115925714D01*
X118421190Y-115849523D01*
X118497380Y-115811428D01*
X118649761Y-115773333D01*
X118764047Y-115773333D01*
X118916428Y-115811428D01*
X118992619Y-115849523D01*
X119068809Y-115925714D01*
X119106904Y-116040000D01*
X119106904Y-116230476D01*
X119106904Y-104730476D02*
X118306904Y-104730476D01*
X118306904Y-104540000D01*
X118345000Y-104425714D01*
X118421190Y-104349523D01*
X118497380Y-104311428D01*
X118649761Y-104273333D01*
X118764047Y-104273333D01*
X118916428Y-104311428D01*
X118992619Y-104349523D01*
X119068809Y-104425714D01*
X119106904Y-104540000D01*
X119106904Y-104730476D01*
X119106904Y-103511428D02*
X119106904Y-103968571D01*
X119106904Y-103740000D02*
X118306904Y-103740000D01*
X118421190Y-103816190D01*
X118497380Y-103892380D01*
X118535476Y-103968571D01*
X119106904Y-107270476D02*
X118306904Y-107270476D01*
X118306904Y-107080000D01*
X118345000Y-106965714D01*
X118421190Y-106889523D01*
X118497380Y-106851428D01*
X118649761Y-106813333D01*
X118764047Y-106813333D01*
X118916428Y-106851428D01*
X118992619Y-106889523D01*
X119068809Y-106965714D01*
X119106904Y-107080000D01*
X119106904Y-107270476D01*
X118306904Y-106546666D02*
X118306904Y-106051428D01*
X118611666Y-106318095D01*
X118611666Y-106203809D01*
X118649761Y-106127619D01*
X118687857Y-106089523D01*
X118764047Y-106051428D01*
X118954523Y-106051428D01*
X119030714Y-106089523D01*
X119068809Y-106127619D01*
X119106904Y-106203809D01*
X119106904Y-106432380D01*
X119068809Y-106508571D01*
X119030714Y-106546666D01*
X119030714Y-114776190D02*
X119068809Y-114814285D01*
X119106904Y-114928571D01*
X119106904Y-115004761D01*
X119068809Y-115119047D01*
X118992619Y-115195238D01*
X118916428Y-115233333D01*
X118764047Y-115271428D01*
X118649761Y-115271428D01*
X118497380Y-115233333D01*
X118421190Y-115195238D01*
X118345000Y-115119047D01*
X118306904Y-115004761D01*
X118306904Y-114928571D01*
X118345000Y-114814285D01*
X118383095Y-114776190D01*
X119106904Y-114052380D02*
X119106904Y-114433333D01*
X118306904Y-114433333D01*
X119106904Y-113785714D02*
X118306904Y-113785714D01*
X119106904Y-113328571D02*
X118649761Y-113671428D01*
X118306904Y-113328571D02*
X118764047Y-113785714D01*
D10*
X147133333Y-110907142D02*
X147085714Y-110954761D01*
X146942857Y-111002380D01*
X146847619Y-111002380D01*
X146704761Y-110954761D01*
X146609523Y-110859523D01*
X146561904Y-110764285D01*
X146514285Y-110573809D01*
X146514285Y-110430952D01*
X146561904Y-110240476D01*
X146609523Y-110145238D01*
X146704761Y-110050000D01*
X146847619Y-110002380D01*
X146942857Y-110002380D01*
X147085714Y-110050000D01*
X147133333Y-110097619D01*
X147990476Y-110002380D02*
X147800000Y-110002380D01*
X147704761Y-110050000D01*
X147657142Y-110097619D01*
X147561904Y-110240476D01*
X147514285Y-110430952D01*
X147514285Y-110811904D01*
X147561904Y-110907142D01*
X147609523Y-110954761D01*
X147704761Y-111002380D01*
X147895238Y-111002380D01*
X147990476Y-110954761D01*
X148038095Y-110907142D01*
X148085714Y-110811904D01*
X148085714Y-110573809D01*
X148038095Y-110478571D01*
X147990476Y-110430952D01*
X147895238Y-110383333D01*
X147704761Y-110383333D01*
X147609523Y-110430952D01*
X147561904Y-110478571D01*
X147514285Y-110573809D01*
X146558095Y-104652380D02*
X146558095Y-105461904D01*
X146605714Y-105557142D01*
X146653333Y-105604761D01*
X146748571Y-105652380D01*
X146939047Y-105652380D01*
X147034285Y-105604761D01*
X147081904Y-105557142D01*
X147129523Y-105461904D01*
X147129523Y-104652380D01*
X148129523Y-105652380D02*
X147558095Y-105652380D01*
X147843809Y-105652380D02*
X147843809Y-104652380D01*
X147748571Y-104795238D01*
X147653333Y-104890476D01*
X147558095Y-104938095D01*
X121158095Y-75862380D02*
X121158095Y-76671904D01*
X121205714Y-76767142D01*
X121253333Y-76814761D01*
X121348571Y-76862380D01*
X121539047Y-76862380D01*
X121634285Y-76814761D01*
X121681904Y-76767142D01*
X121729523Y-76671904D01*
X121729523Y-75862380D01*
X122634285Y-75862380D02*
X122443809Y-75862380D01*
X122348571Y-75910000D01*
X122300952Y-75957619D01*
X122205714Y-76100476D01*
X122158095Y-76290952D01*
X122158095Y-76671904D01*
X122205714Y-76767142D01*
X122253333Y-76814761D01*
X122348571Y-76862380D01*
X122539047Y-76862380D01*
X122634285Y-76814761D01*
X122681904Y-76767142D01*
X122729523Y-76671904D01*
X122729523Y-76433809D01*
X122681904Y-76338571D01*
X122634285Y-76290952D01*
X122539047Y-76243333D01*
X122348571Y-76243333D01*
X122253333Y-76290952D01*
X122205714Y-76338571D01*
X122158095Y-76433809D01*
X171886666Y-75906380D02*
X171886666Y-76620666D01*
X171839047Y-76763523D01*
X171743809Y-76858761D01*
X171600952Y-76906380D01*
X171505714Y-76906380D01*
X172362857Y-76906380D02*
X172362857Y-75906380D01*
X172743809Y-75906380D01*
X172839047Y-75954000D01*
X172886666Y-76001619D01*
X172934285Y-76096857D01*
X172934285Y-76239714D01*
X172886666Y-76334952D01*
X172839047Y-76382571D01*
X172743809Y-76430190D01*
X172362857Y-76430190D01*
X173315238Y-76001619D02*
X173362857Y-75954000D01*
X173458095Y-75906380D01*
X173696190Y-75906380D01*
X173791428Y-75954000D01*
X173839047Y-76001619D01*
X173886666Y-76096857D01*
X173886666Y-76192095D01*
X173839047Y-76334952D01*
X173267619Y-76906380D01*
X173886666Y-76906380D01*
X163068095Y-105922380D02*
X163068095Y-106731904D01*
X163115714Y-106827142D01*
X163163333Y-106874761D01*
X163258571Y-106922380D01*
X163449047Y-106922380D01*
X163544285Y-106874761D01*
X163591904Y-106827142D01*
X163639523Y-106731904D01*
X163639523Y-105922380D01*
X164591904Y-105922380D02*
X164115714Y-105922380D01*
X164068095Y-106398571D01*
X164115714Y-106350952D01*
X164210952Y-106303333D01*
X164449047Y-106303333D01*
X164544285Y-106350952D01*
X164591904Y-106398571D01*
X164639523Y-106493809D01*
X164639523Y-106731904D01*
X164591904Y-106827142D01*
X164544285Y-106874761D01*
X164449047Y-106922380D01*
X164210952Y-106922380D01*
X164115714Y-106874761D01*
X164068095Y-106827142D01*
X130048095Y-108462380D02*
X130048095Y-109271904D01*
X130095714Y-109367142D01*
X130143333Y-109414761D01*
X130238571Y-109462380D01*
X130429047Y-109462380D01*
X130524285Y-109414761D01*
X130571904Y-109367142D01*
X130619523Y-109271904D01*
X130619523Y-108462380D01*
X131000476Y-108462380D02*
X131619523Y-108462380D01*
X131286190Y-108843333D01*
X131429047Y-108843333D01*
X131524285Y-108890952D01*
X131571904Y-108938571D01*
X131619523Y-109033809D01*
X131619523Y-109271904D01*
X131571904Y-109367142D01*
X131524285Y-109414761D01*
X131429047Y-109462380D01*
X131143333Y-109462380D01*
X131048095Y-109414761D01*
X131000476Y-109367142D01*
D12*
X162642090Y-113400114D02*
X162596128Y-113446076D01*
X162458242Y-113492038D01*
X162366318Y-113492038D01*
X162228433Y-113446076D01*
X162136509Y-113354152D01*
X162090547Y-113262228D01*
X162044585Y-113078380D01*
X162044585Y-112940495D01*
X162090547Y-112756647D01*
X162136509Y-112664723D01*
X162228433Y-112572800D01*
X162366318Y-112526838D01*
X162458242Y-112526838D01*
X162596128Y-112572800D01*
X162642090Y-112618761D01*
X163469404Y-112848571D02*
X163469404Y-113492038D01*
X163239595Y-112480876D02*
X163009785Y-113170304D01*
X163607290Y-113170304D01*
D10*
X163053095Y-114514380D02*
X163053095Y-115323904D01*
X163100714Y-115419142D01*
X163148333Y-115466761D01*
X163243571Y-115514380D01*
X163434047Y-115514380D01*
X163529285Y-115466761D01*
X163576904Y-115419142D01*
X163624523Y-115323904D01*
X163624523Y-114514380D01*
X164529285Y-114847714D02*
X164529285Y-115514380D01*
X164291190Y-114466761D02*
X164053095Y-115181047D01*
X164672142Y-115181047D01*
D12*
X129368090Y-79110114D02*
X129322128Y-79156076D01*
X129184242Y-79202038D01*
X129092318Y-79202038D01*
X128954433Y-79156076D01*
X128862509Y-79064152D01*
X128816547Y-78972228D01*
X128770585Y-78788380D01*
X128770585Y-78650495D01*
X128816547Y-78466647D01*
X128862509Y-78374723D01*
X128954433Y-78282800D01*
X129092318Y-78236838D01*
X129184242Y-78236838D01*
X129322128Y-78282800D01*
X129368090Y-78328761D01*
X129689823Y-78236838D02*
X130333290Y-78236838D01*
X129919633Y-79202038D01*
D10*
X110545714Y-77807142D02*
X110498095Y-77854761D01*
X110355238Y-77902380D01*
X110260000Y-77902380D01*
X110117142Y-77854761D01*
X110021904Y-77759523D01*
X109974285Y-77664285D01*
X109926666Y-77473809D01*
X109926666Y-77330952D01*
X109974285Y-77140476D01*
X110021904Y-77045238D01*
X110117142Y-76950000D01*
X110260000Y-76902380D01*
X110355238Y-76902380D01*
X110498095Y-76950000D01*
X110545714Y-76997619D01*
X111164761Y-76902380D02*
X111355238Y-76902380D01*
X111450476Y-76950000D01*
X111545714Y-77045238D01*
X111593333Y-77235714D01*
X111593333Y-77569047D01*
X111545714Y-77759523D01*
X111450476Y-77854761D01*
X111355238Y-77902380D01*
X111164761Y-77902380D01*
X111069523Y-77854761D01*
X110974285Y-77759523D01*
X110926666Y-77569047D01*
X110926666Y-77235714D01*
X110974285Y-77045238D01*
X111069523Y-76950000D01*
X111164761Y-76902380D01*
X112021904Y-77902380D02*
X112021904Y-76902380D01*
X112593333Y-77902380D01*
X112593333Y-76902380D01*
X113593333Y-77902380D02*
X113021904Y-77902380D01*
X113307619Y-77902380D02*
X113307619Y-76902380D01*
X113212380Y-77045238D01*
X113117142Y-77140476D01*
X113021904Y-77188095D01*
D12*
X162358496Y-109585114D02*
X162312534Y-109631076D01*
X162174648Y-109677038D01*
X162082724Y-109677038D01*
X161944839Y-109631076D01*
X161852915Y-109539152D01*
X161806953Y-109447228D01*
X161760991Y-109263380D01*
X161760991Y-109125495D01*
X161806953Y-108941647D01*
X161852915Y-108849723D01*
X161944839Y-108757800D01*
X162082724Y-108711838D01*
X162174648Y-108711838D01*
X162312534Y-108757800D01*
X162358496Y-108803761D01*
X163231772Y-108711838D02*
X162772153Y-108711838D01*
X162726191Y-109171457D01*
X162772153Y-109125495D01*
X162864077Y-109079533D01*
X163093886Y-109079533D01*
X163185810Y-109125495D01*
X163231772Y-109171457D01*
X163277734Y-109263380D01*
X163277734Y-109493190D01*
X163231772Y-109585114D01*
X163185810Y-109631076D01*
X163093886Y-109677038D01*
X162864077Y-109677038D01*
X162772153Y-109631076D01*
X162726191Y-109585114D01*
X129216176Y-112155114D02*
X129170214Y-112201076D01*
X129032328Y-112247038D01*
X128940404Y-112247038D01*
X128802519Y-112201076D01*
X128710595Y-112109152D01*
X128664633Y-112017228D01*
X128618671Y-111833380D01*
X128618671Y-111695495D01*
X128664633Y-111511647D01*
X128710595Y-111419723D01*
X128802519Y-111327800D01*
X128940404Y-111281838D01*
X129032328Y-111281838D01*
X129170214Y-111327800D01*
X129216176Y-111373761D01*
X129537909Y-111281838D02*
X130135414Y-111281838D01*
X129813681Y-111649533D01*
X129951566Y-111649533D01*
X130043490Y-111695495D01*
X130089452Y-111741457D01*
X130135414Y-111833380D01*
X130135414Y-112063190D01*
X130089452Y-112155114D01*
X130043490Y-112201076D01*
X129951566Y-112247038D01*
X129675795Y-112247038D01*
X129583871Y-112201076D01*
X129537909Y-112155114D01*
D10*
X146986666Y-75906380D02*
X146986666Y-76620666D01*
X146939047Y-76763523D01*
X146843809Y-76858761D01*
X146700952Y-76906380D01*
X146605714Y-76906380D01*
X147986666Y-76906380D02*
X147415238Y-76906380D01*
X147700952Y-76906380D02*
X147700952Y-75906380D01*
X147605714Y-76049238D01*
X147510476Y-76144476D01*
X147415238Y-76192095D01*
D12*
X145778496Y-108320114D02*
X145732534Y-108366076D01*
X145594648Y-108412038D01*
X145502724Y-108412038D01*
X145364839Y-108366076D01*
X145272915Y-108274152D01*
X145226953Y-108182228D01*
X145180991Y-107998380D01*
X145180991Y-107860495D01*
X145226953Y-107676647D01*
X145272915Y-107584723D01*
X145364839Y-107492800D01*
X145502724Y-107446838D01*
X145594648Y-107446838D01*
X145732534Y-107492800D01*
X145778496Y-107538761D01*
X146697734Y-108412038D02*
X146146191Y-108412038D01*
X146421962Y-108412038D02*
X146421962Y-107446838D01*
X146330039Y-107584723D01*
X146238115Y-107676647D01*
X146146191Y-107722609D01*
X127385114Y-137225229D02*
X127431076Y-137271191D01*
X127477038Y-137409077D01*
X127477038Y-137501001D01*
X127431076Y-137638886D01*
X127339152Y-137730810D01*
X127247228Y-137776772D01*
X127063380Y-137822734D01*
X126925495Y-137822734D01*
X126741647Y-137776772D01*
X126649723Y-137730810D01*
X126557800Y-137638886D01*
X126511838Y-137501001D01*
X126511838Y-137409077D01*
X126557800Y-137271191D01*
X126603761Y-137225229D01*
X126603761Y-136857534D02*
X126557800Y-136811572D01*
X126511838Y-136719648D01*
X126511838Y-136489839D01*
X126557800Y-136397915D01*
X126603761Y-136351953D01*
X126695685Y-136305991D01*
X126787609Y-136305991D01*
X126925495Y-136351953D01*
X127477038Y-136903496D01*
X127477038Y-136305991D01*
D10*
X113085714Y-123757142D02*
X113038095Y-123804761D01*
X112895238Y-123852380D01*
X112800000Y-123852380D01*
X112657142Y-123804761D01*
X112561904Y-123709523D01*
X112514285Y-123614285D01*
X112466666Y-123423809D01*
X112466666Y-123280952D01*
X112514285Y-123090476D01*
X112561904Y-122995238D01*
X112657142Y-122900000D01*
X112800000Y-122852380D01*
X112895238Y-122852380D01*
X113038095Y-122900000D01*
X113085714Y-122947619D01*
X113704761Y-122852380D02*
X113895238Y-122852380D01*
X113990476Y-122900000D01*
X114085714Y-122995238D01*
X114133333Y-123185714D01*
X114133333Y-123519047D01*
X114085714Y-123709523D01*
X113990476Y-123804761D01*
X113895238Y-123852380D01*
X113704761Y-123852380D01*
X113609523Y-123804761D01*
X113514285Y-123709523D01*
X113466666Y-123519047D01*
X113466666Y-123185714D01*
X113514285Y-122995238D01*
X113609523Y-122900000D01*
X113704761Y-122852380D01*
X114561904Y-123852380D02*
X114561904Y-122852380D01*
X115133333Y-123852380D01*
X115133333Y-122852380D01*
X115514285Y-122852380D02*
X116133333Y-122852380D01*
X115800000Y-123233333D01*
X115942857Y-123233333D01*
X116038095Y-123280952D01*
X116085714Y-123328571D01*
X116133333Y-123423809D01*
X116133333Y-123661904D01*
X116085714Y-123757142D01*
X116038095Y-123804761D01*
X115942857Y-123852380D01*
X115657142Y-123852380D01*
X115561904Y-123804761D01*
X115514285Y-123757142D01*
X129192380Y-136646904D02*
X130001904Y-136646904D01*
X130097142Y-136599285D01*
X130144761Y-136551666D01*
X130192380Y-136456428D01*
X130192380Y-136265952D01*
X130144761Y-136170714D01*
X130097142Y-136123095D01*
X130001904Y-136075476D01*
X129192380Y-136075476D01*
X129287619Y-135646904D02*
X129240000Y-135599285D01*
X129192380Y-135504047D01*
X129192380Y-135265952D01*
X129240000Y-135170714D01*
X129287619Y-135123095D01*
X129382857Y-135075476D01*
X129478095Y-135075476D01*
X129620952Y-135123095D01*
X130192380Y-135694523D01*
X130192380Y-135075476D01*
X130643333Y-117272380D02*
X130310000Y-116796190D01*
X130071904Y-117272380D02*
X130071904Y-116272380D01*
X130452857Y-116272380D01*
X130548095Y-116320000D01*
X130595714Y-116367619D01*
X130643333Y-116462857D01*
X130643333Y-116605714D01*
X130595714Y-116700952D01*
X130548095Y-116748571D01*
X130452857Y-116796190D01*
X130071904Y-116796190D01*
X131595714Y-117272380D02*
X131024285Y-117272380D01*
X131310000Y-117272380D02*
X131310000Y-116272380D01*
X131214761Y-116415238D01*
X131119523Y-116510476D01*
X131024285Y-116558095D01*
X109275714Y-96647142D02*
X109228095Y-96694761D01*
X109085238Y-96742380D01*
X108990000Y-96742380D01*
X108847142Y-96694761D01*
X108751904Y-96599523D01*
X108704285Y-96504285D01*
X108656666Y-96313809D01*
X108656666Y-96170952D01*
X108704285Y-95980476D01*
X108751904Y-95885238D01*
X108847142Y-95790000D01*
X108990000Y-95742380D01*
X109085238Y-95742380D01*
X109228095Y-95790000D01*
X109275714Y-95837619D01*
X109894761Y-95742380D02*
X110085238Y-95742380D01*
X110180476Y-95790000D01*
X110275714Y-95885238D01*
X110323333Y-96075714D01*
X110323333Y-96409047D01*
X110275714Y-96599523D01*
X110180476Y-96694761D01*
X110085238Y-96742380D01*
X109894761Y-96742380D01*
X109799523Y-96694761D01*
X109704285Y-96599523D01*
X109656666Y-96409047D01*
X109656666Y-96075714D01*
X109704285Y-95885238D01*
X109799523Y-95790000D01*
X109894761Y-95742380D01*
X110751904Y-96742380D02*
X110751904Y-95742380D01*
X111323333Y-96742380D01*
X111323333Y-95742380D01*
X111751904Y-95837619D02*
X111799523Y-95790000D01*
X111894761Y-95742380D01*
X112132857Y-95742380D01*
X112228095Y-95790000D01*
X112275714Y-95837619D01*
X112323333Y-95932857D01*
X112323333Y-96028095D01*
X112275714Y-96170952D01*
X111704285Y-96742380D01*
X112323333Y-96742380D01*
D11*
X148381000Y-115340000D02*
X148381000Y-116648000D01*
X149261000Y-112601000D02*
X149261000Y-113260000D01*
X149541000Y-112981000D02*
X149541000Y-113260000D01*
X149501000Y-112917000D02*
X149501000Y-113260000D01*
X147780000Y-115340000D02*
X147780000Y-116836000D01*
X148581000Y-112053000D02*
X148581000Y-113260000D01*
X147300000Y-111720000D02*
X147300000Y-116880000D01*
X148461000Y-115340000D02*
X148461000Y-116610000D01*
X149141000Y-115340000D02*
X149141000Y-116126000D01*
X148741000Y-115340000D02*
X148741000Y-116449000D01*
X148021000Y-115340000D02*
X148021000Y-116780000D01*
X148781000Y-115340000D02*
X148781000Y-116422000D01*
X149461000Y-112857000D02*
X149461000Y-113260000D01*
X147380000Y-111721000D02*
X147380000Y-116879000D01*
X148901000Y-112265000D02*
X148901000Y-113260000D01*
X149861000Y-113782000D02*
X149861000Y-114818000D01*
X148101000Y-111845000D02*
X148101000Y-113260000D01*
X148621000Y-112076000D02*
X148621000Y-113260000D01*
X148421000Y-115340000D02*
X148421000Y-116629000D01*
X149221000Y-115340000D02*
X149221000Y-116043000D01*
X148941000Y-115340000D02*
X148941000Y-116304000D01*
X149541000Y-115340000D02*
X149541000Y-115619000D01*
X149581000Y-115340000D02*
X149581000Y-115551000D01*
X149101000Y-115340000D02*
X149101000Y-116164000D01*
X147860000Y-115340000D02*
X147860000Y-116820000D01*
X147780000Y-111764000D02*
X147780000Y-113260000D01*
X148021000Y-111820000D02*
X148021000Y-113260000D01*
X148221000Y-111886000D02*
X148221000Y-113260000D01*
X147980000Y-115340000D02*
X147980000Y-116791000D01*
X149821000Y-113623000D02*
X149821000Y-114977000D01*
X148701000Y-112125000D02*
X148701000Y-113260000D01*
X148061000Y-115340000D02*
X148061000Y-116768000D01*
X149181000Y-112515000D02*
X149181000Y-113260000D01*
X149461000Y-115340000D02*
X149461000Y-115743000D01*
X149021000Y-112363000D02*
X149021000Y-113260000D01*
X148741000Y-112151000D02*
X148741000Y-113260000D01*
X148421000Y-111971000D02*
X148421000Y-113260000D01*
X147660000Y-115340000D02*
X147660000Y-116856000D01*
X149501000Y-115340000D02*
X149501000Y-115683000D01*
X147900000Y-111789000D02*
X147900000Y-113260000D01*
X149661000Y-113202000D02*
X149661000Y-115398000D01*
X149221000Y-112557000D02*
X149221000Y-113260000D01*
X147540000Y-115340000D02*
X147540000Y-116869000D01*
X147820000Y-115340000D02*
X147820000Y-116828000D01*
X147740000Y-111757000D02*
X147740000Y-113260000D01*
X147460000Y-111724000D02*
X147460000Y-116876000D01*
X148821000Y-112205000D02*
X148821000Y-113260000D01*
X148541000Y-115340000D02*
X148541000Y-116568000D01*
X148301000Y-111918000D02*
X148301000Y-113260000D01*
X147940000Y-115340000D02*
X147940000Y-116801000D01*
X147820000Y-111772000D02*
X147820000Y-113260000D01*
X147340000Y-111720000D02*
X147340000Y-116880000D01*
X148341000Y-111935000D02*
X148341000Y-113260000D01*
X149301000Y-115340000D02*
X149301000Y-115953000D01*
X147940000Y-111799000D02*
X147940000Y-113260000D01*
X147620000Y-111739000D02*
X147620000Y-113260000D01*
X148661000Y-112100000D02*
X148661000Y-113260000D01*
X148901000Y-115340000D02*
X148901000Y-116335000D01*
X149141000Y-112474000D02*
X149141000Y-113260000D01*
X147700000Y-115340000D02*
X147700000Y-116850000D01*
X148141000Y-111858000D02*
X148141000Y-113260000D01*
X147860000Y-111780000D02*
X147860000Y-113260000D01*
X147700000Y-111750000D02*
X147700000Y-113260000D01*
X148701000Y-115340000D02*
X148701000Y-116475000D01*
X148261000Y-115340000D02*
X148261000Y-116698000D01*
X147420000Y-111722000D02*
X147420000Y-116878000D01*
X147500000Y-111727000D02*
X147500000Y-116873000D01*
X147540000Y-111731000D02*
X147540000Y-113260000D01*
X147900000Y-115340000D02*
X147900000Y-116811000D01*
X149181000Y-115340000D02*
X149181000Y-116085000D01*
X148501000Y-112010000D02*
X148501000Y-113260000D01*
X148861000Y-112235000D02*
X148861000Y-113260000D01*
X148341000Y-115340000D02*
X148341000Y-116665000D01*
X149301000Y-112647000D02*
X149301000Y-113260000D01*
X147660000Y-111744000D02*
X147660000Y-113260000D01*
X149021000Y-115340000D02*
X149021000Y-116237000D01*
X148141000Y-115340000D02*
X148141000Y-116742000D01*
X148861000Y-115340000D02*
X148861000Y-116365000D01*
X148581000Y-115340000D02*
X148581000Y-116547000D01*
X149061000Y-115340000D02*
X149061000Y-116201000D01*
X148101000Y-115340000D02*
X148101000Y-116755000D01*
X148621000Y-115340000D02*
X148621000Y-116524000D01*
X148261000Y-111902000D02*
X148261000Y-113260000D01*
X144495225Y-112825000D02*
X144995225Y-112825000D01*
X149341000Y-115340000D02*
X149341000Y-115905000D01*
X149781000Y-113495000D02*
X149781000Y-115105000D01*
X149581000Y-113049000D02*
X149581000Y-113260000D01*
X148181000Y-115340000D02*
X148181000Y-116728000D01*
X147580000Y-115340000D02*
X147580000Y-116865000D01*
X149901000Y-114016000D02*
X149901000Y-114584000D01*
X148181000Y-111872000D02*
X148181000Y-113260000D01*
X149701000Y-113289000D02*
X149701000Y-115311000D01*
X148301000Y-115340000D02*
X148301000Y-116682000D01*
X148941000Y-112296000D02*
X148941000Y-113260000D01*
X149421000Y-112800000D02*
X149421000Y-113260000D01*
X149621000Y-113122000D02*
X149621000Y-115478000D01*
X148781000Y-112178000D02*
X148781000Y-113260000D01*
X148661000Y-115340000D02*
X148661000Y-116500000D01*
X148221000Y-115340000D02*
X148221000Y-116714000D01*
X144745225Y-112575000D02*
X144745225Y-113075000D01*
X148381000Y-111952000D02*
X148381000Y-113260000D01*
X148981000Y-112329000D02*
X148981000Y-113260000D01*
X147980000Y-111809000D02*
X147980000Y-113260000D01*
X148821000Y-115340000D02*
X148821000Y-116395000D01*
X147620000Y-115340000D02*
X147620000Y-116861000D01*
X148501000Y-115340000D02*
X148501000Y-116590000D01*
X148541000Y-112032000D02*
X148541000Y-113260000D01*
X149381000Y-112746000D02*
X149381000Y-113260000D01*
X148461000Y-111990000D02*
X148461000Y-113260000D01*
X149381000Y-115340000D02*
X149381000Y-115854000D01*
X149741000Y-113385000D02*
X149741000Y-115215000D01*
X148981000Y-115340000D02*
X148981000Y-116271000D01*
X147580000Y-111735000D02*
X147580000Y-113260000D01*
X149421000Y-115340000D02*
X149421000Y-115800000D01*
X149061000Y-112399000D02*
X149061000Y-113260000D01*
X147740000Y-115340000D02*
X147740000Y-116843000D01*
X149341000Y-112695000D02*
X149341000Y-113260000D01*
X148061000Y-111832000D02*
X148061000Y-113260000D01*
X149261000Y-115340000D02*
X149261000Y-115999000D01*
X149101000Y-112436000D02*
X149101000Y-113260000D01*
X149920000Y-114300000D02*
G75*
G03*
X149920000Y-114300000I-2620000J0D01*
G01*
X149570000Y-104200000D02*
X149570000Y-78680000D01*
X145070000Y-104200000D02*
X146320000Y-104200000D01*
X145070000Y-78680000D02*
X145070000Y-104200000D01*
X148320000Y-104200000D02*
X149570000Y-104200000D01*
X149570000Y-78680000D02*
X145070000Y-78680000D01*
X148320000Y-104200000D02*
G75*
G03*
X146320000Y-104200000I-1000000J0D01*
G01*
X172720000Y-77380000D02*
X175320000Y-77380000D01*
X121920000Y-80010000D02*
X121920000Y-77410000D01*
X121920000Y-77410000D02*
X124520000Y-77410000D01*
X170120000Y-141000000D02*
X175320000Y-141000000D01*
X170120000Y-77380000D02*
X171450000Y-77380000D01*
X119320000Y-80010000D02*
X119320000Y-141030000D01*
X170120000Y-79980000D02*
X170120000Y-141000000D01*
X119320000Y-77410000D02*
X120650000Y-77410000D01*
X170120000Y-79980000D02*
X172720000Y-79980000D01*
X119320000Y-78740000D02*
X119320000Y-77410000D01*
X175320000Y-77380000D02*
X175320000Y-141000000D01*
X119320000Y-80010000D02*
X121920000Y-80010000D01*
X119320000Y-141030000D02*
X124520000Y-141030000D01*
X170120000Y-78710000D02*
X170120000Y-77380000D01*
X172720000Y-79980000D02*
X172720000Y-77380000D01*
X124520000Y-77410000D02*
X124520000Y-141030000D01*
X166080000Y-105470000D02*
X166080000Y-79950000D01*
X166080000Y-79950000D02*
X161580000Y-79950000D01*
X161580000Y-79950000D02*
X161580000Y-105470000D01*
X161580000Y-105470000D02*
X162830000Y-105470000D01*
X164830000Y-105470000D02*
X166080000Y-105470000D01*
X164830000Y-105470000D02*
G75*
G03*
X162830000Y-105470000I-1000000J0D01*
G01*
X131810000Y-108010000D02*
X133060000Y-108010000D01*
X133060000Y-108010000D02*
X133060000Y-82490000D01*
X128560000Y-82490000D02*
X128560000Y-108010000D01*
X128560000Y-108010000D02*
X129810000Y-108010000D01*
X133060000Y-82490000D02*
X128560000Y-82490000D01*
X131810000Y-108010000D02*
G75*
G03*
X129810000Y-108010000I-1000000J0D01*
G01*
X164830000Y-114100000D02*
X160290000Y-114100000D01*
X160290000Y-111975000D02*
X160290000Y-111960000D01*
X164830000Y-114100000D02*
X164830000Y-114085000D01*
X160290000Y-114100000D02*
X160290000Y-114085000D01*
X164830000Y-111975000D02*
X164830000Y-111960000D01*
X164830000Y-111960000D02*
X160290000Y-111960000D01*
X161565000Y-115510000D02*
X161565000Y-141030000D01*
X161565000Y-141030000D02*
X166065000Y-141030000D01*
X166065000Y-115510000D02*
X164815000Y-115510000D01*
X166065000Y-141030000D02*
X166065000Y-115510000D01*
X162815000Y-115510000D02*
X161565000Y-115510000D01*
X162815000Y-115510000D02*
G75*
G03*
X164815000Y-115510000I1000000J0D01*
G01*
X131850000Y-77670000D02*
X127310000Y-77670000D01*
X127310000Y-79810000D02*
X127310000Y-79795000D01*
X131850000Y-77685000D02*
X131850000Y-77670000D01*
X131850000Y-79810000D02*
X127310000Y-79810000D01*
X127310000Y-77685000D02*
X127310000Y-77670000D01*
X131850000Y-79810000D02*
X131850000Y-79795000D01*
X118000000Y-93940000D02*
X110400000Y-93950000D01*
X107700000Y-78730000D02*
X107200000Y-78730000D01*
X118000000Y-78740000D02*
X110400000Y-78730000D01*
X107700000Y-93950000D02*
X107200000Y-93950000D01*
X160305000Y-108145000D02*
X164845000Y-108145000D01*
X160305000Y-110270000D02*
X160305000Y-110285000D01*
X164845000Y-108145000D02*
X164845000Y-108160000D01*
X160305000Y-108145000D02*
X160305000Y-108160000D01*
X160305000Y-110285000D02*
X164845000Y-110285000D01*
X164845000Y-110270000D02*
X164845000Y-110285000D01*
X131850000Y-110715000D02*
X131850000Y-110730000D01*
X127310000Y-110715000D02*
X127310000Y-110730000D01*
X127310000Y-110715000D02*
X131850000Y-110715000D01*
X127310000Y-112855000D02*
X131850000Y-112855000D01*
X131850000Y-112840000D02*
X131850000Y-112855000D01*
X127310000Y-112840000D02*
X127310000Y-112855000D01*
X140870000Y-128330000D02*
X153790000Y-128330000D01*
X153790000Y-77410000D02*
X148330000Y-77410000D01*
X138380000Y-128390000D02*
X156280000Y-128390000D01*
X138380000Y-77350000D02*
X138380000Y-128390000D01*
X156280000Y-77350000D02*
X138380000Y-77350000D01*
X156280000Y-128390000D02*
X156280000Y-77350000D01*
X153790000Y-128330000D02*
X153790000Y-77410000D01*
X140870000Y-77410000D02*
X140870000Y-128330000D01*
X146330000Y-77410000D02*
X140870000Y-77410000D01*
X146330000Y-77410000D02*
G75*
G03*
X148330000Y-77410000I1000000J0D01*
G01*
X143725000Y-106880000D02*
X148265000Y-106880000D01*
X143725000Y-109005000D02*
X143725000Y-109020000D01*
X148265000Y-106880000D02*
X148265000Y-106895000D01*
X148265000Y-109005000D02*
X148265000Y-109020000D01*
X143725000Y-109020000D02*
X148265000Y-109020000D01*
X143725000Y-106880000D02*
X143725000Y-106895000D01*
X125930000Y-134850000D02*
X125930000Y-139390000D01*
X128070000Y-134850000D02*
X128055000Y-134850000D01*
X125945000Y-139390000D02*
X125930000Y-139390000D01*
X128070000Y-134850000D02*
X128070000Y-139390000D01*
X128070000Y-139390000D02*
X128055000Y-139390000D01*
X125945000Y-134850000D02*
X125930000Y-134850000D01*
X111700000Y-124400000D02*
X113030000Y-124400000D01*
X114300000Y-124400000D02*
X116900000Y-124400000D01*
X116900000Y-124400000D02*
X116900000Y-139760000D01*
X111700000Y-127000000D02*
X111700000Y-139760000D01*
X114300000Y-127000000D02*
X114300000Y-124400000D01*
X111700000Y-139760000D02*
X116900000Y-139760000D01*
X111700000Y-127000000D02*
X114300000Y-127000000D01*
X111700000Y-125730000D02*
X111700000Y-124400000D01*
X130740000Y-138135000D02*
X156260000Y-138135000D01*
X130740000Y-136885000D02*
X130740000Y-138135000D01*
X156260000Y-138135000D02*
X156260000Y-133635000D01*
X156260000Y-133635000D02*
X130740000Y-133635000D01*
X130740000Y-133635000D02*
X130740000Y-134885000D01*
X130740000Y-136885000D02*
G75*
G03*
X130740000Y-134885000I0J1000000D01*
G01*
X134080000Y-117880000D02*
X134080000Y-118210000D01*
X134080000Y-115800000D02*
X134080000Y-115470000D01*
X134080000Y-118210000D02*
X127540000Y-118210000D01*
X134080000Y-115470000D02*
X127540000Y-115470000D01*
X127540000Y-118210000D02*
X127540000Y-117880000D01*
X127540000Y-115470000D02*
X127540000Y-115800000D01*
X106750000Y-105410000D02*
X115380000Y-105410000D01*
X106750000Y-97730000D02*
X106750000Y-120710000D01*
X115380000Y-106320000D02*
X115790000Y-106320000D01*
X115380000Y-108860000D02*
X115790000Y-108860000D01*
X115380000Y-97730000D02*
X115380000Y-120710000D01*
X115380000Y-98700000D02*
X115730000Y-98700000D01*
X106750000Y-110490000D02*
X115380000Y-110490000D01*
X116840000Y-97730000D02*
X117950000Y-97730000D01*
X106750000Y-120710000D02*
X115380000Y-120710000D01*
X115380000Y-99420000D02*
X115730000Y-99420000D01*
X117950000Y-97730000D02*
X117950000Y-99060000D01*
X115380000Y-107040000D02*
X115790000Y-107040000D01*
X106750000Y-113030000D02*
X115380000Y-113030000D01*
X106750000Y-107950000D02*
X115380000Y-107950000D01*
X115380000Y-113940000D02*
X115790000Y-113940000D01*
X106750000Y-115570000D02*
X115380000Y-115570000D01*
X115380000Y-112120000D02*
X115790000Y-112120000D01*
X115380000Y-101240000D02*
X115790000Y-101240000D01*
X106750000Y-118110000D02*
X115380000Y-118110000D01*
X115380000Y-104500000D02*
X115790000Y-104500000D01*
X115380000Y-114660000D02*
X115790000Y-114660000D01*
X115380000Y-101960000D02*
X115790000Y-101960000D01*
X115380000Y-119740000D02*
X115790000Y-119740000D01*
X115380000Y-116480000D02*
X115790000Y-116480000D01*
X115380000Y-111400000D02*
X115790000Y-111400000D01*
X106750000Y-100330000D02*
X115380000Y-100330000D01*
X115380000Y-109580000D02*
X115790000Y-109580000D01*
X106750000Y-97730000D02*
X115380000Y-97730000D01*
X106750000Y-102870000D02*
X115380000Y-102870000D01*
X115380000Y-117200000D02*
X115790000Y-117200000D01*
X115380000Y-119020000D02*
X115790000Y-119020000D01*
X115380000Y-103780000D02*
X115790000Y-103780000D01*
%LPC*%
D13*
X146050000Y-114300000D03*
D14*
X148550000Y-114300000D03*
D15*
X151130000Y-102870000D03*
D16*
X151130000Y-100330000D03*
X151130000Y-97790000D03*
X151130000Y-95250000D03*
X151130000Y-92710000D03*
X151130000Y-90170000D03*
X151130000Y-87630000D03*
X151130000Y-85090000D03*
X151130000Y-82550000D03*
X151130000Y-80010000D03*
X143510000Y-80010000D03*
X143510000Y-82550000D03*
X143510000Y-85090000D03*
X143510000Y-87630000D03*
X143510000Y-90170000D03*
X143510000Y-92710000D03*
X143510000Y-95250000D03*
X143510000Y-97790000D03*
X143510000Y-100330000D03*
X143510000Y-102870000D03*
D17*
X120650000Y-78740000D03*
D18*
X123190000Y-78740000D03*
X120650000Y-81280000D03*
X123190000Y-81280000D03*
X120650000Y-83820000D03*
X123190000Y-83820000D03*
X120650000Y-86360000D03*
X123190000Y-86360000D03*
X120650000Y-88900000D03*
X123190000Y-88900000D03*
X120650000Y-91440000D03*
X123190000Y-91440000D03*
X120650000Y-93980000D03*
X123190000Y-93980000D03*
X120650000Y-96520000D03*
X123190000Y-96520000D03*
X120650000Y-99060000D03*
X123190000Y-99060000D03*
X120650000Y-101600000D03*
X123190000Y-101600000D03*
X120650000Y-104140000D03*
X123190000Y-104140000D03*
X120650000Y-106680000D03*
X123190000Y-106680000D03*
X120650000Y-109220000D03*
X123190000Y-109220000D03*
X120650000Y-111760000D03*
X123190000Y-111760000D03*
X120650000Y-114300000D03*
X123190000Y-114300000D03*
X120650000Y-116840000D03*
X123190000Y-116840000D03*
X120650000Y-119380000D03*
X123190000Y-119380000D03*
X120650000Y-121920000D03*
X123190000Y-121920000D03*
X120650000Y-124460000D03*
X123190000Y-124460000D03*
X120650000Y-127000000D03*
X123190000Y-127000000D03*
X120650000Y-129540000D03*
X123190000Y-129540000D03*
X120650000Y-132080000D03*
X123190000Y-132080000D03*
X120650000Y-134620000D03*
X123190000Y-134620000D03*
X120650000Y-137160000D03*
X123190000Y-137160000D03*
X120650000Y-139700000D03*
X123190000Y-139700000D03*
D17*
X171450000Y-78710000D03*
D18*
X173990000Y-78710000D03*
X171450000Y-81250000D03*
X173990000Y-81250000D03*
X171450000Y-83790000D03*
X173990000Y-83790000D03*
X171450000Y-86330000D03*
X173990000Y-86330000D03*
X171450000Y-88870000D03*
X173990000Y-88870000D03*
X171450000Y-91410000D03*
X173990000Y-91410000D03*
X171450000Y-93950000D03*
X173990000Y-93950000D03*
X171450000Y-96490000D03*
X173990000Y-96490000D03*
X171450000Y-99030000D03*
X173990000Y-99030000D03*
X171450000Y-101570000D03*
X173990000Y-101570000D03*
X171450000Y-104110000D03*
X173990000Y-104110000D03*
X171450000Y-106650000D03*
X173990000Y-106650000D03*
X171450000Y-109190000D03*
X173990000Y-109190000D03*
X171450000Y-111730000D03*
X173990000Y-111730000D03*
X171450000Y-114270000D03*
X173990000Y-114270000D03*
X171450000Y-116810000D03*
X173990000Y-116810000D03*
X171450000Y-119350000D03*
X173990000Y-119350000D03*
X171450000Y-121890000D03*
X173990000Y-121890000D03*
X171450000Y-124430000D03*
X173990000Y-124430000D03*
X171450000Y-126970000D03*
X173990000Y-126970000D03*
X171450000Y-129510000D03*
X173990000Y-129510000D03*
X171450000Y-132050000D03*
X173990000Y-132050000D03*
X171450000Y-134590000D03*
X173990000Y-134590000D03*
X171450000Y-137130000D03*
X173990000Y-137130000D03*
X171450000Y-139670000D03*
X173990000Y-139670000D03*
D15*
X167640000Y-104140000D03*
D16*
X167640000Y-101600000D03*
X167640000Y-99060000D03*
X167640000Y-96520000D03*
X167640000Y-93980000D03*
X167640000Y-91440000D03*
X167640000Y-88900000D03*
X167640000Y-86360000D03*
X167640000Y-83820000D03*
X167640000Y-81280000D03*
X160020000Y-81280000D03*
X160020000Y-83820000D03*
X160020000Y-86360000D03*
X160020000Y-88900000D03*
X160020000Y-91440000D03*
X160020000Y-93980000D03*
X160020000Y-96520000D03*
X160020000Y-99060000D03*
X160020000Y-101600000D03*
X160020000Y-104140000D03*
D15*
X134620000Y-106680000D03*
D16*
X134620000Y-104140000D03*
X134620000Y-101600000D03*
X134620000Y-99060000D03*
X134620000Y-96520000D03*
X134620000Y-93980000D03*
X134620000Y-91440000D03*
X134620000Y-88900000D03*
X134620000Y-86360000D03*
X134620000Y-83820000D03*
X127000000Y-83820000D03*
X127000000Y-86360000D03*
X127000000Y-88900000D03*
X127000000Y-91440000D03*
X127000000Y-93980000D03*
X127000000Y-96520000D03*
X127000000Y-99060000D03*
X127000000Y-101600000D03*
X127000000Y-104140000D03*
X127000000Y-106680000D03*
D14*
X165060000Y-113030000D03*
X160060000Y-113030000D03*
D15*
X160005000Y-116840000D03*
D16*
X160005000Y-119380000D03*
X160005000Y-121920000D03*
X160005000Y-124460000D03*
X160005000Y-127000000D03*
X160005000Y-129540000D03*
X160005000Y-132080000D03*
X160005000Y-134620000D03*
X160005000Y-137160000D03*
X160005000Y-139700000D03*
X167625000Y-139700000D03*
X167625000Y-137160000D03*
X167625000Y-134620000D03*
X167625000Y-132080000D03*
X167625000Y-129540000D03*
X167625000Y-127000000D03*
X167625000Y-124460000D03*
X167625000Y-121920000D03*
X167625000Y-119380000D03*
X167625000Y-116840000D03*
D14*
X132080000Y-78740000D03*
X127080000Y-78740000D03*
D19*
X110800000Y-86340000D03*
D20*
X117300000Y-91090000D03*
X115800000Y-90340000D03*
X117300000Y-89590000D03*
X114300000Y-89590000D03*
X115800000Y-88840000D03*
X114300000Y-88090000D03*
X117300000Y-88090000D03*
X115800000Y-87340000D03*
X117300000Y-86590000D03*
X114300000Y-86590000D03*
X115800000Y-85840000D03*
X114300000Y-85090000D03*
X117300000Y-85090000D03*
X115800000Y-84340000D03*
X117300000Y-83590000D03*
X114300000Y-83590000D03*
X115800000Y-82840000D03*
X114300000Y-82090000D03*
X117300000Y-82090000D03*
D21*
X109080000Y-93940000D03*
X109080000Y-78740000D03*
D14*
X160075000Y-109215000D03*
X165075000Y-109215000D03*
X127080000Y-111785000D03*
X132080000Y-111785000D03*
D13*
X139710000Y-78740000D03*
D22*
X139710000Y-81280000D03*
X139710000Y-83820000D03*
X139710000Y-86360000D03*
X139710000Y-88900000D03*
X139710000Y-91440000D03*
X139710000Y-93980000D03*
X139710000Y-96520000D03*
X139710000Y-99060000D03*
X139710000Y-101600000D03*
X139710000Y-104140000D03*
X139710000Y-106680000D03*
X139710000Y-109220000D03*
X139710000Y-111760000D03*
X139710000Y-114300000D03*
X139710000Y-116840000D03*
X139710000Y-119380000D03*
X139710000Y-121920000D03*
X139710000Y-124460000D03*
X139710000Y-127000000D03*
X154950000Y-127000000D03*
X154950000Y-124460000D03*
X154950000Y-121920000D03*
X154950000Y-119380000D03*
X154950000Y-116840000D03*
X154950000Y-114300000D03*
X154950000Y-111760000D03*
X154950000Y-109220000D03*
X154950000Y-106680000D03*
X154950000Y-104140000D03*
X154950000Y-101600000D03*
X154950000Y-99060000D03*
X154950000Y-96520000D03*
X154950000Y-93980000D03*
X154950000Y-91440000D03*
X154950000Y-88900000D03*
X154950000Y-86360000D03*
X154950000Y-83820000D03*
X154950000Y-81280000D03*
X154950000Y-78740000D03*
D14*
X143495000Y-107950000D03*
X148495000Y-107950000D03*
X127000000Y-134620000D03*
X127000000Y-139620000D03*
D17*
X113030000Y-125730000D03*
D18*
X115570000Y-125730000D03*
X113030000Y-128270000D03*
X115570000Y-128270000D03*
X113030000Y-130810000D03*
X115570000Y-130810000D03*
X113030000Y-133350000D03*
X115570000Y-133350000D03*
X113030000Y-135890000D03*
X115570000Y-135890000D03*
X113030000Y-138430000D03*
X115570000Y-138430000D03*
D23*
X132070000Y-139695000D03*
D24*
X134610000Y-139695000D03*
X137150000Y-139695000D03*
X139690000Y-139695000D03*
X142230000Y-139695000D03*
X144770000Y-139695000D03*
X147310000Y-139695000D03*
X149850000Y-139695000D03*
X152390000Y-139695000D03*
X154930000Y-139695000D03*
X154930000Y-132075000D03*
X152390000Y-132075000D03*
X149850000Y-132075000D03*
X147310000Y-132075000D03*
X144770000Y-132075000D03*
X142230000Y-132075000D03*
X139690000Y-132075000D03*
X137150000Y-132075000D03*
X134610000Y-132075000D03*
X132070000Y-132075000D03*
D14*
X134620000Y-116840000D03*
D22*
X127000000Y-116840000D03*
D17*
X116840000Y-119380000D03*
D18*
X116840000Y-116840000D03*
X116840000Y-114300000D03*
X116840000Y-111760000D03*
X116840000Y-109220000D03*
X116840000Y-106680000D03*
X116840000Y-104140000D03*
X116840000Y-101600000D03*
X116840000Y-99060000D03*
M02*
