%TF.GenerationSoftware,KiCad,Pcbnew,(6.0.9)*%
%TF.CreationDate,2024-06-02T20:06:49+02:00*%
%TF.ProjectId,Sombrero_MSX_Goa'uld_X,536f6d62-7265-4726-9f5f-4d53585f476f,rev?*%
%TF.SameCoordinates,Original*%
%TF.FileFunction,Drillmap*%
%TF.FilePolarity,Positive*%
%FSLAX45Y45*%
G04 Gerber Fmt 4.5, Leading zero omitted, Abs format (unit mm)*
G04 Created by KiCad (PCBNEW (6.0.9)) date 2024-06-02 20:06:49*
%MOMM*%
%LPD*%
G01*
G04 APERTURE LIST*
%ADD10C,0.050000*%
%ADD11C,0.200000*%
%ADD12C,0.170000*%
G04 APERTURE END LIST*
D10*
X10668000Y-7556500D02*
X17780000Y-7556500D01*
X17780000Y-7556500D02*
X17780000Y-14351000D01*
X17780000Y-14351000D02*
X10668000Y-14351000D01*
X10668000Y-14351000D02*
X10668000Y-7556500D01*
D11*
D12*
X10995000Y-8549000D02*
X11165000Y-8719000D01*
X11165000Y-8549000D02*
X10995000Y-8719000D01*
D11*
X10923119Y-14663976D02*
X10923119Y-14463976D01*
X10970738Y-14463976D01*
X10999310Y-14473500D01*
X11018357Y-14492548D01*
X11027881Y-14511595D01*
X11037405Y-14549690D01*
X11037405Y-14578262D01*
X11027881Y-14616357D01*
X11018357Y-14635405D01*
X10999310Y-14654452D01*
X10970738Y-14663976D01*
X10923119Y-14663976D01*
X11123119Y-14663976D02*
X11123119Y-14530643D01*
X11123119Y-14568738D02*
X11132643Y-14549690D01*
X11142167Y-14540167D01*
X11161214Y-14530643D01*
X11180262Y-14530643D01*
X11246928Y-14663976D02*
X11246928Y-14530643D01*
X11246928Y-14463976D02*
X11237405Y-14473500D01*
X11246928Y-14483024D01*
X11256452Y-14473500D01*
X11246928Y-14463976D01*
X11246928Y-14483024D01*
X11370738Y-14663976D02*
X11351690Y-14654452D01*
X11342167Y-14635405D01*
X11342167Y-14463976D01*
X11475500Y-14663976D02*
X11456452Y-14654452D01*
X11446928Y-14635405D01*
X11446928Y-14463976D01*
X11704071Y-14663976D02*
X11704071Y-14463976D01*
X11770738Y-14606833D01*
X11837405Y-14463976D01*
X11837405Y-14663976D01*
X12018357Y-14663976D02*
X12018357Y-14559214D01*
X12008833Y-14540167D01*
X11989786Y-14530643D01*
X11951690Y-14530643D01*
X11932643Y-14540167D01*
X12018357Y-14654452D02*
X11999309Y-14663976D01*
X11951690Y-14663976D01*
X11932643Y-14654452D01*
X11923119Y-14635405D01*
X11923119Y-14616357D01*
X11932643Y-14597309D01*
X11951690Y-14587786D01*
X11999309Y-14587786D01*
X12018357Y-14578262D01*
X12113595Y-14530643D02*
X12113595Y-14730643D01*
X12113595Y-14540167D02*
X12132643Y-14530643D01*
X12170738Y-14530643D01*
X12189786Y-14540167D01*
X12199309Y-14549690D01*
X12208833Y-14568738D01*
X12208833Y-14625881D01*
X12199309Y-14644928D01*
X12189786Y-14654452D01*
X12170738Y-14663976D01*
X12132643Y-14663976D01*
X12113595Y-14654452D01*
X12294548Y-14644928D02*
X12304071Y-14654452D01*
X12294548Y-14663976D01*
X12285024Y-14654452D01*
X12294548Y-14644928D01*
X12294548Y-14663976D01*
X12294548Y-14540167D02*
X12304071Y-14549690D01*
X12294548Y-14559214D01*
X12285024Y-14549690D01*
X12294548Y-14540167D01*
X12294548Y-14559214D01*
D12*
X10495500Y-14908500D02*
X10665500Y-15078500D01*
X10665500Y-14908500D02*
X10495500Y-15078500D01*
D11*
X11027881Y-15083976D02*
X10913595Y-15083976D01*
X10970738Y-15083976D02*
X10970738Y-14883976D01*
X10951690Y-14912548D01*
X10932643Y-14931595D01*
X10913595Y-14941119D01*
X11113595Y-15064928D02*
X11123119Y-15074452D01*
X11113595Y-15083976D01*
X11104071Y-15074452D01*
X11113595Y-15064928D01*
X11113595Y-15083976D01*
X11189786Y-14883976D02*
X11323119Y-14883976D01*
X11237405Y-15083976D01*
X11437405Y-14883976D02*
X11456452Y-14883976D01*
X11475500Y-14893500D01*
X11485024Y-14903024D01*
X11494548Y-14922071D01*
X11504071Y-14960167D01*
X11504071Y-15007786D01*
X11494548Y-15045881D01*
X11485024Y-15064928D01*
X11475500Y-15074452D01*
X11456452Y-15083976D01*
X11437405Y-15083976D01*
X11418357Y-15074452D01*
X11408833Y-15064928D01*
X11399309Y-15045881D01*
X11389786Y-15007786D01*
X11389786Y-14960167D01*
X11399309Y-14922071D01*
X11408833Y-14903024D01*
X11418357Y-14893500D01*
X11437405Y-14883976D01*
X11627881Y-14883976D02*
X11646928Y-14883976D01*
X11665976Y-14893500D01*
X11675500Y-14903024D01*
X11685024Y-14922071D01*
X11694548Y-14960167D01*
X11694548Y-15007786D01*
X11685024Y-15045881D01*
X11675500Y-15064928D01*
X11665976Y-15074452D01*
X11646928Y-15083976D01*
X11627881Y-15083976D01*
X11608833Y-15074452D01*
X11599309Y-15064928D01*
X11589786Y-15045881D01*
X11580262Y-15007786D01*
X11580262Y-14960167D01*
X11589786Y-14922071D01*
X11599309Y-14903024D01*
X11608833Y-14893500D01*
X11627881Y-14883976D01*
X11780262Y-15083976D02*
X11780262Y-14950643D01*
X11780262Y-14969690D02*
X11789786Y-14960167D01*
X11808833Y-14950643D01*
X11837405Y-14950643D01*
X11856452Y-14960167D01*
X11865976Y-14979214D01*
X11865976Y-15083976D01*
X11865976Y-14979214D02*
X11875500Y-14960167D01*
X11894548Y-14950643D01*
X11923119Y-14950643D01*
X11942167Y-14960167D01*
X11951690Y-14979214D01*
X11951690Y-15083976D01*
X12046928Y-15083976D02*
X12046928Y-14950643D01*
X12046928Y-14969690D02*
X12056452Y-14960167D01*
X12075500Y-14950643D01*
X12104071Y-14950643D01*
X12123119Y-14960167D01*
X12132643Y-14979214D01*
X12132643Y-15083976D01*
X12132643Y-14979214D02*
X12142167Y-14960167D01*
X12161214Y-14950643D01*
X12189786Y-14950643D01*
X12208833Y-14960167D01*
X12218357Y-14979214D01*
X12218357Y-15083976D01*
X12608833Y-14874452D02*
X12437405Y-15131595D01*
X12865976Y-14883976D02*
X12885024Y-14883976D01*
X12904071Y-14893500D01*
X12913595Y-14903024D01*
X12923119Y-14922071D01*
X12932643Y-14960167D01*
X12932643Y-15007786D01*
X12923119Y-15045881D01*
X12913595Y-15064928D01*
X12904071Y-15074452D01*
X12885024Y-15083976D01*
X12865976Y-15083976D01*
X12846928Y-15074452D01*
X12837405Y-15064928D01*
X12827881Y-15045881D01*
X12818357Y-15007786D01*
X12818357Y-14960167D01*
X12827881Y-14922071D01*
X12837405Y-14903024D01*
X12846928Y-14893500D01*
X12865976Y-14883976D01*
X13018357Y-15064928D02*
X13027881Y-15074452D01*
X13018357Y-15083976D01*
X13008833Y-15074452D01*
X13018357Y-15064928D01*
X13018357Y-15083976D01*
X13151690Y-14883976D02*
X13170738Y-14883976D01*
X13189786Y-14893500D01*
X13199309Y-14903024D01*
X13208833Y-14922071D01*
X13218357Y-14960167D01*
X13218357Y-15007786D01*
X13208833Y-15045881D01*
X13199309Y-15064928D01*
X13189786Y-15074452D01*
X13170738Y-15083976D01*
X13151690Y-15083976D01*
X13132643Y-15074452D01*
X13123119Y-15064928D01*
X13113595Y-15045881D01*
X13104071Y-15007786D01*
X13104071Y-14960167D01*
X13113595Y-14922071D01*
X13123119Y-14903024D01*
X13132643Y-14893500D01*
X13151690Y-14883976D01*
X13389786Y-14883976D02*
X13351690Y-14883976D01*
X13332643Y-14893500D01*
X13323119Y-14903024D01*
X13304071Y-14931595D01*
X13294548Y-14969690D01*
X13294548Y-15045881D01*
X13304071Y-15064928D01*
X13313595Y-15074452D01*
X13332643Y-15083976D01*
X13370738Y-15083976D01*
X13389786Y-15074452D01*
X13399309Y-15064928D01*
X13408833Y-15045881D01*
X13408833Y-14998262D01*
X13399309Y-14979214D01*
X13389786Y-14969690D01*
X13370738Y-14960167D01*
X13332643Y-14960167D01*
X13313595Y-14969690D01*
X13304071Y-14979214D01*
X13294548Y-14998262D01*
X13580262Y-14883976D02*
X13542167Y-14883976D01*
X13523119Y-14893500D01*
X13513595Y-14903024D01*
X13494548Y-14931595D01*
X13485024Y-14969690D01*
X13485024Y-15045881D01*
X13494548Y-15064928D01*
X13504071Y-15074452D01*
X13523119Y-15083976D01*
X13561214Y-15083976D01*
X13580262Y-15074452D01*
X13589786Y-15064928D01*
X13599309Y-15045881D01*
X13599309Y-14998262D01*
X13589786Y-14979214D01*
X13580262Y-14969690D01*
X13561214Y-14960167D01*
X13523119Y-14960167D01*
X13504071Y-14969690D01*
X13494548Y-14979214D01*
X13485024Y-14998262D01*
X13694548Y-15083976D02*
X13732643Y-15083976D01*
X13751690Y-15074452D01*
X13761214Y-15064928D01*
X13780262Y-15036357D01*
X13789786Y-14998262D01*
X13789786Y-14922071D01*
X13780262Y-14903024D01*
X13770738Y-14893500D01*
X13751690Y-14883976D01*
X13713595Y-14883976D01*
X13694548Y-14893500D01*
X13685024Y-14903024D01*
X13675500Y-14922071D01*
X13675500Y-14969690D01*
X13685024Y-14988738D01*
X13694548Y-14998262D01*
X13713595Y-15007786D01*
X13751690Y-15007786D01*
X13770738Y-14998262D01*
X13780262Y-14988738D01*
X13789786Y-14969690D01*
X13865976Y-14883976D02*
X13865976Y-14922071D01*
X13942167Y-14883976D02*
X13942167Y-14922071D01*
X14237405Y-15160167D02*
X14227881Y-15150643D01*
X14208833Y-15122071D01*
X14199309Y-15103024D01*
X14189786Y-15074452D01*
X14180262Y-15026833D01*
X14180262Y-14988738D01*
X14189786Y-14941119D01*
X14199309Y-14912548D01*
X14208833Y-14893500D01*
X14227881Y-14864928D01*
X14237405Y-14855405D01*
X14418357Y-15083976D02*
X14304071Y-15083976D01*
X14361214Y-15083976D02*
X14361214Y-14883976D01*
X14342167Y-14912548D01*
X14323119Y-14931595D01*
X14304071Y-14941119D01*
X14656452Y-15083976D02*
X14656452Y-14883976D01*
X14742167Y-15083976D02*
X14742167Y-14979214D01*
X14732643Y-14960167D01*
X14713595Y-14950643D01*
X14685024Y-14950643D01*
X14665976Y-14960167D01*
X14656452Y-14969690D01*
X14865976Y-15083976D02*
X14846928Y-15074452D01*
X14837405Y-15064928D01*
X14827881Y-15045881D01*
X14827881Y-14988738D01*
X14837405Y-14969690D01*
X14846928Y-14960167D01*
X14865976Y-14950643D01*
X14894548Y-14950643D01*
X14913595Y-14960167D01*
X14923119Y-14969690D01*
X14932643Y-14988738D01*
X14932643Y-15045881D01*
X14923119Y-15064928D01*
X14913595Y-15074452D01*
X14894548Y-15083976D01*
X14865976Y-15083976D01*
X15046928Y-15083976D02*
X15027881Y-15074452D01*
X15018357Y-15055405D01*
X15018357Y-14883976D01*
X15199309Y-15074452D02*
X15180262Y-15083976D01*
X15142167Y-15083976D01*
X15123119Y-15074452D01*
X15113595Y-15055405D01*
X15113595Y-14979214D01*
X15123119Y-14960167D01*
X15142167Y-14950643D01*
X15180262Y-14950643D01*
X15199309Y-14960167D01*
X15208833Y-14979214D01*
X15208833Y-14998262D01*
X15113595Y-15017309D01*
X15275500Y-15160167D02*
X15285024Y-15150643D01*
X15304071Y-15122071D01*
X15313595Y-15103024D01*
X15323119Y-15074452D01*
X15332643Y-15026833D01*
X15332643Y-14988738D01*
X15323119Y-14941119D01*
X15313595Y-14912548D01*
X15304071Y-14893500D01*
X15285024Y-14864928D01*
X15275500Y-14855405D01*
X15637405Y-15160167D02*
X15627881Y-15150643D01*
X15608833Y-15122071D01*
X15599309Y-15103024D01*
X15589786Y-15074452D01*
X15580262Y-15026833D01*
X15580262Y-14988738D01*
X15589786Y-14941119D01*
X15599309Y-14912548D01*
X15608833Y-14893500D01*
X15627881Y-14864928D01*
X15637405Y-14855405D01*
X15713595Y-14950643D02*
X15713595Y-15083976D01*
X15713595Y-14969690D02*
X15723119Y-14960167D01*
X15742167Y-14950643D01*
X15770738Y-14950643D01*
X15789786Y-14960167D01*
X15799309Y-14979214D01*
X15799309Y-15083976D01*
X15923119Y-15083976D02*
X15904071Y-15074452D01*
X15894548Y-15064928D01*
X15885024Y-15045881D01*
X15885024Y-14988738D01*
X15894548Y-14969690D01*
X15904071Y-14960167D01*
X15923119Y-14950643D01*
X15951690Y-14950643D01*
X15970738Y-14960167D01*
X15980262Y-14969690D01*
X15989786Y-14988738D01*
X15989786Y-15045881D01*
X15980262Y-15064928D01*
X15970738Y-15074452D01*
X15951690Y-15083976D01*
X15923119Y-15083976D01*
X16046928Y-14950643D02*
X16123119Y-14950643D01*
X16075500Y-14883976D02*
X16075500Y-15055405D01*
X16085024Y-15074452D01*
X16104071Y-15083976D01*
X16123119Y-15083976D01*
X16342167Y-14950643D02*
X16342167Y-15150643D01*
X16342167Y-14960167D02*
X16361214Y-14950643D01*
X16399309Y-14950643D01*
X16418357Y-14960167D01*
X16427881Y-14969690D01*
X16437405Y-14988738D01*
X16437405Y-15045881D01*
X16427881Y-15064928D01*
X16418357Y-15074452D01*
X16399309Y-15083976D01*
X16361214Y-15083976D01*
X16342167Y-15074452D01*
X16551690Y-15083976D02*
X16532643Y-15074452D01*
X16523119Y-15055405D01*
X16523119Y-14883976D01*
X16713595Y-15083976D02*
X16713595Y-14979214D01*
X16704071Y-14960167D01*
X16685024Y-14950643D01*
X16646928Y-14950643D01*
X16627881Y-14960167D01*
X16713595Y-15074452D02*
X16694548Y-15083976D01*
X16646928Y-15083976D01*
X16627881Y-15074452D01*
X16618357Y-15055405D01*
X16618357Y-15036357D01*
X16627881Y-15017309D01*
X16646928Y-15007786D01*
X16694548Y-15007786D01*
X16713595Y-14998262D01*
X16780262Y-14950643D02*
X16856452Y-14950643D01*
X16808833Y-14883976D02*
X16808833Y-15055405D01*
X16818357Y-15074452D01*
X16837405Y-15083976D01*
X16856452Y-15083976D01*
X16999310Y-15074452D02*
X16980262Y-15083976D01*
X16942167Y-15083976D01*
X16923119Y-15074452D01*
X16913595Y-15055405D01*
X16913595Y-14979214D01*
X16923119Y-14960167D01*
X16942167Y-14950643D01*
X16980262Y-14950643D01*
X16999310Y-14960167D01*
X17008833Y-14979214D01*
X17008833Y-14998262D01*
X16913595Y-15017309D01*
X17180262Y-15083976D02*
X17180262Y-14883976D01*
X17180262Y-15074452D02*
X17161214Y-15083976D01*
X17123119Y-15083976D01*
X17104071Y-15074452D01*
X17094548Y-15064928D01*
X17085024Y-15045881D01*
X17085024Y-14988738D01*
X17094548Y-14969690D01*
X17104071Y-14960167D01*
X17123119Y-14950643D01*
X17161214Y-14950643D01*
X17180262Y-14960167D01*
X17256452Y-15160167D02*
X17265976Y-15150643D01*
X17285024Y-15122071D01*
X17294548Y-15103024D01*
X17304071Y-15074452D01*
X17313595Y-15026833D01*
X17313595Y-14988738D01*
X17304071Y-14941119D01*
X17294548Y-14912548D01*
X17285024Y-14893500D01*
X17265976Y-14864928D01*
X17256452Y-14855405D01*
M02*
